G04 MADE WITH FRITZING*
G04 WWW.FRITZING.ORG*
G04 DOUBLE SIDED*
G04 HOLES PLATED*
G04 CONTOUR ON CENTER OF CONTOUR VECTOR*
%ASAXBY*%
%FSLAX23Y23*%
%MOIN*%
%OFA0B0*%
%SFA1.0B1.0*%
%ADD10C,0.075000*%
%ADD11C,0.078000*%
%ADD12C,0.070000*%
%ADD13C,0.074000*%
%ADD14C,0.073889*%
%ADD15R,0.078000X0.078000*%
%ADD16C,0.024000*%
%ADD17R,0.001000X0.001000*%
%LNCOPPER0*%
G90*
G70*
G54D10*
X521Y2113D03*
X3117Y2033D03*
X1029Y640D03*
X2841Y538D03*
X123Y3232D03*
G54D11*
X386Y2763D03*
X386Y2663D03*
G54D12*
X786Y2563D03*
X786Y2663D03*
G54D13*
X1186Y2763D03*
X1186Y2663D03*
X1186Y2563D03*
G54D12*
X1486Y2763D03*
X1486Y2863D03*
G54D11*
X1486Y2463D03*
X1486Y2363D03*
X3286Y763D03*
X3286Y663D03*
X3286Y563D03*
X3286Y463D03*
X1686Y1863D03*
X1586Y1863D03*
X1486Y1863D03*
X1386Y1863D03*
G54D10*
X686Y1863D03*
X686Y2263D03*
G54D11*
X486Y2263D03*
X386Y2263D03*
G54D14*
X2986Y1963D03*
X2886Y1963D03*
X2786Y1963D03*
X2686Y1963D03*
G54D11*
X1186Y463D03*
X1286Y463D03*
X1386Y463D03*
X1486Y463D03*
X1586Y463D03*
X1686Y463D03*
X1786Y463D03*
X1886Y463D03*
X1986Y463D03*
X2086Y463D03*
X2186Y463D03*
X2286Y463D03*
X2386Y463D03*
X2486Y463D03*
X2586Y463D03*
X886Y2163D03*
X986Y2163D03*
X1086Y2163D03*
X1186Y2163D03*
X1286Y2163D03*
X1386Y2163D03*
X1586Y2163D03*
X1686Y2163D03*
X1786Y2163D03*
X1886Y2163D03*
X1986Y2163D03*
X2086Y2163D03*
X2186Y2163D03*
X2286Y2163D03*
X1186Y1563D03*
X1286Y1563D03*
X1386Y1563D03*
X1486Y1563D03*
X1586Y1563D03*
X1686Y1563D03*
X1786Y1563D03*
X1886Y1563D03*
X1986Y1563D03*
X2086Y1563D03*
X2186Y1563D03*
X2286Y1563D03*
X2386Y1563D03*
X2486Y1563D03*
X2586Y1563D03*
X886Y263D03*
X986Y263D03*
X1086Y263D03*
X1186Y263D03*
X1286Y263D03*
X1386Y263D03*
X1486Y263D03*
X1586Y263D03*
X486Y1663D03*
X486Y1563D03*
G54D10*
X3286Y1263D03*
X2886Y1263D03*
G54D11*
X3586Y1763D03*
G54D15*
X486Y2263D03*
G54D16*
X586Y2563D02*
X586Y2763D01*
D02*
X586Y2763D02*
X416Y2763D01*
D02*
X760Y2563D02*
X586Y2563D01*
D02*
X1155Y2563D02*
X812Y2563D01*
D02*
X1286Y2763D02*
X1208Y2685D01*
D02*
X1460Y2763D02*
X1286Y2763D01*
D02*
X1486Y2563D02*
X1486Y2493D01*
D02*
X1486Y2737D02*
X1486Y2563D01*
D02*
X686Y1763D02*
X786Y1763D01*
D02*
X1586Y1763D02*
X1665Y1842D01*
D02*
X786Y1763D02*
X1586Y1763D01*
D02*
X1886Y2133D02*
X1886Y2063D01*
D02*
X2486Y2163D02*
X2686Y2163D01*
D02*
X1886Y2063D02*
X2186Y2063D01*
D02*
X2186Y2063D02*
X2386Y2063D01*
D02*
X2386Y2063D02*
X2486Y2163D01*
D02*
X2686Y2163D02*
X2786Y2163D01*
D02*
X2686Y2163D02*
X2686Y1997D01*
D02*
X657Y2263D02*
X516Y2263D01*
D02*
X786Y1963D02*
X386Y1963D01*
D02*
X386Y1963D02*
X386Y2163D01*
D02*
X786Y1763D02*
X786Y1863D01*
D02*
X386Y2163D02*
X386Y2233D01*
D02*
X686Y1763D02*
X786Y1763D01*
D02*
X786Y1863D02*
X786Y1963D01*
D02*
X2786Y1663D02*
X2786Y1263D01*
D02*
X2786Y1263D02*
X2786Y863D01*
D02*
X2786Y863D02*
X2407Y484D01*
D02*
X2786Y1929D02*
X2786Y1663D01*
D02*
X3186Y563D02*
X3086Y363D01*
D02*
X3086Y363D02*
X2686Y363D01*
D02*
X2586Y363D02*
X2507Y442D01*
D02*
X2686Y363D02*
X2586Y363D01*
D02*
X3256Y563D02*
X3186Y563D01*
D02*
X2786Y663D02*
X2607Y484D01*
D02*
X3256Y663D02*
X2786Y663D01*
D02*
X3386Y463D02*
X3316Y463D01*
D02*
X3386Y2063D02*
X3386Y1763D01*
D02*
X3386Y1763D02*
X3390Y1467D01*
D02*
X3086Y2163D02*
X3286Y2163D01*
D02*
X2786Y2163D02*
X3086Y2163D01*
D02*
X3386Y1263D02*
X3386Y463D01*
D02*
X3390Y1467D02*
X3386Y1263D01*
D02*
X3286Y2163D02*
X3386Y2063D01*
D02*
X786Y2263D02*
X786Y2063D01*
D02*
X886Y1963D02*
X1086Y1963D01*
D02*
X1286Y1963D02*
X1286Y2133D01*
D02*
X786Y2063D02*
X886Y1963D01*
D02*
X715Y2263D02*
X786Y2263D01*
D02*
X1086Y1963D02*
X1286Y1963D01*
D02*
X1386Y1893D02*
X1386Y2133D01*
D02*
X1586Y2363D02*
X1586Y2163D01*
D02*
X1516Y2363D02*
X1586Y2363D01*
D02*
X1886Y763D02*
X886Y763D01*
D02*
X886Y763D02*
X886Y363D01*
D02*
X886Y363D02*
X1386Y363D01*
D02*
X1386Y363D02*
X1386Y293D01*
D02*
X1886Y493D02*
X1886Y763D01*
D02*
X1786Y163D02*
X1482Y163D01*
D02*
X1786Y363D02*
X1786Y163D01*
D02*
X1482Y163D02*
X1485Y233D01*
D02*
X1786Y433D02*
X1786Y363D01*
D02*
X1156Y1563D02*
X486Y1563D01*
D02*
X586Y1763D02*
X507Y1684D01*
D02*
X686Y1763D02*
X586Y1763D01*
D02*
X2786Y1263D02*
X2857Y1263D01*
D02*
X3386Y1263D02*
X3315Y1263D01*
D02*
X3386Y1763D02*
X3556Y1763D01*
D02*
X1716Y1863D02*
X1886Y1863D01*
D02*
X1886Y1863D02*
X1886Y2133D01*
G36*
X576Y2202D02*
X576Y2176D01*
X672Y2176D01*
X672Y2178D01*
X662Y2178D01*
X662Y2180D01*
X656Y2180D01*
X656Y2182D01*
X652Y2182D01*
X652Y2184D01*
X648Y2184D01*
X648Y2186D01*
X644Y2186D01*
X644Y2188D01*
X640Y2188D01*
X640Y2190D01*
X636Y2190D01*
X636Y2192D01*
X634Y2192D01*
X634Y2194D01*
X632Y2194D01*
X632Y2196D01*
X630Y2196D01*
X630Y2198D01*
X626Y2198D01*
X626Y2200D01*
X624Y2200D01*
X624Y2202D01*
X576Y2202D01*
G37*
D02*
G36*
X700Y2178D02*
X700Y2176D01*
X724Y2176D01*
X724Y2178D01*
X700Y2178D01*
G37*
D02*
G36*
X574Y2176D02*
X574Y2174D01*
X724Y2174D01*
X724Y2176D01*
X574Y2176D01*
G37*
D02*
G36*
X574Y2176D02*
X574Y2174D01*
X724Y2174D01*
X724Y2176D01*
X574Y2176D01*
G37*
D02*
G36*
X448Y2174D02*
X448Y2026D01*
X726Y2026D01*
X726Y2052D01*
X724Y2052D01*
X724Y2174D01*
X448Y2174D01*
G37*
D02*
G36*
X924Y2084D02*
X924Y2082D01*
X920Y2082D01*
X920Y2080D01*
X914Y2080D01*
X914Y2078D01*
X908Y2078D01*
X908Y2076D01*
X896Y2076D01*
X896Y2074D01*
X976Y2074D01*
X976Y2076D01*
X964Y2076D01*
X964Y2078D01*
X958Y2078D01*
X958Y2080D01*
X952Y2080D01*
X952Y2082D01*
X948Y2082D01*
X948Y2084D01*
X924Y2084D01*
G37*
D02*
G36*
X1024Y2084D02*
X1024Y2082D01*
X1020Y2082D01*
X1020Y2080D01*
X1014Y2080D01*
X1014Y2078D01*
X1008Y2078D01*
X1008Y2076D01*
X996Y2076D01*
X996Y2074D01*
X1076Y2074D01*
X1076Y2076D01*
X1064Y2076D01*
X1064Y2078D01*
X1058Y2078D01*
X1058Y2080D01*
X1052Y2080D01*
X1052Y2082D01*
X1048Y2082D01*
X1048Y2084D01*
X1024Y2084D01*
G37*
D02*
G36*
X1124Y2084D02*
X1124Y2082D01*
X1120Y2082D01*
X1120Y2080D01*
X1114Y2080D01*
X1114Y2078D01*
X1108Y2078D01*
X1108Y2076D01*
X1096Y2076D01*
X1096Y2074D01*
X1176Y2074D01*
X1176Y2076D01*
X1164Y2076D01*
X1164Y2078D01*
X1158Y2078D01*
X1158Y2080D01*
X1152Y2080D01*
X1152Y2082D01*
X1148Y2082D01*
X1148Y2084D01*
X1124Y2084D01*
G37*
D02*
G36*
X1196Y2076D02*
X1196Y2074D01*
X1224Y2074D01*
X1224Y2076D01*
X1196Y2076D01*
G37*
D02*
G36*
X882Y2074D02*
X882Y2072D01*
X1224Y2072D01*
X1224Y2074D01*
X882Y2074D01*
G37*
D02*
G36*
X882Y2074D02*
X882Y2072D01*
X1224Y2072D01*
X1224Y2074D01*
X882Y2074D01*
G37*
D02*
G36*
X882Y2074D02*
X882Y2072D01*
X1224Y2072D01*
X1224Y2074D01*
X882Y2074D01*
G37*
D02*
G36*
X882Y2074D02*
X882Y2072D01*
X1224Y2072D01*
X1224Y2074D01*
X882Y2074D01*
G37*
D02*
G36*
X882Y2072D02*
X882Y2054D01*
X884Y2054D01*
X884Y2052D01*
X886Y2052D01*
X886Y2050D01*
X888Y2050D01*
X888Y2048D01*
X890Y2048D01*
X890Y2046D01*
X892Y2046D01*
X892Y2044D01*
X894Y2044D01*
X894Y2042D01*
X896Y2042D01*
X896Y2040D01*
X898Y2040D01*
X898Y2038D01*
X900Y2038D01*
X900Y2036D01*
X902Y2036D01*
X902Y2034D01*
X904Y2034D01*
X904Y2032D01*
X906Y2032D01*
X906Y2030D01*
X908Y2030D01*
X908Y2028D01*
X910Y2028D01*
X910Y2026D01*
X1224Y2026D01*
X1224Y2072D01*
X882Y2072D01*
G37*
D02*
G36*
X848Y1904D02*
X848Y1826D01*
X1300Y1826D01*
X1300Y1846D01*
X1298Y1846D01*
X1298Y1882D01*
X1300Y1882D01*
X1300Y1902D01*
X872Y1902D01*
X872Y1904D01*
X848Y1904D01*
G37*
D02*
G36*
X2748Y2102D02*
X2748Y2050D01*
X3000Y2050D01*
X3000Y2048D01*
X3008Y2048D01*
X3008Y2046D01*
X3016Y2046D01*
X3016Y2044D01*
X3020Y2044D01*
X3020Y2042D01*
X3024Y2042D01*
X3024Y2040D01*
X3028Y2040D01*
X3028Y2038D01*
X3032Y2038D01*
X3032Y2036D01*
X3036Y2036D01*
X3036Y2034D01*
X3038Y2034D01*
X3038Y2032D01*
X3040Y2032D01*
X3040Y2030D01*
X3042Y2030D01*
X3042Y2028D01*
X3046Y2028D01*
X3046Y2026D01*
X3048Y2026D01*
X3048Y2024D01*
X3050Y2024D01*
X3050Y2020D01*
X3052Y2020D01*
X3052Y2018D01*
X3054Y2018D01*
X3054Y2016D01*
X3056Y2016D01*
X3056Y2014D01*
X3058Y2014D01*
X3058Y2010D01*
X3060Y2010D01*
X3060Y2008D01*
X3062Y2008D01*
X3062Y2004D01*
X3064Y2004D01*
X3064Y2000D01*
X3066Y2000D01*
X3066Y1994D01*
X3068Y1994D01*
X3068Y1990D01*
X3070Y1990D01*
X3070Y1982D01*
X3072Y1982D01*
X3072Y1964D01*
X3074Y1964D01*
X3074Y1962D01*
X3072Y1962D01*
X3072Y1944D01*
X3070Y1944D01*
X3070Y1938D01*
X3068Y1938D01*
X3068Y1932D01*
X3066Y1932D01*
X3066Y1928D01*
X3064Y1928D01*
X3064Y1922D01*
X3062Y1922D01*
X3062Y1920D01*
X3060Y1920D01*
X3060Y1916D01*
X3058Y1916D01*
X3058Y1914D01*
X3056Y1914D01*
X3056Y1910D01*
X3054Y1910D01*
X3054Y1908D01*
X3052Y1908D01*
X3052Y1906D01*
X3050Y1906D01*
X3050Y1904D01*
X3048Y1904D01*
X3048Y1902D01*
X3046Y1902D01*
X3046Y1900D01*
X3044Y1900D01*
X3044Y1898D01*
X3042Y1898D01*
X3042Y1896D01*
X3040Y1896D01*
X3040Y1894D01*
X3038Y1894D01*
X3038Y1892D01*
X3034Y1892D01*
X3034Y1890D01*
X3032Y1890D01*
X3032Y1888D01*
X3028Y1888D01*
X3028Y1886D01*
X3024Y1886D01*
X3024Y1884D01*
X3020Y1884D01*
X3020Y1882D01*
X3014Y1882D01*
X3014Y1880D01*
X3008Y1880D01*
X3008Y1878D01*
X2996Y1878D01*
X2996Y1876D01*
X3324Y1876D01*
X3324Y2038D01*
X3322Y2038D01*
X3322Y2040D01*
X3320Y2040D01*
X3320Y2042D01*
X3318Y2042D01*
X3318Y2044D01*
X3316Y2044D01*
X3316Y2046D01*
X3314Y2046D01*
X3314Y2048D01*
X3312Y2048D01*
X3312Y2050D01*
X3310Y2050D01*
X3310Y2052D01*
X3308Y2052D01*
X3308Y2054D01*
X3306Y2054D01*
X3306Y2056D01*
X3304Y2056D01*
X3304Y2058D01*
X3302Y2058D01*
X3302Y2060D01*
X3300Y2060D01*
X3300Y2062D01*
X3298Y2062D01*
X3298Y2064D01*
X3296Y2064D01*
X3296Y2066D01*
X3294Y2066D01*
X3294Y2068D01*
X3292Y2068D01*
X3292Y2070D01*
X3290Y2070D01*
X3290Y2072D01*
X3288Y2072D01*
X3288Y2074D01*
X3286Y2074D01*
X3286Y2076D01*
X3284Y2076D01*
X3284Y2078D01*
X3282Y2078D01*
X3282Y2080D01*
X3280Y2080D01*
X3280Y2082D01*
X3278Y2082D01*
X3278Y2084D01*
X3276Y2084D01*
X3276Y2086D01*
X3274Y2086D01*
X3274Y2088D01*
X3272Y2088D01*
X3272Y2090D01*
X3270Y2090D01*
X3270Y2092D01*
X3268Y2092D01*
X3268Y2094D01*
X3266Y2094D01*
X3266Y2096D01*
X3264Y2096D01*
X3264Y2098D01*
X3262Y2098D01*
X3262Y2100D01*
X3260Y2100D01*
X3260Y2102D01*
X2748Y2102D01*
G37*
D02*
G36*
X2748Y2050D02*
X2748Y2048D01*
X2772Y2048D01*
X2772Y2050D01*
X2748Y2050D01*
G37*
D02*
G36*
X2800Y2050D02*
X2800Y2048D01*
X2808Y2048D01*
X2808Y2046D01*
X2816Y2046D01*
X2816Y2044D01*
X2820Y2044D01*
X2820Y2042D01*
X2824Y2042D01*
X2824Y2040D01*
X2848Y2040D01*
X2848Y2042D01*
X2852Y2042D01*
X2852Y2044D01*
X2856Y2044D01*
X2856Y2046D01*
X2864Y2046D01*
X2864Y2048D01*
X2872Y2048D01*
X2872Y2050D01*
X2800Y2050D01*
G37*
D02*
G36*
X2900Y2050D02*
X2900Y2048D01*
X2908Y2048D01*
X2908Y2046D01*
X2916Y2046D01*
X2916Y2044D01*
X2920Y2044D01*
X2920Y2042D01*
X2924Y2042D01*
X2924Y2040D01*
X2948Y2040D01*
X2948Y2042D01*
X2952Y2042D01*
X2952Y2044D01*
X2956Y2044D01*
X2956Y2046D01*
X2964Y2046D01*
X2964Y2048D01*
X2972Y2048D01*
X2972Y2050D01*
X2900Y2050D01*
G37*
D02*
G36*
X2924Y1886D02*
X2924Y1884D01*
X2920Y1884D01*
X2920Y1882D01*
X2914Y1882D01*
X2914Y1880D01*
X2908Y1880D01*
X2908Y1878D01*
X2896Y1878D01*
X2896Y1876D01*
X2976Y1876D01*
X2976Y1878D01*
X2966Y1878D01*
X2966Y1880D01*
X2958Y1880D01*
X2958Y1882D01*
X2952Y1882D01*
X2952Y1884D01*
X2948Y1884D01*
X2948Y1886D01*
X2924Y1886D01*
G37*
D02*
G36*
X2848Y1878D02*
X2848Y1876D01*
X2876Y1876D01*
X2876Y1878D01*
X2848Y1878D01*
G37*
D02*
G36*
X2848Y1876D02*
X2848Y1874D01*
X3324Y1874D01*
X3324Y1876D01*
X2848Y1876D01*
G37*
D02*
G36*
X2848Y1876D02*
X2848Y1874D01*
X3324Y1874D01*
X3324Y1876D01*
X2848Y1876D01*
G37*
D02*
G36*
X2848Y1876D02*
X2848Y1874D01*
X3324Y1874D01*
X3324Y1876D01*
X2848Y1876D01*
G37*
D02*
G36*
X2848Y1874D02*
X2848Y1350D01*
X3304Y1350D01*
X3304Y1348D01*
X3326Y1348D01*
X3326Y1424D01*
X3328Y1424D01*
X3328Y1530D01*
X3326Y1530D01*
X3326Y1690D01*
X3324Y1690D01*
X3324Y1874D01*
X2848Y1874D01*
G37*
D02*
G36*
X2848Y1350D02*
X2848Y1348D01*
X2868Y1348D01*
X2868Y1350D01*
X2848Y1350D01*
G37*
D02*
G36*
X2904Y1350D02*
X2904Y1348D01*
X2912Y1348D01*
X2912Y1346D01*
X2916Y1346D01*
X2916Y1344D01*
X2922Y1344D01*
X2922Y1342D01*
X2926Y1342D01*
X2926Y1340D01*
X2930Y1340D01*
X2930Y1338D01*
X2932Y1338D01*
X2932Y1336D01*
X2936Y1336D01*
X2936Y1334D01*
X2938Y1334D01*
X2938Y1332D01*
X2942Y1332D01*
X2942Y1330D01*
X2944Y1330D01*
X2944Y1328D01*
X2946Y1328D01*
X2946Y1326D01*
X2948Y1326D01*
X2948Y1324D01*
X2950Y1324D01*
X2950Y1322D01*
X2952Y1322D01*
X2952Y1320D01*
X2954Y1320D01*
X2954Y1316D01*
X2956Y1316D01*
X2956Y1314D01*
X2958Y1314D01*
X2958Y1312D01*
X2960Y1312D01*
X2960Y1308D01*
X2962Y1308D01*
X2962Y1304D01*
X2964Y1304D01*
X2964Y1300D01*
X2966Y1300D01*
X2966Y1296D01*
X2968Y1296D01*
X2968Y1290D01*
X2970Y1290D01*
X2970Y1284D01*
X2972Y1284D01*
X2972Y1272D01*
X2974Y1272D01*
X2974Y1254D01*
X2972Y1254D01*
X2972Y1242D01*
X2970Y1242D01*
X2970Y1236D01*
X2968Y1236D01*
X2968Y1230D01*
X2966Y1230D01*
X2966Y1226D01*
X2964Y1226D01*
X2964Y1222D01*
X2962Y1222D01*
X2962Y1218D01*
X2960Y1218D01*
X2960Y1214D01*
X2958Y1214D01*
X2958Y1212D01*
X2956Y1212D01*
X2956Y1210D01*
X2954Y1210D01*
X2954Y1206D01*
X2952Y1206D01*
X2952Y1204D01*
X2950Y1204D01*
X2950Y1202D01*
X2948Y1202D01*
X2948Y1200D01*
X2946Y1200D01*
X2946Y1198D01*
X2944Y1198D01*
X2944Y1196D01*
X2940Y1196D01*
X2940Y1194D01*
X2938Y1194D01*
X2938Y1192D01*
X2936Y1192D01*
X2936Y1190D01*
X2932Y1190D01*
X2932Y1188D01*
X2928Y1188D01*
X2928Y1186D01*
X2924Y1186D01*
X2924Y1184D01*
X2920Y1184D01*
X2920Y1182D01*
X2916Y1182D01*
X2916Y1180D01*
X2910Y1180D01*
X2910Y1178D01*
X2900Y1178D01*
X2900Y1176D01*
X3272Y1176D01*
X3272Y1178D01*
X3262Y1178D01*
X3262Y1180D01*
X3256Y1180D01*
X3256Y1182D01*
X3252Y1182D01*
X3252Y1184D01*
X3248Y1184D01*
X3248Y1186D01*
X3244Y1186D01*
X3244Y1188D01*
X3240Y1188D01*
X3240Y1190D01*
X3236Y1190D01*
X3236Y1192D01*
X3234Y1192D01*
X3234Y1194D01*
X3232Y1194D01*
X3232Y1196D01*
X3230Y1196D01*
X3230Y1198D01*
X3226Y1198D01*
X3226Y1200D01*
X3224Y1200D01*
X3224Y1202D01*
X3222Y1202D01*
X3222Y1204D01*
X3220Y1204D01*
X3220Y1208D01*
X3218Y1208D01*
X3218Y1210D01*
X3216Y1210D01*
X3216Y1212D01*
X3214Y1212D01*
X3214Y1216D01*
X3212Y1216D01*
X3212Y1218D01*
X3210Y1218D01*
X3210Y1222D01*
X3208Y1222D01*
X3208Y1226D01*
X3206Y1226D01*
X3206Y1230D01*
X3204Y1230D01*
X3204Y1236D01*
X3202Y1236D01*
X3202Y1244D01*
X3200Y1244D01*
X3200Y1256D01*
X3198Y1256D01*
X3198Y1270D01*
X3200Y1270D01*
X3200Y1284D01*
X3202Y1284D01*
X3202Y1290D01*
X3204Y1290D01*
X3204Y1296D01*
X3206Y1296D01*
X3206Y1300D01*
X3208Y1300D01*
X3208Y1304D01*
X3210Y1304D01*
X3210Y1308D01*
X3212Y1308D01*
X3212Y1312D01*
X3214Y1312D01*
X3214Y1314D01*
X3216Y1314D01*
X3216Y1316D01*
X3218Y1316D01*
X3218Y1320D01*
X3220Y1320D01*
X3220Y1322D01*
X3222Y1322D01*
X3222Y1324D01*
X3224Y1324D01*
X3224Y1326D01*
X3226Y1326D01*
X3226Y1328D01*
X3228Y1328D01*
X3228Y1330D01*
X3230Y1330D01*
X3230Y1332D01*
X3234Y1332D01*
X3234Y1334D01*
X3236Y1334D01*
X3236Y1336D01*
X3240Y1336D01*
X3240Y1338D01*
X3242Y1338D01*
X3242Y1340D01*
X3246Y1340D01*
X3246Y1342D01*
X3250Y1342D01*
X3250Y1344D01*
X3256Y1344D01*
X3256Y1346D01*
X3262Y1346D01*
X3262Y1348D01*
X3268Y1348D01*
X3268Y1350D01*
X2904Y1350D01*
G37*
D02*
G36*
X2848Y1178D02*
X2848Y1176D01*
X2872Y1176D01*
X2872Y1178D01*
X2848Y1178D01*
G37*
D02*
G36*
X3300Y1178D02*
X3300Y1176D01*
X3324Y1176D01*
X3324Y1178D01*
X3300Y1178D01*
G37*
D02*
G36*
X2848Y1176D02*
X2848Y1174D01*
X3324Y1174D01*
X3324Y1176D01*
X2848Y1176D01*
G37*
D02*
G36*
X2848Y1176D02*
X2848Y1174D01*
X3324Y1174D01*
X3324Y1176D01*
X2848Y1176D01*
G37*
D02*
G36*
X2848Y1176D02*
X2848Y1174D01*
X3324Y1174D01*
X3324Y1176D01*
X2848Y1176D01*
G37*
D02*
G36*
X2848Y1174D02*
X2848Y852D01*
X3300Y852D01*
X3300Y850D01*
X3324Y850D01*
X3324Y1174D01*
X2848Y1174D01*
G37*
D02*
G36*
X2846Y852D02*
X2846Y844D01*
X2844Y844D01*
X2844Y838D01*
X2842Y838D01*
X2842Y834D01*
X2840Y834D01*
X2840Y832D01*
X2838Y832D01*
X2838Y828D01*
X2836Y828D01*
X2836Y826D01*
X2834Y826D01*
X2834Y822D01*
X2832Y822D01*
X2832Y820D01*
X2830Y820D01*
X2830Y818D01*
X2828Y818D01*
X2828Y816D01*
X2826Y816D01*
X2826Y814D01*
X2824Y814D01*
X2824Y812D01*
X2822Y812D01*
X2822Y810D01*
X2820Y810D01*
X2820Y808D01*
X2818Y808D01*
X2818Y806D01*
X2816Y806D01*
X2816Y804D01*
X2814Y804D01*
X2814Y802D01*
X2812Y802D01*
X2812Y800D01*
X2810Y800D01*
X2810Y798D01*
X2808Y798D01*
X2808Y796D01*
X2806Y796D01*
X2806Y794D01*
X2804Y794D01*
X2804Y792D01*
X2802Y792D01*
X2802Y790D01*
X2800Y790D01*
X2800Y788D01*
X2798Y788D01*
X2798Y786D01*
X2796Y786D01*
X2796Y784D01*
X2794Y784D01*
X2794Y782D01*
X2792Y782D01*
X2792Y780D01*
X2790Y780D01*
X2790Y778D01*
X2788Y778D01*
X2788Y776D01*
X2786Y776D01*
X2786Y774D01*
X2784Y774D01*
X2784Y772D01*
X2782Y772D01*
X2782Y770D01*
X2780Y770D01*
X2780Y768D01*
X2778Y768D01*
X2778Y766D01*
X2776Y766D01*
X2776Y764D01*
X2774Y764D01*
X2774Y762D01*
X2772Y762D01*
X2772Y760D01*
X2770Y760D01*
X2770Y758D01*
X2768Y758D01*
X2768Y756D01*
X2766Y756D01*
X2766Y754D01*
X2764Y754D01*
X2764Y752D01*
X2762Y752D01*
X2762Y750D01*
X2760Y750D01*
X2760Y748D01*
X2758Y748D01*
X2758Y746D01*
X2756Y746D01*
X2756Y744D01*
X2754Y744D01*
X2754Y742D01*
X2752Y742D01*
X2752Y740D01*
X2750Y740D01*
X2750Y738D01*
X2748Y738D01*
X2748Y736D01*
X2746Y736D01*
X2746Y734D01*
X2744Y734D01*
X2744Y732D01*
X2742Y732D01*
X2742Y730D01*
X2740Y730D01*
X2740Y728D01*
X2738Y728D01*
X2738Y726D01*
X2736Y726D01*
X2736Y724D01*
X2734Y724D01*
X2734Y722D01*
X2732Y722D01*
X2732Y720D01*
X2730Y720D01*
X2730Y718D01*
X2728Y718D01*
X2728Y716D01*
X2726Y716D01*
X2726Y714D01*
X2724Y714D01*
X2724Y712D01*
X2722Y712D01*
X2722Y710D01*
X2720Y710D01*
X2720Y708D01*
X2718Y708D01*
X2718Y706D01*
X2716Y706D01*
X2716Y704D01*
X2714Y704D01*
X2714Y702D01*
X2712Y702D01*
X2712Y700D01*
X2710Y700D01*
X2710Y698D01*
X2708Y698D01*
X2708Y696D01*
X2706Y696D01*
X2706Y694D01*
X2704Y694D01*
X2704Y692D01*
X2702Y692D01*
X2702Y690D01*
X2700Y690D01*
X2700Y688D01*
X2698Y688D01*
X2698Y686D01*
X2696Y686D01*
X2696Y684D01*
X2694Y684D01*
X2694Y682D01*
X2692Y682D01*
X2692Y680D01*
X2690Y680D01*
X2690Y678D01*
X2688Y678D01*
X2688Y676D01*
X2686Y676D01*
X2686Y674D01*
X2684Y674D01*
X2684Y672D01*
X2682Y672D01*
X2682Y670D01*
X2680Y670D01*
X2680Y668D01*
X2678Y668D01*
X2678Y666D01*
X2676Y666D01*
X2676Y664D01*
X2674Y664D01*
X2674Y662D01*
X2672Y662D01*
X2672Y660D01*
X2670Y660D01*
X2670Y658D01*
X2668Y658D01*
X2668Y656D01*
X2666Y656D01*
X2666Y654D01*
X2664Y654D01*
X2664Y652D01*
X2662Y652D01*
X2662Y650D01*
X2660Y650D01*
X2660Y648D01*
X2658Y648D01*
X2658Y646D01*
X2656Y646D01*
X2656Y644D01*
X2654Y644D01*
X2654Y642D01*
X2652Y642D01*
X2652Y640D01*
X2650Y640D01*
X2650Y638D01*
X2648Y638D01*
X2648Y636D01*
X2646Y636D01*
X2646Y634D01*
X2644Y634D01*
X2644Y632D01*
X2642Y632D01*
X2642Y630D01*
X2640Y630D01*
X2640Y628D01*
X2638Y628D01*
X2638Y626D01*
X2636Y626D01*
X2636Y624D01*
X2634Y624D01*
X2634Y622D01*
X2632Y622D01*
X2632Y620D01*
X2630Y620D01*
X2630Y618D01*
X2628Y618D01*
X2628Y616D01*
X2626Y616D01*
X2626Y614D01*
X2624Y614D01*
X2624Y612D01*
X2622Y612D01*
X2622Y610D01*
X2620Y610D01*
X2620Y608D01*
X2618Y608D01*
X2618Y606D01*
X2616Y606D01*
X2616Y604D01*
X2614Y604D01*
X2614Y602D01*
X2612Y602D01*
X2612Y600D01*
X2610Y600D01*
X2610Y598D01*
X2608Y598D01*
X2608Y596D01*
X2606Y596D01*
X2606Y594D01*
X2604Y594D01*
X2604Y592D01*
X2602Y592D01*
X2602Y590D01*
X2600Y590D01*
X2600Y588D01*
X2598Y588D01*
X2598Y586D01*
X2596Y586D01*
X2596Y584D01*
X2594Y584D01*
X2594Y582D01*
X2592Y582D01*
X2592Y580D01*
X2590Y580D01*
X2590Y578D01*
X2588Y578D01*
X2588Y576D01*
X2586Y576D01*
X2586Y574D01*
X2584Y574D01*
X2584Y572D01*
X2582Y572D01*
X2582Y566D01*
X2602Y566D01*
X2602Y568D01*
X2604Y568D01*
X2604Y570D01*
X2606Y570D01*
X2606Y572D01*
X2608Y572D01*
X2608Y574D01*
X2610Y574D01*
X2610Y576D01*
X2612Y576D01*
X2612Y578D01*
X2614Y578D01*
X2614Y580D01*
X2616Y580D01*
X2616Y582D01*
X2618Y582D01*
X2618Y584D01*
X2620Y584D01*
X2620Y586D01*
X2622Y586D01*
X2622Y588D01*
X2624Y588D01*
X2624Y590D01*
X2626Y590D01*
X2626Y592D01*
X2628Y592D01*
X2628Y594D01*
X2630Y594D01*
X2630Y596D01*
X2632Y596D01*
X2632Y598D01*
X2634Y598D01*
X2634Y600D01*
X2636Y600D01*
X2636Y602D01*
X2638Y602D01*
X2638Y604D01*
X2640Y604D01*
X2640Y606D01*
X2642Y606D01*
X2642Y608D01*
X2644Y608D01*
X2644Y610D01*
X2646Y610D01*
X2646Y612D01*
X2648Y612D01*
X2648Y614D01*
X2650Y614D01*
X2650Y616D01*
X2652Y616D01*
X2652Y618D01*
X2654Y618D01*
X2654Y620D01*
X2656Y620D01*
X2656Y622D01*
X2658Y622D01*
X2658Y624D01*
X2660Y624D01*
X2660Y626D01*
X2662Y626D01*
X2662Y628D01*
X2664Y628D01*
X2664Y630D01*
X2666Y630D01*
X2666Y632D01*
X2668Y632D01*
X2668Y634D01*
X2670Y634D01*
X2670Y636D01*
X2672Y636D01*
X2672Y638D01*
X2674Y638D01*
X2674Y640D01*
X2676Y640D01*
X2676Y642D01*
X2678Y642D01*
X2678Y644D01*
X2680Y644D01*
X2680Y646D01*
X2682Y646D01*
X2682Y648D01*
X2684Y648D01*
X2684Y650D01*
X2686Y650D01*
X2686Y652D01*
X2688Y652D01*
X2688Y654D01*
X2690Y654D01*
X2690Y656D01*
X2692Y656D01*
X2692Y658D01*
X2694Y658D01*
X2694Y660D01*
X2696Y660D01*
X2696Y662D01*
X2698Y662D01*
X2698Y664D01*
X2700Y664D01*
X2700Y666D01*
X2702Y666D01*
X2702Y668D01*
X2704Y668D01*
X2704Y670D01*
X2706Y670D01*
X2706Y672D01*
X2708Y672D01*
X2708Y674D01*
X2710Y674D01*
X2710Y676D01*
X2712Y676D01*
X2712Y678D01*
X2714Y678D01*
X2714Y680D01*
X2716Y680D01*
X2716Y682D01*
X2718Y682D01*
X2718Y684D01*
X2720Y684D01*
X2720Y686D01*
X2722Y686D01*
X2722Y688D01*
X2724Y688D01*
X2724Y690D01*
X2726Y690D01*
X2726Y692D01*
X2728Y692D01*
X2728Y694D01*
X2730Y694D01*
X2730Y696D01*
X2732Y696D01*
X2732Y698D01*
X2734Y698D01*
X2734Y700D01*
X2736Y700D01*
X2736Y702D01*
X2738Y702D01*
X2738Y704D01*
X2740Y704D01*
X2740Y706D01*
X2742Y706D01*
X2742Y708D01*
X2744Y708D01*
X2744Y710D01*
X2746Y710D01*
X2746Y712D01*
X2750Y712D01*
X2750Y714D01*
X2752Y714D01*
X2752Y716D01*
X2756Y716D01*
X2756Y718D01*
X2760Y718D01*
X2760Y720D01*
X2764Y720D01*
X2764Y722D01*
X2770Y722D01*
X2770Y724D01*
X2780Y724D01*
X2780Y726D01*
X3200Y726D01*
X3200Y746D01*
X3198Y746D01*
X3198Y782D01*
X3200Y782D01*
X3200Y790D01*
X3202Y790D01*
X3202Y794D01*
X3204Y794D01*
X3204Y800D01*
X3206Y800D01*
X3206Y804D01*
X3208Y804D01*
X3208Y808D01*
X3210Y808D01*
X3210Y810D01*
X3212Y810D01*
X3212Y814D01*
X3214Y814D01*
X3214Y816D01*
X3216Y816D01*
X3216Y820D01*
X3218Y820D01*
X3218Y822D01*
X3220Y822D01*
X3220Y824D01*
X3222Y824D01*
X3222Y826D01*
X3224Y826D01*
X3224Y828D01*
X3226Y828D01*
X3226Y830D01*
X3228Y830D01*
X3228Y832D01*
X3232Y832D01*
X3232Y834D01*
X3234Y834D01*
X3234Y836D01*
X3236Y836D01*
X3236Y838D01*
X3240Y838D01*
X3240Y840D01*
X3242Y840D01*
X3242Y842D01*
X3246Y842D01*
X3246Y844D01*
X3250Y844D01*
X3250Y846D01*
X3256Y846D01*
X3256Y848D01*
X3262Y848D01*
X3262Y850D01*
X3272Y850D01*
X3272Y852D01*
X2846Y852D01*
G37*
D02*
G36*
X948Y702D02*
X948Y552D01*
X1800Y552D01*
X1800Y550D01*
X1824Y550D01*
X1824Y702D01*
X948Y702D01*
G37*
D02*
G36*
X948Y552D02*
X948Y426D01*
X1100Y426D01*
X1100Y446D01*
X1098Y446D01*
X1098Y482D01*
X1100Y482D01*
X1100Y490D01*
X1102Y490D01*
X1102Y494D01*
X1104Y494D01*
X1104Y500D01*
X1106Y500D01*
X1106Y504D01*
X1108Y504D01*
X1108Y508D01*
X1110Y508D01*
X1110Y510D01*
X1112Y510D01*
X1112Y514D01*
X1114Y514D01*
X1114Y516D01*
X1116Y516D01*
X1116Y520D01*
X1118Y520D01*
X1118Y522D01*
X1120Y522D01*
X1120Y524D01*
X1122Y524D01*
X1122Y526D01*
X1124Y526D01*
X1124Y528D01*
X1126Y528D01*
X1126Y530D01*
X1128Y530D01*
X1128Y532D01*
X1132Y532D01*
X1132Y534D01*
X1134Y534D01*
X1134Y536D01*
X1136Y536D01*
X1136Y538D01*
X1140Y538D01*
X1140Y540D01*
X1142Y540D01*
X1142Y542D01*
X1146Y542D01*
X1146Y544D01*
X1150Y544D01*
X1150Y546D01*
X1156Y546D01*
X1156Y548D01*
X1162Y548D01*
X1162Y550D01*
X1172Y550D01*
X1172Y552D01*
X948Y552D01*
G37*
D02*
G36*
X1200Y552D02*
X1200Y550D01*
X1210Y550D01*
X1210Y548D01*
X1216Y548D01*
X1216Y546D01*
X1222Y546D01*
X1222Y544D01*
X1226Y544D01*
X1226Y542D01*
X1246Y542D01*
X1246Y544D01*
X1250Y544D01*
X1250Y546D01*
X1256Y546D01*
X1256Y548D01*
X1262Y548D01*
X1262Y550D01*
X1272Y550D01*
X1272Y552D01*
X1200Y552D01*
G37*
D02*
G36*
X1300Y552D02*
X1300Y550D01*
X1310Y550D01*
X1310Y548D01*
X1316Y548D01*
X1316Y546D01*
X1322Y546D01*
X1322Y544D01*
X1326Y544D01*
X1326Y542D01*
X1346Y542D01*
X1346Y544D01*
X1350Y544D01*
X1350Y546D01*
X1356Y546D01*
X1356Y548D01*
X1362Y548D01*
X1362Y550D01*
X1372Y550D01*
X1372Y552D01*
X1300Y552D01*
G37*
D02*
G36*
X1400Y552D02*
X1400Y550D01*
X1410Y550D01*
X1410Y548D01*
X1416Y548D01*
X1416Y546D01*
X1422Y546D01*
X1422Y544D01*
X1426Y544D01*
X1426Y542D01*
X1446Y542D01*
X1446Y544D01*
X1450Y544D01*
X1450Y546D01*
X1456Y546D01*
X1456Y548D01*
X1462Y548D01*
X1462Y550D01*
X1472Y550D01*
X1472Y552D01*
X1400Y552D01*
G37*
D02*
G36*
X1500Y552D02*
X1500Y550D01*
X1510Y550D01*
X1510Y548D01*
X1516Y548D01*
X1516Y546D01*
X1522Y546D01*
X1522Y544D01*
X1526Y544D01*
X1526Y542D01*
X1546Y542D01*
X1546Y544D01*
X1550Y544D01*
X1550Y546D01*
X1556Y546D01*
X1556Y548D01*
X1562Y548D01*
X1562Y550D01*
X1572Y550D01*
X1572Y552D01*
X1500Y552D01*
G37*
D02*
G36*
X1600Y552D02*
X1600Y550D01*
X1610Y550D01*
X1610Y548D01*
X1616Y548D01*
X1616Y546D01*
X1622Y546D01*
X1622Y544D01*
X1626Y544D01*
X1626Y542D01*
X1646Y542D01*
X1646Y544D01*
X1650Y544D01*
X1650Y546D01*
X1656Y546D01*
X1656Y548D01*
X1662Y548D01*
X1662Y550D01*
X1672Y550D01*
X1672Y552D01*
X1600Y552D01*
G37*
D02*
G36*
X1700Y552D02*
X1700Y550D01*
X1710Y550D01*
X1710Y548D01*
X1716Y548D01*
X1716Y546D01*
X1722Y546D01*
X1722Y544D01*
X1726Y544D01*
X1726Y542D01*
X1746Y542D01*
X1746Y544D01*
X1750Y544D01*
X1750Y546D01*
X1756Y546D01*
X1756Y548D01*
X1762Y548D01*
X1762Y550D01*
X1772Y550D01*
X1772Y552D01*
X1700Y552D01*
G37*
D02*
G36*
X2812Y602D02*
X2812Y600D01*
X2810Y600D01*
X2810Y598D01*
X2808Y598D01*
X2808Y596D01*
X2806Y596D01*
X2806Y594D01*
X2804Y594D01*
X2804Y592D01*
X2802Y592D01*
X2802Y590D01*
X2800Y590D01*
X2800Y588D01*
X2798Y588D01*
X2798Y586D01*
X2796Y586D01*
X2796Y584D01*
X2794Y584D01*
X2794Y582D01*
X2792Y582D01*
X2792Y580D01*
X2790Y580D01*
X2790Y578D01*
X2788Y578D01*
X2788Y576D01*
X2786Y576D01*
X2786Y574D01*
X2784Y574D01*
X2784Y572D01*
X2782Y572D01*
X2782Y570D01*
X2780Y570D01*
X2780Y568D01*
X2778Y568D01*
X2778Y566D01*
X2776Y566D01*
X2776Y564D01*
X2774Y564D01*
X2774Y562D01*
X2772Y562D01*
X2772Y560D01*
X2770Y560D01*
X2770Y558D01*
X2768Y558D01*
X2768Y556D01*
X2766Y556D01*
X2766Y554D01*
X2764Y554D01*
X2764Y552D01*
X2762Y552D01*
X2762Y550D01*
X2760Y550D01*
X2760Y548D01*
X2758Y548D01*
X2758Y546D01*
X2756Y546D01*
X2756Y544D01*
X2754Y544D01*
X2754Y542D01*
X2752Y542D01*
X2752Y540D01*
X2750Y540D01*
X2750Y538D01*
X2748Y538D01*
X2748Y536D01*
X2746Y536D01*
X2746Y534D01*
X2744Y534D01*
X2744Y532D01*
X2742Y532D01*
X2742Y530D01*
X2740Y530D01*
X2740Y528D01*
X2738Y528D01*
X2738Y526D01*
X2736Y526D01*
X2736Y524D01*
X2734Y524D01*
X2734Y522D01*
X2732Y522D01*
X2732Y520D01*
X2730Y520D01*
X2730Y518D01*
X2728Y518D01*
X2728Y516D01*
X2726Y516D01*
X2726Y514D01*
X2724Y514D01*
X2724Y512D01*
X2722Y512D01*
X2722Y510D01*
X2720Y510D01*
X2720Y508D01*
X2718Y508D01*
X2718Y506D01*
X2716Y506D01*
X2716Y504D01*
X2714Y504D01*
X2714Y502D01*
X2712Y502D01*
X2712Y500D01*
X2710Y500D01*
X2710Y498D01*
X2708Y498D01*
X2708Y496D01*
X2706Y496D01*
X2706Y494D01*
X2704Y494D01*
X2704Y492D01*
X2702Y492D01*
X2702Y490D01*
X2700Y490D01*
X2700Y488D01*
X2698Y488D01*
X2698Y486D01*
X2696Y486D01*
X2696Y484D01*
X2694Y484D01*
X2694Y482D01*
X2692Y482D01*
X2692Y480D01*
X2690Y480D01*
X2690Y478D01*
X2688Y478D01*
X2688Y476D01*
X2686Y476D01*
X2686Y474D01*
X2684Y474D01*
X2684Y472D01*
X2682Y472D01*
X2682Y470D01*
X2680Y470D01*
X2680Y468D01*
X2678Y468D01*
X2678Y466D01*
X2676Y466D01*
X2676Y462D01*
X2674Y462D01*
X2674Y426D01*
X3048Y426D01*
X3048Y428D01*
X3050Y428D01*
X3050Y432D01*
X3052Y432D01*
X3052Y436D01*
X3054Y436D01*
X3054Y440D01*
X3056Y440D01*
X3056Y444D01*
X3058Y444D01*
X3058Y448D01*
X3060Y448D01*
X3060Y452D01*
X3062Y452D01*
X3062Y456D01*
X3064Y456D01*
X3064Y460D01*
X3066Y460D01*
X3066Y464D01*
X3068Y464D01*
X3068Y468D01*
X3070Y468D01*
X3070Y472D01*
X3072Y472D01*
X3072Y476D01*
X3074Y476D01*
X3074Y480D01*
X3076Y480D01*
X3076Y484D01*
X3078Y484D01*
X3078Y488D01*
X3080Y488D01*
X3080Y492D01*
X3082Y492D01*
X3082Y496D01*
X3084Y496D01*
X3084Y500D01*
X3086Y500D01*
X3086Y504D01*
X3088Y504D01*
X3088Y508D01*
X3090Y508D01*
X3090Y512D01*
X3092Y512D01*
X3092Y516D01*
X3094Y516D01*
X3094Y520D01*
X3096Y520D01*
X3096Y524D01*
X3098Y524D01*
X3098Y528D01*
X3100Y528D01*
X3100Y532D01*
X3102Y532D01*
X3102Y536D01*
X3104Y536D01*
X3104Y540D01*
X3106Y540D01*
X3106Y544D01*
X3108Y544D01*
X3108Y548D01*
X3110Y548D01*
X3110Y552D01*
X3112Y552D01*
X3112Y556D01*
X3114Y556D01*
X3114Y560D01*
X3116Y560D01*
X3116Y564D01*
X3118Y564D01*
X3118Y568D01*
X3120Y568D01*
X3120Y572D01*
X3122Y572D01*
X3122Y576D01*
X3124Y576D01*
X3124Y580D01*
X3126Y580D01*
X3126Y602D01*
X2812Y602D01*
G37*
D02*
G36*
X1524Y384D02*
X1524Y382D01*
X1520Y382D01*
X1520Y380D01*
X1514Y380D01*
X1514Y378D01*
X1508Y378D01*
X1508Y376D01*
X1496Y376D01*
X1496Y374D01*
X1576Y374D01*
X1576Y376D01*
X1564Y376D01*
X1564Y378D01*
X1558Y378D01*
X1558Y380D01*
X1552Y380D01*
X1552Y382D01*
X1548Y382D01*
X1548Y384D01*
X1524Y384D01*
G37*
D02*
G36*
X1624Y384D02*
X1624Y382D01*
X1620Y382D01*
X1620Y380D01*
X1614Y380D01*
X1614Y378D01*
X1608Y378D01*
X1608Y376D01*
X1596Y376D01*
X1596Y374D01*
X1676Y374D01*
X1676Y376D01*
X1664Y376D01*
X1664Y378D01*
X1658Y378D01*
X1658Y380D01*
X1652Y380D01*
X1652Y382D01*
X1648Y382D01*
X1648Y384D01*
X1624Y384D01*
G37*
D02*
G36*
X1448Y376D02*
X1448Y374D01*
X1476Y374D01*
X1476Y376D01*
X1448Y376D01*
G37*
D02*
G36*
X1696Y376D02*
X1696Y374D01*
X1724Y374D01*
X1724Y376D01*
X1696Y376D01*
G37*
D02*
G36*
X1448Y374D02*
X1448Y372D01*
X1724Y372D01*
X1724Y374D01*
X1448Y374D01*
G37*
D02*
G36*
X1448Y374D02*
X1448Y372D01*
X1724Y372D01*
X1724Y374D01*
X1448Y374D01*
G37*
D02*
G36*
X1448Y374D02*
X1448Y372D01*
X1724Y372D01*
X1724Y374D01*
X1448Y374D01*
G37*
D02*
G36*
X1448Y374D02*
X1448Y372D01*
X1724Y372D01*
X1724Y374D01*
X1448Y374D01*
G37*
D02*
G36*
X1448Y372D02*
X1448Y352D01*
X1600Y352D01*
X1600Y350D01*
X1610Y350D01*
X1610Y348D01*
X1616Y348D01*
X1616Y346D01*
X1622Y346D01*
X1622Y344D01*
X1626Y344D01*
X1626Y342D01*
X1630Y342D01*
X1630Y340D01*
X1632Y340D01*
X1632Y338D01*
X1636Y338D01*
X1636Y336D01*
X1638Y336D01*
X1638Y334D01*
X1642Y334D01*
X1642Y332D01*
X1644Y332D01*
X1644Y330D01*
X1646Y330D01*
X1646Y328D01*
X1648Y328D01*
X1648Y326D01*
X1650Y326D01*
X1650Y324D01*
X1652Y324D01*
X1652Y322D01*
X1654Y322D01*
X1654Y320D01*
X1656Y320D01*
X1656Y316D01*
X1658Y316D01*
X1658Y314D01*
X1660Y314D01*
X1660Y312D01*
X1662Y312D01*
X1662Y308D01*
X1664Y308D01*
X1664Y304D01*
X1666Y304D01*
X1666Y300D01*
X1668Y300D01*
X1668Y296D01*
X1670Y296D01*
X1670Y290D01*
X1672Y290D01*
X1672Y282D01*
X1674Y282D01*
X1674Y264D01*
X1676Y264D01*
X1676Y262D01*
X1674Y262D01*
X1674Y226D01*
X1724Y226D01*
X1724Y372D01*
X1448Y372D01*
G37*
D02*
G36*
X1448Y352D02*
X1448Y350D01*
X1472Y350D01*
X1472Y352D01*
X1448Y352D01*
G37*
D02*
G36*
X1500Y352D02*
X1500Y350D01*
X1510Y350D01*
X1510Y348D01*
X1516Y348D01*
X1516Y346D01*
X1522Y346D01*
X1522Y344D01*
X1526Y344D01*
X1526Y342D01*
X1546Y342D01*
X1546Y344D01*
X1550Y344D01*
X1550Y346D01*
X1556Y346D01*
X1556Y348D01*
X1562Y348D01*
X1562Y350D01*
X1572Y350D01*
X1572Y352D01*
X1500Y352D01*
G37*
D02*
G36*
X40Y3314D02*
X40Y2948D01*
X1502Y2948D01*
X1502Y2946D01*
X1510Y2946D01*
X1510Y2944D01*
X1516Y2944D01*
X1516Y2942D01*
X1520Y2942D01*
X1520Y2940D01*
X1524Y2940D01*
X1524Y2938D01*
X1528Y2938D01*
X1528Y2936D01*
X1532Y2936D01*
X1532Y2934D01*
X1534Y2934D01*
X1534Y2932D01*
X1538Y2932D01*
X1538Y2930D01*
X1540Y2930D01*
X1540Y2928D01*
X1542Y2928D01*
X1542Y2926D01*
X1544Y2926D01*
X1544Y2924D01*
X1546Y2924D01*
X1546Y2922D01*
X1548Y2922D01*
X1548Y2920D01*
X1550Y2920D01*
X1550Y2918D01*
X1552Y2918D01*
X1552Y2916D01*
X1554Y2916D01*
X1554Y2914D01*
X1556Y2914D01*
X1556Y2910D01*
X1558Y2910D01*
X1558Y2906D01*
X1560Y2906D01*
X1560Y2904D01*
X1562Y2904D01*
X1562Y2900D01*
X1564Y2900D01*
X1564Y2894D01*
X1566Y2894D01*
X1566Y2890D01*
X1568Y2890D01*
X1568Y2882D01*
X1570Y2882D01*
X1570Y2866D01*
X1572Y2866D01*
X1572Y2862D01*
X1570Y2862D01*
X1570Y2844D01*
X1568Y2844D01*
X1568Y2838D01*
X1566Y2838D01*
X1566Y2832D01*
X1564Y2832D01*
X1564Y2828D01*
X1562Y2828D01*
X1562Y2824D01*
X1560Y2824D01*
X1560Y2804D01*
X1562Y2804D01*
X1562Y2800D01*
X1564Y2800D01*
X1564Y2794D01*
X1566Y2794D01*
X1566Y2790D01*
X1568Y2790D01*
X1568Y2782D01*
X1570Y2782D01*
X1570Y2764D01*
X1572Y2764D01*
X1572Y2762D01*
X1570Y2762D01*
X1570Y2744D01*
X1568Y2744D01*
X1568Y2738D01*
X1566Y2738D01*
X1566Y2732D01*
X1564Y2732D01*
X1564Y2728D01*
X1562Y2728D01*
X1562Y2724D01*
X1560Y2724D01*
X1560Y2720D01*
X1558Y2720D01*
X1558Y2716D01*
X1556Y2716D01*
X1556Y2714D01*
X1554Y2714D01*
X1554Y2712D01*
X1552Y2712D01*
X1552Y2708D01*
X1550Y2708D01*
X1550Y2706D01*
X1548Y2706D01*
X1548Y2526D01*
X1550Y2526D01*
X1550Y2524D01*
X1552Y2524D01*
X1552Y2522D01*
X1554Y2522D01*
X1554Y2520D01*
X1556Y2520D01*
X1556Y2516D01*
X1558Y2516D01*
X1558Y2514D01*
X1560Y2514D01*
X1560Y2512D01*
X1562Y2512D01*
X1562Y2508D01*
X1564Y2508D01*
X1564Y2504D01*
X1566Y2504D01*
X1566Y2500D01*
X1568Y2500D01*
X1568Y2496D01*
X1570Y2496D01*
X1570Y2490D01*
X1572Y2490D01*
X1572Y2482D01*
X1574Y2482D01*
X1574Y2464D01*
X1576Y2464D01*
X1576Y2462D01*
X1574Y2462D01*
X1574Y2426D01*
X1590Y2426D01*
X1590Y2424D01*
X1602Y2424D01*
X1602Y2422D01*
X1608Y2422D01*
X1608Y2420D01*
X1614Y2420D01*
X1614Y2418D01*
X1616Y2418D01*
X1616Y2416D01*
X1620Y2416D01*
X1620Y2414D01*
X1622Y2414D01*
X1622Y2412D01*
X1626Y2412D01*
X1626Y2410D01*
X1628Y2410D01*
X1628Y2408D01*
X1630Y2408D01*
X1630Y2406D01*
X1632Y2406D01*
X1632Y2404D01*
X1634Y2404D01*
X1634Y2402D01*
X1636Y2402D01*
X1636Y2398D01*
X1638Y2398D01*
X1638Y2396D01*
X1640Y2396D01*
X1640Y2392D01*
X1642Y2392D01*
X1642Y2388D01*
X1644Y2388D01*
X1644Y2382D01*
X1646Y2382D01*
X1646Y2374D01*
X1648Y2374D01*
X1648Y2252D01*
X2300Y2252D01*
X2300Y2250D01*
X2310Y2250D01*
X2310Y2248D01*
X2316Y2248D01*
X2316Y2246D01*
X2322Y2246D01*
X2322Y2244D01*
X2326Y2244D01*
X2326Y2242D01*
X2330Y2242D01*
X2330Y2240D01*
X2332Y2240D01*
X2332Y2238D01*
X2336Y2238D01*
X2336Y2236D01*
X2338Y2236D01*
X2338Y2234D01*
X2342Y2234D01*
X2342Y2232D01*
X2344Y2232D01*
X2344Y2230D01*
X2346Y2230D01*
X2346Y2228D01*
X2348Y2228D01*
X2348Y2226D01*
X3292Y2226D01*
X3292Y2224D01*
X3302Y2224D01*
X3302Y2222D01*
X3308Y2222D01*
X3308Y2220D01*
X3314Y2220D01*
X3314Y2218D01*
X3316Y2218D01*
X3316Y2216D01*
X3320Y2216D01*
X3320Y2214D01*
X3322Y2214D01*
X3322Y2212D01*
X3326Y2212D01*
X3326Y2210D01*
X3328Y2210D01*
X3328Y2208D01*
X3330Y2208D01*
X3330Y2206D01*
X3332Y2206D01*
X3332Y2204D01*
X3334Y2204D01*
X3334Y2202D01*
X3336Y2202D01*
X3336Y2200D01*
X3338Y2200D01*
X3338Y2198D01*
X3340Y2198D01*
X3340Y2196D01*
X3342Y2196D01*
X3342Y2194D01*
X3344Y2194D01*
X3344Y2192D01*
X3346Y2192D01*
X3346Y2190D01*
X3348Y2190D01*
X3348Y2188D01*
X3350Y2188D01*
X3350Y2186D01*
X3352Y2186D01*
X3352Y2184D01*
X3354Y2184D01*
X3354Y2182D01*
X3356Y2182D01*
X3356Y2180D01*
X3358Y2180D01*
X3358Y2178D01*
X3360Y2178D01*
X3360Y2176D01*
X3362Y2176D01*
X3362Y2174D01*
X3364Y2174D01*
X3364Y2172D01*
X3366Y2172D01*
X3366Y2170D01*
X3368Y2170D01*
X3368Y2168D01*
X3370Y2168D01*
X3370Y2166D01*
X3372Y2166D01*
X3372Y2164D01*
X3374Y2164D01*
X3374Y2162D01*
X3376Y2162D01*
X3376Y2160D01*
X3378Y2160D01*
X3378Y2158D01*
X3380Y2158D01*
X3380Y2156D01*
X3382Y2156D01*
X3382Y2154D01*
X3384Y2154D01*
X3384Y2152D01*
X3386Y2152D01*
X3386Y2150D01*
X3388Y2150D01*
X3388Y2148D01*
X3390Y2148D01*
X3390Y2146D01*
X3392Y2146D01*
X3392Y2144D01*
X3394Y2144D01*
X3394Y2142D01*
X3396Y2142D01*
X3396Y2140D01*
X3398Y2140D01*
X3398Y2138D01*
X3400Y2138D01*
X3400Y2136D01*
X3402Y2136D01*
X3402Y2134D01*
X3404Y2134D01*
X3404Y2132D01*
X3406Y2132D01*
X3406Y2130D01*
X3408Y2130D01*
X3408Y2128D01*
X3410Y2128D01*
X3410Y2126D01*
X3412Y2126D01*
X3412Y2124D01*
X3414Y2124D01*
X3414Y2122D01*
X3416Y2122D01*
X3416Y2120D01*
X3418Y2120D01*
X3418Y2118D01*
X3420Y2118D01*
X3420Y2116D01*
X3422Y2116D01*
X3422Y2114D01*
X3424Y2114D01*
X3424Y2112D01*
X3426Y2112D01*
X3426Y2110D01*
X3428Y2110D01*
X3428Y2108D01*
X3430Y2108D01*
X3430Y2106D01*
X3432Y2106D01*
X3432Y2104D01*
X3434Y2104D01*
X3434Y2102D01*
X3436Y2102D01*
X3436Y2098D01*
X3438Y2098D01*
X3438Y2096D01*
X3440Y2096D01*
X3440Y2092D01*
X3442Y2092D01*
X3442Y2088D01*
X3444Y2088D01*
X3444Y2082D01*
X3446Y2082D01*
X3446Y2074D01*
X3448Y2074D01*
X3448Y1852D01*
X3600Y1852D01*
X3600Y1850D01*
X3610Y1850D01*
X3610Y1848D01*
X3616Y1848D01*
X3616Y1846D01*
X3622Y1846D01*
X3622Y1844D01*
X3626Y1844D01*
X3626Y1842D01*
X3630Y1842D01*
X3630Y1840D01*
X3632Y1840D01*
X3632Y1838D01*
X3636Y1838D01*
X3636Y1836D01*
X3638Y1836D01*
X3638Y1834D01*
X3642Y1834D01*
X3642Y1832D01*
X3644Y1832D01*
X3644Y1830D01*
X3646Y1830D01*
X3646Y1828D01*
X3648Y1828D01*
X3648Y1826D01*
X3650Y1826D01*
X3650Y1824D01*
X3652Y1824D01*
X3652Y1822D01*
X3654Y1822D01*
X3654Y1820D01*
X3656Y1820D01*
X3656Y1816D01*
X3658Y1816D01*
X3658Y1814D01*
X3660Y1814D01*
X3660Y1812D01*
X3662Y1812D01*
X3662Y1808D01*
X3664Y1808D01*
X3664Y1804D01*
X3666Y1804D01*
X3666Y1800D01*
X3668Y1800D01*
X3668Y1796D01*
X3670Y1796D01*
X3670Y1790D01*
X3672Y1790D01*
X3672Y1782D01*
X3674Y1782D01*
X3674Y1764D01*
X3676Y1764D01*
X3676Y1762D01*
X3674Y1762D01*
X3674Y1744D01*
X3672Y1744D01*
X3672Y1736D01*
X3670Y1736D01*
X3670Y1732D01*
X3668Y1732D01*
X3668Y1726D01*
X3666Y1726D01*
X3666Y1722D01*
X3664Y1722D01*
X3664Y1718D01*
X3662Y1718D01*
X3662Y1716D01*
X3660Y1716D01*
X3660Y1712D01*
X3658Y1712D01*
X3658Y1710D01*
X3656Y1710D01*
X3656Y1708D01*
X3654Y1708D01*
X3654Y1704D01*
X3652Y1704D01*
X3652Y1702D01*
X3650Y1702D01*
X3650Y1700D01*
X3648Y1700D01*
X3648Y1698D01*
X3646Y1698D01*
X3646Y1696D01*
X3644Y1696D01*
X3644Y1694D01*
X3640Y1694D01*
X3640Y1692D01*
X3638Y1692D01*
X3638Y1690D01*
X3636Y1690D01*
X3636Y1688D01*
X3632Y1688D01*
X3632Y1686D01*
X3628Y1686D01*
X3628Y1684D01*
X3624Y1684D01*
X3624Y1682D01*
X3620Y1682D01*
X3620Y1680D01*
X3614Y1680D01*
X3614Y1678D01*
X3608Y1678D01*
X3608Y1676D01*
X3596Y1676D01*
X3596Y1674D01*
X4486Y1674D01*
X4486Y3314D01*
X40Y3314D01*
G37*
D02*
G36*
X40Y2948D02*
X40Y2852D01*
X400Y2852D01*
X400Y2850D01*
X1274Y2850D01*
X1274Y2826D01*
X1404Y2826D01*
X1404Y2846D01*
X1402Y2846D01*
X1402Y2882D01*
X1404Y2882D01*
X1404Y2888D01*
X1406Y2888D01*
X1406Y2894D01*
X1408Y2894D01*
X1408Y2898D01*
X1410Y2898D01*
X1410Y2904D01*
X1412Y2904D01*
X1412Y2906D01*
X1414Y2906D01*
X1414Y2910D01*
X1416Y2910D01*
X1416Y2912D01*
X1418Y2912D01*
X1418Y2916D01*
X1420Y2916D01*
X1420Y2918D01*
X1422Y2918D01*
X1422Y2920D01*
X1424Y2920D01*
X1424Y2922D01*
X1426Y2922D01*
X1426Y2924D01*
X1428Y2924D01*
X1428Y2926D01*
X1430Y2926D01*
X1430Y2928D01*
X1432Y2928D01*
X1432Y2930D01*
X1434Y2930D01*
X1434Y2932D01*
X1438Y2932D01*
X1438Y2934D01*
X1440Y2934D01*
X1440Y2936D01*
X1444Y2936D01*
X1444Y2938D01*
X1448Y2938D01*
X1448Y2940D01*
X1452Y2940D01*
X1452Y2942D01*
X1456Y2942D01*
X1456Y2944D01*
X1462Y2944D01*
X1462Y2946D01*
X1472Y2946D01*
X1472Y2948D01*
X40Y2948D01*
G37*
D02*
G36*
X40Y2852D02*
X40Y2574D01*
X376Y2574D01*
X376Y2576D01*
X364Y2576D01*
X364Y2578D01*
X358Y2578D01*
X358Y2580D01*
X352Y2580D01*
X352Y2582D01*
X348Y2582D01*
X348Y2584D01*
X344Y2584D01*
X344Y2586D01*
X340Y2586D01*
X340Y2588D01*
X338Y2588D01*
X338Y2590D01*
X334Y2590D01*
X334Y2592D01*
X332Y2592D01*
X332Y2594D01*
X330Y2594D01*
X330Y2596D01*
X326Y2596D01*
X326Y2598D01*
X324Y2598D01*
X324Y2600D01*
X322Y2600D01*
X322Y2602D01*
X320Y2602D01*
X320Y2604D01*
X318Y2604D01*
X318Y2608D01*
X316Y2608D01*
X316Y2610D01*
X314Y2610D01*
X314Y2612D01*
X312Y2612D01*
X312Y2616D01*
X310Y2616D01*
X310Y2620D01*
X308Y2620D01*
X308Y2622D01*
X306Y2622D01*
X306Y2626D01*
X304Y2626D01*
X304Y2632D01*
X302Y2632D01*
X302Y2638D01*
X300Y2638D01*
X300Y2646D01*
X298Y2646D01*
X298Y2682D01*
X300Y2682D01*
X300Y2690D01*
X302Y2690D01*
X302Y2694D01*
X304Y2694D01*
X304Y2700D01*
X306Y2700D01*
X306Y2726D01*
X304Y2726D01*
X304Y2732D01*
X302Y2732D01*
X302Y2738D01*
X300Y2738D01*
X300Y2746D01*
X298Y2746D01*
X298Y2782D01*
X300Y2782D01*
X300Y2790D01*
X302Y2790D01*
X302Y2794D01*
X304Y2794D01*
X304Y2800D01*
X306Y2800D01*
X306Y2804D01*
X308Y2804D01*
X308Y2808D01*
X310Y2808D01*
X310Y2810D01*
X312Y2810D01*
X312Y2814D01*
X314Y2814D01*
X314Y2816D01*
X316Y2816D01*
X316Y2820D01*
X318Y2820D01*
X318Y2822D01*
X320Y2822D01*
X320Y2824D01*
X322Y2824D01*
X322Y2826D01*
X324Y2826D01*
X324Y2828D01*
X326Y2828D01*
X326Y2830D01*
X328Y2830D01*
X328Y2832D01*
X332Y2832D01*
X332Y2834D01*
X334Y2834D01*
X334Y2836D01*
X336Y2836D01*
X336Y2838D01*
X340Y2838D01*
X340Y2840D01*
X342Y2840D01*
X342Y2842D01*
X346Y2842D01*
X346Y2844D01*
X350Y2844D01*
X350Y2846D01*
X356Y2846D01*
X356Y2848D01*
X362Y2848D01*
X362Y2850D01*
X372Y2850D01*
X372Y2852D01*
X40Y2852D01*
G37*
D02*
G36*
X410Y2850D02*
X410Y2848D01*
X416Y2848D01*
X416Y2846D01*
X422Y2846D01*
X422Y2844D01*
X426Y2844D01*
X426Y2842D01*
X430Y2842D01*
X430Y2840D01*
X432Y2840D01*
X432Y2838D01*
X436Y2838D01*
X436Y2836D01*
X438Y2836D01*
X438Y2834D01*
X442Y2834D01*
X442Y2832D01*
X444Y2832D01*
X444Y2830D01*
X446Y2830D01*
X446Y2828D01*
X448Y2828D01*
X448Y2826D01*
X590Y2826D01*
X590Y2824D01*
X602Y2824D01*
X602Y2822D01*
X608Y2822D01*
X608Y2820D01*
X614Y2820D01*
X614Y2818D01*
X616Y2818D01*
X616Y2816D01*
X620Y2816D01*
X620Y2814D01*
X622Y2814D01*
X622Y2812D01*
X626Y2812D01*
X626Y2810D01*
X628Y2810D01*
X628Y2808D01*
X630Y2808D01*
X630Y2806D01*
X632Y2806D01*
X632Y2804D01*
X634Y2804D01*
X634Y2802D01*
X636Y2802D01*
X636Y2798D01*
X638Y2798D01*
X638Y2796D01*
X640Y2796D01*
X640Y2792D01*
X642Y2792D01*
X642Y2788D01*
X644Y2788D01*
X644Y2782D01*
X646Y2782D01*
X646Y2774D01*
X648Y2774D01*
X648Y2748D01*
X802Y2748D01*
X802Y2746D01*
X810Y2746D01*
X810Y2744D01*
X816Y2744D01*
X816Y2742D01*
X820Y2742D01*
X820Y2740D01*
X824Y2740D01*
X824Y2738D01*
X828Y2738D01*
X828Y2736D01*
X832Y2736D01*
X832Y2734D01*
X834Y2734D01*
X834Y2732D01*
X838Y2732D01*
X838Y2730D01*
X840Y2730D01*
X840Y2728D01*
X842Y2728D01*
X842Y2726D01*
X844Y2726D01*
X844Y2724D01*
X846Y2724D01*
X846Y2722D01*
X848Y2722D01*
X848Y2720D01*
X850Y2720D01*
X850Y2718D01*
X852Y2718D01*
X852Y2716D01*
X854Y2716D01*
X854Y2714D01*
X856Y2714D01*
X856Y2710D01*
X858Y2710D01*
X858Y2706D01*
X860Y2706D01*
X860Y2704D01*
X862Y2704D01*
X862Y2700D01*
X864Y2700D01*
X864Y2694D01*
X866Y2694D01*
X866Y2690D01*
X868Y2690D01*
X868Y2682D01*
X870Y2682D01*
X870Y2666D01*
X872Y2666D01*
X872Y2662D01*
X870Y2662D01*
X870Y2626D01*
X1102Y2626D01*
X1102Y2646D01*
X1100Y2646D01*
X1100Y2850D01*
X410Y2850D01*
G37*
D02*
G36*
X648Y2748D02*
X648Y2626D01*
X704Y2626D01*
X704Y2646D01*
X702Y2646D01*
X702Y2682D01*
X704Y2682D01*
X704Y2688D01*
X706Y2688D01*
X706Y2694D01*
X708Y2694D01*
X708Y2698D01*
X710Y2698D01*
X710Y2704D01*
X712Y2704D01*
X712Y2706D01*
X714Y2706D01*
X714Y2710D01*
X716Y2710D01*
X716Y2712D01*
X718Y2712D01*
X718Y2716D01*
X720Y2716D01*
X720Y2718D01*
X722Y2718D01*
X722Y2720D01*
X724Y2720D01*
X724Y2722D01*
X726Y2722D01*
X726Y2724D01*
X728Y2724D01*
X728Y2726D01*
X730Y2726D01*
X730Y2728D01*
X732Y2728D01*
X732Y2730D01*
X734Y2730D01*
X734Y2732D01*
X738Y2732D01*
X738Y2734D01*
X740Y2734D01*
X740Y2736D01*
X744Y2736D01*
X744Y2738D01*
X748Y2738D01*
X748Y2740D01*
X752Y2740D01*
X752Y2742D01*
X756Y2742D01*
X756Y2744D01*
X762Y2744D01*
X762Y2746D01*
X772Y2746D01*
X772Y2748D01*
X648Y2748D01*
G37*
D02*
G36*
X472Y2702D02*
X472Y2682D01*
X474Y2682D01*
X474Y2664D01*
X476Y2664D01*
X476Y2662D01*
X474Y2662D01*
X474Y2644D01*
X472Y2644D01*
X472Y2636D01*
X470Y2636D01*
X470Y2632D01*
X468Y2632D01*
X468Y2626D01*
X466Y2626D01*
X466Y2622D01*
X464Y2622D01*
X464Y2618D01*
X462Y2618D01*
X462Y2616D01*
X460Y2616D01*
X460Y2612D01*
X458Y2612D01*
X458Y2610D01*
X456Y2610D01*
X456Y2608D01*
X454Y2608D01*
X454Y2604D01*
X452Y2604D01*
X452Y2602D01*
X450Y2602D01*
X450Y2600D01*
X448Y2600D01*
X448Y2598D01*
X446Y2598D01*
X446Y2596D01*
X444Y2596D01*
X444Y2594D01*
X440Y2594D01*
X440Y2592D01*
X438Y2592D01*
X438Y2590D01*
X436Y2590D01*
X436Y2588D01*
X432Y2588D01*
X432Y2586D01*
X428Y2586D01*
X428Y2584D01*
X424Y2584D01*
X424Y2582D01*
X420Y2582D01*
X420Y2580D01*
X414Y2580D01*
X414Y2578D01*
X408Y2578D01*
X408Y2576D01*
X396Y2576D01*
X396Y2574D01*
X524Y2574D01*
X524Y2702D01*
X472Y2702D01*
G37*
D02*
G36*
X1312Y2702D02*
X1312Y2700D01*
X1310Y2700D01*
X1310Y2698D01*
X1308Y2698D01*
X1308Y2696D01*
X1306Y2696D01*
X1306Y2694D01*
X1304Y2694D01*
X1304Y2692D01*
X1302Y2692D01*
X1302Y2690D01*
X1300Y2690D01*
X1300Y2688D01*
X1298Y2688D01*
X1298Y2686D01*
X1296Y2686D01*
X1296Y2684D01*
X1294Y2684D01*
X1294Y2682D01*
X1292Y2682D01*
X1292Y2680D01*
X1290Y2680D01*
X1290Y2678D01*
X1288Y2678D01*
X1288Y2676D01*
X1286Y2676D01*
X1286Y2674D01*
X1284Y2674D01*
X1284Y2672D01*
X1282Y2672D01*
X1282Y2670D01*
X1280Y2670D01*
X1280Y2668D01*
X1278Y2668D01*
X1278Y2666D01*
X1276Y2666D01*
X1276Y2664D01*
X1274Y2664D01*
X1274Y2662D01*
X1272Y2662D01*
X1272Y2644D01*
X1270Y2644D01*
X1270Y2638D01*
X1268Y2638D01*
X1268Y2632D01*
X1266Y2632D01*
X1266Y2626D01*
X1264Y2626D01*
X1264Y2600D01*
X1266Y2600D01*
X1266Y2596D01*
X1268Y2596D01*
X1268Y2590D01*
X1270Y2590D01*
X1270Y2582D01*
X1272Y2582D01*
X1272Y2564D01*
X1274Y2564D01*
X1274Y2562D01*
X1272Y2562D01*
X1272Y2544D01*
X1270Y2544D01*
X1270Y2538D01*
X1268Y2538D01*
X1268Y2532D01*
X1266Y2532D01*
X1266Y2526D01*
X1264Y2526D01*
X1264Y2522D01*
X1262Y2522D01*
X1262Y2520D01*
X1260Y2520D01*
X1260Y2516D01*
X1258Y2516D01*
X1258Y2512D01*
X1256Y2512D01*
X1256Y2510D01*
X1254Y2510D01*
X1254Y2508D01*
X1252Y2508D01*
X1252Y2506D01*
X1250Y2506D01*
X1250Y2504D01*
X1248Y2504D01*
X1248Y2502D01*
X1246Y2502D01*
X1246Y2500D01*
X1244Y2500D01*
X1244Y2498D01*
X1242Y2498D01*
X1242Y2496D01*
X1240Y2496D01*
X1240Y2494D01*
X1238Y2494D01*
X1238Y2492D01*
X1234Y2492D01*
X1234Y2490D01*
X1232Y2490D01*
X1232Y2488D01*
X1228Y2488D01*
X1228Y2486D01*
X1224Y2486D01*
X1224Y2484D01*
X1220Y2484D01*
X1220Y2482D01*
X1214Y2482D01*
X1214Y2480D01*
X1208Y2480D01*
X1208Y2478D01*
X1196Y2478D01*
X1196Y2476D01*
X1398Y2476D01*
X1398Y2482D01*
X1400Y2482D01*
X1400Y2490D01*
X1402Y2490D01*
X1402Y2494D01*
X1404Y2494D01*
X1404Y2500D01*
X1406Y2500D01*
X1406Y2504D01*
X1408Y2504D01*
X1408Y2508D01*
X1410Y2508D01*
X1410Y2510D01*
X1412Y2510D01*
X1412Y2514D01*
X1414Y2514D01*
X1414Y2516D01*
X1416Y2516D01*
X1416Y2520D01*
X1418Y2520D01*
X1418Y2522D01*
X1420Y2522D01*
X1420Y2524D01*
X1422Y2524D01*
X1422Y2526D01*
X1424Y2526D01*
X1424Y2702D01*
X1312Y2702D01*
G37*
D02*
G36*
X40Y2574D02*
X40Y2572D01*
X524Y2572D01*
X524Y2574D01*
X40Y2574D01*
G37*
D02*
G36*
X40Y2574D02*
X40Y2572D01*
X524Y2572D01*
X524Y2574D01*
X40Y2574D01*
G37*
D02*
G36*
X40Y2572D02*
X40Y2478D01*
X776Y2478D01*
X776Y2480D01*
X766Y2480D01*
X766Y2482D01*
X758Y2482D01*
X758Y2484D01*
X752Y2484D01*
X752Y2486D01*
X748Y2486D01*
X748Y2488D01*
X744Y2488D01*
X744Y2490D01*
X742Y2490D01*
X742Y2492D01*
X738Y2492D01*
X738Y2494D01*
X736Y2494D01*
X736Y2496D01*
X732Y2496D01*
X732Y2498D01*
X730Y2498D01*
X730Y2500D01*
X728Y2500D01*
X728Y2502D01*
X572Y2502D01*
X572Y2504D01*
X566Y2504D01*
X566Y2506D01*
X560Y2506D01*
X560Y2508D01*
X556Y2508D01*
X556Y2510D01*
X552Y2510D01*
X552Y2512D01*
X550Y2512D01*
X550Y2514D01*
X548Y2514D01*
X548Y2516D01*
X544Y2516D01*
X544Y2518D01*
X542Y2518D01*
X542Y2520D01*
X540Y2520D01*
X540Y2522D01*
X538Y2522D01*
X538Y2526D01*
X536Y2526D01*
X536Y2528D01*
X534Y2528D01*
X534Y2532D01*
X532Y2532D01*
X532Y2534D01*
X530Y2534D01*
X530Y2540D01*
X528Y2540D01*
X528Y2544D01*
X526Y2544D01*
X526Y2552D01*
X524Y2552D01*
X524Y2572D01*
X40Y2572D01*
G37*
D02*
G36*
X844Y2502D02*
X844Y2500D01*
X842Y2500D01*
X842Y2498D01*
X840Y2498D01*
X840Y2496D01*
X836Y2496D01*
X836Y2494D01*
X834Y2494D01*
X834Y2492D01*
X830Y2492D01*
X830Y2490D01*
X828Y2490D01*
X828Y2488D01*
X824Y2488D01*
X824Y2486D01*
X820Y2486D01*
X820Y2484D01*
X814Y2484D01*
X814Y2482D01*
X808Y2482D01*
X808Y2480D01*
X796Y2480D01*
X796Y2478D01*
X1164Y2478D01*
X1164Y2480D01*
X1158Y2480D01*
X1158Y2482D01*
X1152Y2482D01*
X1152Y2484D01*
X1148Y2484D01*
X1148Y2486D01*
X1144Y2486D01*
X1144Y2488D01*
X1140Y2488D01*
X1140Y2490D01*
X1138Y2490D01*
X1138Y2492D01*
X1134Y2492D01*
X1134Y2494D01*
X1132Y2494D01*
X1132Y2496D01*
X1130Y2496D01*
X1130Y2498D01*
X1128Y2498D01*
X1128Y2500D01*
X1126Y2500D01*
X1126Y2502D01*
X844Y2502D01*
G37*
D02*
G36*
X40Y2478D02*
X40Y2476D01*
X1176Y2476D01*
X1176Y2478D01*
X40Y2478D01*
G37*
D02*
G36*
X40Y2478D02*
X40Y2476D01*
X1176Y2476D01*
X1176Y2478D01*
X40Y2478D01*
G37*
D02*
G36*
X40Y2476D02*
X40Y2474D01*
X1398Y2474D01*
X1398Y2476D01*
X40Y2476D01*
G37*
D02*
G36*
X40Y2476D02*
X40Y2474D01*
X1398Y2474D01*
X1398Y2476D01*
X40Y2476D01*
G37*
D02*
G36*
X40Y2474D02*
X40Y2352D01*
X576Y2352D01*
X576Y2350D01*
X704Y2350D01*
X704Y2348D01*
X712Y2348D01*
X712Y2346D01*
X716Y2346D01*
X716Y2344D01*
X722Y2344D01*
X722Y2342D01*
X726Y2342D01*
X726Y2340D01*
X730Y2340D01*
X730Y2338D01*
X732Y2338D01*
X732Y2336D01*
X736Y2336D01*
X736Y2334D01*
X738Y2334D01*
X738Y2332D01*
X742Y2332D01*
X742Y2330D01*
X744Y2330D01*
X744Y2328D01*
X746Y2328D01*
X746Y2326D01*
X790Y2326D01*
X790Y2324D01*
X802Y2324D01*
X802Y2322D01*
X808Y2322D01*
X808Y2320D01*
X814Y2320D01*
X814Y2318D01*
X816Y2318D01*
X816Y2316D01*
X820Y2316D01*
X820Y2314D01*
X822Y2314D01*
X822Y2312D01*
X826Y2312D01*
X826Y2310D01*
X828Y2310D01*
X828Y2308D01*
X830Y2308D01*
X830Y2306D01*
X832Y2306D01*
X832Y2304D01*
X834Y2304D01*
X834Y2302D01*
X836Y2302D01*
X836Y2298D01*
X838Y2298D01*
X838Y2296D01*
X840Y2296D01*
X840Y2292D01*
X842Y2292D01*
X842Y2288D01*
X844Y2288D01*
X844Y2282D01*
X846Y2282D01*
X846Y2274D01*
X1476Y2274D01*
X1476Y2276D01*
X1464Y2276D01*
X1464Y2278D01*
X1458Y2278D01*
X1458Y2280D01*
X1452Y2280D01*
X1452Y2282D01*
X1448Y2282D01*
X1448Y2284D01*
X1444Y2284D01*
X1444Y2286D01*
X1440Y2286D01*
X1440Y2288D01*
X1438Y2288D01*
X1438Y2290D01*
X1434Y2290D01*
X1434Y2292D01*
X1432Y2292D01*
X1432Y2294D01*
X1430Y2294D01*
X1430Y2296D01*
X1426Y2296D01*
X1426Y2298D01*
X1424Y2298D01*
X1424Y2300D01*
X1422Y2300D01*
X1422Y2302D01*
X1420Y2302D01*
X1420Y2304D01*
X1418Y2304D01*
X1418Y2308D01*
X1416Y2308D01*
X1416Y2310D01*
X1414Y2310D01*
X1414Y2312D01*
X1412Y2312D01*
X1412Y2316D01*
X1410Y2316D01*
X1410Y2320D01*
X1408Y2320D01*
X1408Y2322D01*
X1406Y2322D01*
X1406Y2326D01*
X1404Y2326D01*
X1404Y2332D01*
X1402Y2332D01*
X1402Y2338D01*
X1400Y2338D01*
X1400Y2346D01*
X1398Y2346D01*
X1398Y2382D01*
X1400Y2382D01*
X1400Y2390D01*
X1402Y2390D01*
X1402Y2394D01*
X1404Y2394D01*
X1404Y2400D01*
X1406Y2400D01*
X1406Y2426D01*
X1404Y2426D01*
X1404Y2432D01*
X1402Y2432D01*
X1402Y2438D01*
X1400Y2438D01*
X1400Y2446D01*
X1398Y2446D01*
X1398Y2474D01*
X40Y2474D01*
G37*
D02*
G36*
X40Y2352D02*
X40Y1474D01*
X476Y1474D01*
X476Y1476D01*
X464Y1476D01*
X464Y1478D01*
X458Y1478D01*
X458Y1480D01*
X452Y1480D01*
X452Y1482D01*
X448Y1482D01*
X448Y1484D01*
X444Y1484D01*
X444Y1486D01*
X440Y1486D01*
X440Y1488D01*
X438Y1488D01*
X438Y1490D01*
X434Y1490D01*
X434Y1492D01*
X432Y1492D01*
X432Y1494D01*
X430Y1494D01*
X430Y1496D01*
X426Y1496D01*
X426Y1498D01*
X424Y1498D01*
X424Y1500D01*
X422Y1500D01*
X422Y1502D01*
X420Y1502D01*
X420Y1504D01*
X418Y1504D01*
X418Y1508D01*
X416Y1508D01*
X416Y1510D01*
X414Y1510D01*
X414Y1512D01*
X412Y1512D01*
X412Y1516D01*
X410Y1516D01*
X410Y1520D01*
X408Y1520D01*
X408Y1522D01*
X406Y1522D01*
X406Y1526D01*
X404Y1526D01*
X404Y1532D01*
X402Y1532D01*
X402Y1538D01*
X400Y1538D01*
X400Y1546D01*
X398Y1546D01*
X398Y1582D01*
X400Y1582D01*
X400Y1590D01*
X402Y1590D01*
X402Y1594D01*
X404Y1594D01*
X404Y1600D01*
X406Y1600D01*
X406Y1626D01*
X404Y1626D01*
X404Y1632D01*
X402Y1632D01*
X402Y1638D01*
X400Y1638D01*
X400Y1646D01*
X398Y1646D01*
X398Y1682D01*
X400Y1682D01*
X400Y1690D01*
X402Y1690D01*
X402Y1694D01*
X404Y1694D01*
X404Y1700D01*
X406Y1700D01*
X406Y1704D01*
X408Y1704D01*
X408Y1708D01*
X410Y1708D01*
X410Y1710D01*
X412Y1710D01*
X412Y1714D01*
X414Y1714D01*
X414Y1716D01*
X416Y1716D01*
X416Y1720D01*
X418Y1720D01*
X418Y1722D01*
X420Y1722D01*
X420Y1724D01*
X422Y1724D01*
X422Y1726D01*
X424Y1726D01*
X424Y1728D01*
X426Y1728D01*
X426Y1730D01*
X428Y1730D01*
X428Y1732D01*
X432Y1732D01*
X432Y1734D01*
X434Y1734D01*
X434Y1736D01*
X436Y1736D01*
X436Y1738D01*
X440Y1738D01*
X440Y1740D01*
X442Y1740D01*
X442Y1742D01*
X446Y1742D01*
X446Y1744D01*
X450Y1744D01*
X450Y1746D01*
X456Y1746D01*
X456Y1748D01*
X462Y1748D01*
X462Y1750D01*
X472Y1750D01*
X472Y1752D01*
X488Y1752D01*
X488Y1754D01*
X490Y1754D01*
X490Y1756D01*
X492Y1756D01*
X492Y1758D01*
X494Y1758D01*
X494Y1760D01*
X496Y1760D01*
X496Y1762D01*
X498Y1762D01*
X498Y1764D01*
X500Y1764D01*
X500Y1766D01*
X502Y1766D01*
X502Y1768D01*
X504Y1768D01*
X504Y1770D01*
X506Y1770D01*
X506Y1772D01*
X508Y1772D01*
X508Y1774D01*
X510Y1774D01*
X510Y1776D01*
X512Y1776D01*
X512Y1778D01*
X514Y1778D01*
X514Y1780D01*
X516Y1780D01*
X516Y1782D01*
X518Y1782D01*
X518Y1784D01*
X520Y1784D01*
X520Y1786D01*
X522Y1786D01*
X522Y1788D01*
X524Y1788D01*
X524Y1790D01*
X526Y1790D01*
X526Y1792D01*
X528Y1792D01*
X528Y1794D01*
X530Y1794D01*
X530Y1796D01*
X532Y1796D01*
X532Y1798D01*
X534Y1798D01*
X534Y1800D01*
X536Y1800D01*
X536Y1802D01*
X538Y1802D01*
X538Y1804D01*
X540Y1804D01*
X540Y1806D01*
X542Y1806D01*
X542Y1808D01*
X544Y1808D01*
X544Y1810D01*
X546Y1810D01*
X546Y1812D01*
X550Y1812D01*
X550Y1814D01*
X552Y1814D01*
X552Y1816D01*
X556Y1816D01*
X556Y1818D01*
X560Y1818D01*
X560Y1820D01*
X564Y1820D01*
X564Y1822D01*
X570Y1822D01*
X570Y1824D01*
X580Y1824D01*
X580Y1826D01*
X600Y1826D01*
X600Y1856D01*
X598Y1856D01*
X598Y1870D01*
X600Y1870D01*
X600Y1902D01*
X372Y1902D01*
X372Y1904D01*
X366Y1904D01*
X366Y1906D01*
X360Y1906D01*
X360Y1908D01*
X356Y1908D01*
X356Y1910D01*
X352Y1910D01*
X352Y1912D01*
X350Y1912D01*
X350Y1914D01*
X348Y1914D01*
X348Y1916D01*
X344Y1916D01*
X344Y1918D01*
X342Y1918D01*
X342Y1920D01*
X340Y1920D01*
X340Y1922D01*
X338Y1922D01*
X338Y1926D01*
X336Y1926D01*
X336Y1928D01*
X334Y1928D01*
X334Y1932D01*
X332Y1932D01*
X332Y1934D01*
X330Y1934D01*
X330Y1940D01*
X328Y1940D01*
X328Y1944D01*
X326Y1944D01*
X326Y1952D01*
X324Y1952D01*
X324Y2200D01*
X322Y2200D01*
X322Y2202D01*
X320Y2202D01*
X320Y2204D01*
X318Y2204D01*
X318Y2208D01*
X316Y2208D01*
X316Y2210D01*
X314Y2210D01*
X314Y2212D01*
X312Y2212D01*
X312Y2216D01*
X310Y2216D01*
X310Y2220D01*
X308Y2220D01*
X308Y2222D01*
X306Y2222D01*
X306Y2226D01*
X304Y2226D01*
X304Y2232D01*
X302Y2232D01*
X302Y2238D01*
X300Y2238D01*
X300Y2246D01*
X298Y2246D01*
X298Y2282D01*
X300Y2282D01*
X300Y2290D01*
X302Y2290D01*
X302Y2294D01*
X304Y2294D01*
X304Y2300D01*
X306Y2300D01*
X306Y2304D01*
X308Y2304D01*
X308Y2308D01*
X310Y2308D01*
X310Y2310D01*
X312Y2310D01*
X312Y2314D01*
X314Y2314D01*
X314Y2316D01*
X316Y2316D01*
X316Y2320D01*
X318Y2320D01*
X318Y2322D01*
X320Y2322D01*
X320Y2324D01*
X322Y2324D01*
X322Y2326D01*
X324Y2326D01*
X324Y2328D01*
X326Y2328D01*
X326Y2330D01*
X328Y2330D01*
X328Y2332D01*
X332Y2332D01*
X332Y2334D01*
X334Y2334D01*
X334Y2336D01*
X336Y2336D01*
X336Y2338D01*
X340Y2338D01*
X340Y2340D01*
X342Y2340D01*
X342Y2342D01*
X346Y2342D01*
X346Y2344D01*
X350Y2344D01*
X350Y2346D01*
X356Y2346D01*
X356Y2348D01*
X362Y2348D01*
X362Y2350D01*
X372Y2350D01*
X372Y2352D01*
X40Y2352D01*
G37*
D02*
G36*
X576Y2350D02*
X576Y2326D01*
X626Y2326D01*
X626Y2328D01*
X628Y2328D01*
X628Y2330D01*
X630Y2330D01*
X630Y2332D01*
X634Y2332D01*
X634Y2334D01*
X636Y2334D01*
X636Y2336D01*
X640Y2336D01*
X640Y2338D01*
X642Y2338D01*
X642Y2340D01*
X646Y2340D01*
X646Y2342D01*
X650Y2342D01*
X650Y2344D01*
X656Y2344D01*
X656Y2346D01*
X662Y2346D01*
X662Y2348D01*
X668Y2348D01*
X668Y2350D01*
X576Y2350D01*
G37*
D02*
G36*
X1496Y2276D02*
X1496Y2274D01*
X1524Y2274D01*
X1524Y2276D01*
X1496Y2276D01*
G37*
D02*
G36*
X848Y2274D02*
X848Y2272D01*
X1524Y2272D01*
X1524Y2274D01*
X848Y2274D01*
G37*
D02*
G36*
X848Y2274D02*
X848Y2272D01*
X1524Y2272D01*
X1524Y2274D01*
X848Y2274D01*
G37*
D02*
G36*
X848Y2272D02*
X848Y2252D01*
X1400Y2252D01*
X1400Y2250D01*
X1410Y2250D01*
X1410Y2248D01*
X1416Y2248D01*
X1416Y2246D01*
X1422Y2246D01*
X1422Y2244D01*
X1426Y2244D01*
X1426Y2242D01*
X1430Y2242D01*
X1430Y2240D01*
X1432Y2240D01*
X1432Y2238D01*
X1436Y2238D01*
X1436Y2236D01*
X1438Y2236D01*
X1438Y2234D01*
X1442Y2234D01*
X1442Y2232D01*
X1444Y2232D01*
X1444Y2230D01*
X1446Y2230D01*
X1446Y2228D01*
X1448Y2228D01*
X1448Y2226D01*
X1450Y2226D01*
X1450Y2224D01*
X1452Y2224D01*
X1452Y2222D01*
X1454Y2222D01*
X1454Y2220D01*
X1456Y2220D01*
X1456Y2216D01*
X1458Y2216D01*
X1458Y2214D01*
X1460Y2214D01*
X1460Y2212D01*
X1462Y2212D01*
X1462Y2208D01*
X1464Y2208D01*
X1464Y2204D01*
X1466Y2204D01*
X1466Y2200D01*
X1468Y2200D01*
X1468Y2196D01*
X1470Y2196D01*
X1470Y2190D01*
X1472Y2190D01*
X1472Y2182D01*
X1474Y2182D01*
X1474Y2164D01*
X1476Y2164D01*
X1476Y2162D01*
X1474Y2162D01*
X1474Y2144D01*
X1472Y2144D01*
X1472Y2136D01*
X1470Y2136D01*
X1470Y2132D01*
X1468Y2132D01*
X1468Y2126D01*
X1466Y2126D01*
X1466Y2122D01*
X1464Y2122D01*
X1464Y2118D01*
X1462Y2118D01*
X1462Y2116D01*
X1460Y2116D01*
X1460Y2112D01*
X1458Y2112D01*
X1458Y2110D01*
X1456Y2110D01*
X1456Y2108D01*
X1454Y2108D01*
X1454Y2104D01*
X1452Y2104D01*
X1452Y2102D01*
X1450Y2102D01*
X1450Y2100D01*
X1448Y2100D01*
X1448Y2074D01*
X1576Y2074D01*
X1576Y2076D01*
X1564Y2076D01*
X1564Y2078D01*
X1558Y2078D01*
X1558Y2080D01*
X1552Y2080D01*
X1552Y2082D01*
X1548Y2082D01*
X1548Y2084D01*
X1544Y2084D01*
X1544Y2086D01*
X1540Y2086D01*
X1540Y2088D01*
X1538Y2088D01*
X1538Y2090D01*
X1534Y2090D01*
X1534Y2092D01*
X1532Y2092D01*
X1532Y2094D01*
X1530Y2094D01*
X1530Y2096D01*
X1526Y2096D01*
X1526Y2098D01*
X1524Y2098D01*
X1524Y2100D01*
X1522Y2100D01*
X1522Y2102D01*
X1520Y2102D01*
X1520Y2104D01*
X1518Y2104D01*
X1518Y2108D01*
X1516Y2108D01*
X1516Y2110D01*
X1514Y2110D01*
X1514Y2112D01*
X1512Y2112D01*
X1512Y2116D01*
X1510Y2116D01*
X1510Y2120D01*
X1508Y2120D01*
X1508Y2122D01*
X1506Y2122D01*
X1506Y2126D01*
X1504Y2126D01*
X1504Y2132D01*
X1502Y2132D01*
X1502Y2138D01*
X1500Y2138D01*
X1500Y2146D01*
X1498Y2146D01*
X1498Y2182D01*
X1500Y2182D01*
X1500Y2190D01*
X1502Y2190D01*
X1502Y2194D01*
X1504Y2194D01*
X1504Y2200D01*
X1506Y2200D01*
X1506Y2204D01*
X1508Y2204D01*
X1508Y2208D01*
X1510Y2208D01*
X1510Y2210D01*
X1512Y2210D01*
X1512Y2214D01*
X1514Y2214D01*
X1514Y2216D01*
X1516Y2216D01*
X1516Y2220D01*
X1518Y2220D01*
X1518Y2222D01*
X1520Y2222D01*
X1520Y2224D01*
X1522Y2224D01*
X1522Y2226D01*
X1524Y2226D01*
X1524Y2272D01*
X848Y2272D01*
G37*
D02*
G36*
X848Y2252D02*
X848Y2250D01*
X872Y2250D01*
X872Y2252D01*
X848Y2252D01*
G37*
D02*
G36*
X900Y2252D02*
X900Y2250D01*
X910Y2250D01*
X910Y2248D01*
X916Y2248D01*
X916Y2246D01*
X922Y2246D01*
X922Y2244D01*
X926Y2244D01*
X926Y2242D01*
X946Y2242D01*
X946Y2244D01*
X950Y2244D01*
X950Y2246D01*
X956Y2246D01*
X956Y2248D01*
X962Y2248D01*
X962Y2250D01*
X972Y2250D01*
X972Y2252D01*
X900Y2252D01*
G37*
D02*
G36*
X1000Y2252D02*
X1000Y2250D01*
X1010Y2250D01*
X1010Y2248D01*
X1016Y2248D01*
X1016Y2246D01*
X1022Y2246D01*
X1022Y2244D01*
X1026Y2244D01*
X1026Y2242D01*
X1046Y2242D01*
X1046Y2244D01*
X1050Y2244D01*
X1050Y2246D01*
X1056Y2246D01*
X1056Y2248D01*
X1062Y2248D01*
X1062Y2250D01*
X1072Y2250D01*
X1072Y2252D01*
X1000Y2252D01*
G37*
D02*
G36*
X1100Y2252D02*
X1100Y2250D01*
X1110Y2250D01*
X1110Y2248D01*
X1116Y2248D01*
X1116Y2246D01*
X1122Y2246D01*
X1122Y2244D01*
X1126Y2244D01*
X1126Y2242D01*
X1146Y2242D01*
X1146Y2244D01*
X1150Y2244D01*
X1150Y2246D01*
X1156Y2246D01*
X1156Y2248D01*
X1162Y2248D01*
X1162Y2250D01*
X1172Y2250D01*
X1172Y2252D01*
X1100Y2252D01*
G37*
D02*
G36*
X1200Y2252D02*
X1200Y2250D01*
X1210Y2250D01*
X1210Y2248D01*
X1216Y2248D01*
X1216Y2246D01*
X1222Y2246D01*
X1222Y2244D01*
X1226Y2244D01*
X1226Y2242D01*
X1246Y2242D01*
X1246Y2244D01*
X1250Y2244D01*
X1250Y2246D01*
X1256Y2246D01*
X1256Y2248D01*
X1262Y2248D01*
X1262Y2250D01*
X1272Y2250D01*
X1272Y2252D01*
X1200Y2252D01*
G37*
D02*
G36*
X1300Y2252D02*
X1300Y2250D01*
X1310Y2250D01*
X1310Y2248D01*
X1316Y2248D01*
X1316Y2246D01*
X1322Y2246D01*
X1322Y2244D01*
X1326Y2244D01*
X1326Y2242D01*
X1346Y2242D01*
X1346Y2244D01*
X1350Y2244D01*
X1350Y2246D01*
X1356Y2246D01*
X1356Y2248D01*
X1362Y2248D01*
X1362Y2250D01*
X1372Y2250D01*
X1372Y2252D01*
X1300Y2252D01*
G37*
D02*
G36*
X1648Y2252D02*
X1648Y2250D01*
X1672Y2250D01*
X1672Y2252D01*
X1648Y2252D01*
G37*
D02*
G36*
X1700Y2252D02*
X1700Y2250D01*
X1710Y2250D01*
X1710Y2248D01*
X1716Y2248D01*
X1716Y2246D01*
X1722Y2246D01*
X1722Y2244D01*
X1726Y2244D01*
X1726Y2242D01*
X1746Y2242D01*
X1746Y2244D01*
X1750Y2244D01*
X1750Y2246D01*
X1756Y2246D01*
X1756Y2248D01*
X1762Y2248D01*
X1762Y2250D01*
X1772Y2250D01*
X1772Y2252D01*
X1700Y2252D01*
G37*
D02*
G36*
X1800Y2252D02*
X1800Y2250D01*
X1810Y2250D01*
X1810Y2248D01*
X1816Y2248D01*
X1816Y2246D01*
X1822Y2246D01*
X1822Y2244D01*
X1826Y2244D01*
X1826Y2242D01*
X1846Y2242D01*
X1846Y2244D01*
X1850Y2244D01*
X1850Y2246D01*
X1856Y2246D01*
X1856Y2248D01*
X1862Y2248D01*
X1862Y2250D01*
X1872Y2250D01*
X1872Y2252D01*
X1800Y2252D01*
G37*
D02*
G36*
X1900Y2252D02*
X1900Y2250D01*
X1910Y2250D01*
X1910Y2248D01*
X1916Y2248D01*
X1916Y2246D01*
X1922Y2246D01*
X1922Y2244D01*
X1926Y2244D01*
X1926Y2242D01*
X1946Y2242D01*
X1946Y2244D01*
X1950Y2244D01*
X1950Y2246D01*
X1956Y2246D01*
X1956Y2248D01*
X1962Y2248D01*
X1962Y2250D01*
X1972Y2250D01*
X1972Y2252D01*
X1900Y2252D01*
G37*
D02*
G36*
X2000Y2252D02*
X2000Y2250D01*
X2010Y2250D01*
X2010Y2248D01*
X2016Y2248D01*
X2016Y2246D01*
X2022Y2246D01*
X2022Y2244D01*
X2026Y2244D01*
X2026Y2242D01*
X2046Y2242D01*
X2046Y2244D01*
X2050Y2244D01*
X2050Y2246D01*
X2056Y2246D01*
X2056Y2248D01*
X2062Y2248D01*
X2062Y2250D01*
X2072Y2250D01*
X2072Y2252D01*
X2000Y2252D01*
G37*
D02*
G36*
X2100Y2252D02*
X2100Y2250D01*
X2110Y2250D01*
X2110Y2248D01*
X2116Y2248D01*
X2116Y2246D01*
X2122Y2246D01*
X2122Y2244D01*
X2126Y2244D01*
X2126Y2242D01*
X2146Y2242D01*
X2146Y2244D01*
X2150Y2244D01*
X2150Y2246D01*
X2156Y2246D01*
X2156Y2248D01*
X2162Y2248D01*
X2162Y2250D01*
X2172Y2250D01*
X2172Y2252D01*
X2100Y2252D01*
G37*
D02*
G36*
X2200Y2252D02*
X2200Y2250D01*
X2210Y2250D01*
X2210Y2248D01*
X2216Y2248D01*
X2216Y2246D01*
X2222Y2246D01*
X2222Y2244D01*
X2226Y2244D01*
X2226Y2242D01*
X2246Y2242D01*
X2246Y2244D01*
X2250Y2244D01*
X2250Y2246D01*
X2256Y2246D01*
X2256Y2248D01*
X2262Y2248D01*
X2262Y2250D01*
X2272Y2250D01*
X2272Y2252D01*
X2200Y2252D01*
G37*
D02*
G36*
X2350Y2226D02*
X2350Y2224D01*
X2352Y2224D01*
X2352Y2222D01*
X2354Y2222D01*
X2354Y2220D01*
X2356Y2220D01*
X2356Y2216D01*
X2358Y2216D01*
X2358Y2214D01*
X2360Y2214D01*
X2360Y2212D01*
X2362Y2212D01*
X2362Y2208D01*
X2364Y2208D01*
X2364Y2204D01*
X2366Y2204D01*
X2366Y2200D01*
X2368Y2200D01*
X2368Y2196D01*
X2370Y2196D01*
X2370Y2190D01*
X2372Y2190D01*
X2372Y2182D01*
X2374Y2182D01*
X2374Y2164D01*
X2376Y2164D01*
X2376Y2162D01*
X2374Y2162D01*
X2374Y2158D01*
X2394Y2158D01*
X2394Y2160D01*
X2396Y2160D01*
X2396Y2162D01*
X2398Y2162D01*
X2398Y2164D01*
X2400Y2164D01*
X2400Y2166D01*
X2402Y2166D01*
X2402Y2168D01*
X2404Y2168D01*
X2404Y2170D01*
X2406Y2170D01*
X2406Y2172D01*
X2408Y2172D01*
X2408Y2174D01*
X2410Y2174D01*
X2410Y2176D01*
X2412Y2176D01*
X2412Y2178D01*
X2414Y2178D01*
X2414Y2180D01*
X2416Y2180D01*
X2416Y2182D01*
X2418Y2182D01*
X2418Y2184D01*
X2420Y2184D01*
X2420Y2186D01*
X2422Y2186D01*
X2422Y2188D01*
X2424Y2188D01*
X2424Y2190D01*
X2426Y2190D01*
X2426Y2192D01*
X2428Y2192D01*
X2428Y2194D01*
X2430Y2194D01*
X2430Y2196D01*
X2432Y2196D01*
X2432Y2198D01*
X2434Y2198D01*
X2434Y2200D01*
X2436Y2200D01*
X2436Y2202D01*
X2438Y2202D01*
X2438Y2204D01*
X2440Y2204D01*
X2440Y2206D01*
X2442Y2206D01*
X2442Y2208D01*
X2444Y2208D01*
X2444Y2210D01*
X2446Y2210D01*
X2446Y2212D01*
X2450Y2212D01*
X2450Y2214D01*
X2452Y2214D01*
X2452Y2216D01*
X2456Y2216D01*
X2456Y2218D01*
X2460Y2218D01*
X2460Y2220D01*
X2464Y2220D01*
X2464Y2222D01*
X2470Y2222D01*
X2470Y2224D01*
X2480Y2224D01*
X2480Y2226D01*
X2350Y2226D01*
G37*
D02*
G36*
X2512Y2102D02*
X2512Y2100D01*
X2510Y2100D01*
X2510Y2098D01*
X2508Y2098D01*
X2508Y2096D01*
X2506Y2096D01*
X2506Y2094D01*
X2504Y2094D01*
X2504Y2092D01*
X2502Y2092D01*
X2502Y2090D01*
X2500Y2090D01*
X2500Y2088D01*
X2498Y2088D01*
X2498Y2086D01*
X2496Y2086D01*
X2496Y2084D01*
X2494Y2084D01*
X2494Y2082D01*
X2492Y2082D01*
X2492Y2080D01*
X2490Y2080D01*
X2490Y2078D01*
X2488Y2078D01*
X2488Y2076D01*
X2486Y2076D01*
X2486Y2074D01*
X2484Y2074D01*
X2484Y2072D01*
X2482Y2072D01*
X2482Y2070D01*
X2480Y2070D01*
X2480Y2068D01*
X2478Y2068D01*
X2478Y2066D01*
X2476Y2066D01*
X2476Y2064D01*
X2474Y2064D01*
X2474Y2062D01*
X2472Y2062D01*
X2472Y2060D01*
X2470Y2060D01*
X2470Y2058D01*
X2468Y2058D01*
X2468Y2056D01*
X2466Y2056D01*
X2466Y2054D01*
X2464Y2054D01*
X2464Y2052D01*
X2462Y2052D01*
X2462Y2050D01*
X2460Y2050D01*
X2460Y2048D01*
X2458Y2048D01*
X2458Y2046D01*
X2456Y2046D01*
X2456Y2044D01*
X2454Y2044D01*
X2454Y2042D01*
X2452Y2042D01*
X2452Y2040D01*
X2450Y2040D01*
X2450Y2038D01*
X2448Y2038D01*
X2448Y2036D01*
X2446Y2036D01*
X2446Y2034D01*
X2444Y2034D01*
X2444Y2032D01*
X2442Y2032D01*
X2442Y2030D01*
X2440Y2030D01*
X2440Y2028D01*
X2438Y2028D01*
X2438Y2026D01*
X2436Y2026D01*
X2436Y2024D01*
X2434Y2024D01*
X2434Y2022D01*
X2432Y2022D01*
X2432Y2020D01*
X2430Y2020D01*
X2430Y2018D01*
X2428Y2018D01*
X2428Y2016D01*
X2424Y2016D01*
X2424Y2014D01*
X2422Y2014D01*
X2422Y2012D01*
X2420Y2012D01*
X2420Y2010D01*
X2416Y2010D01*
X2416Y2008D01*
X2412Y2008D01*
X2412Y2006D01*
X2408Y2006D01*
X2408Y2004D01*
X2400Y2004D01*
X2400Y2002D01*
X1948Y2002D01*
X1948Y1876D01*
X2676Y1876D01*
X2676Y1878D01*
X2666Y1878D01*
X2666Y1880D01*
X2658Y1880D01*
X2658Y1882D01*
X2652Y1882D01*
X2652Y1884D01*
X2648Y1884D01*
X2648Y1886D01*
X2644Y1886D01*
X2644Y1888D01*
X2642Y1888D01*
X2642Y1890D01*
X2638Y1890D01*
X2638Y1892D01*
X2636Y1892D01*
X2636Y1894D01*
X2632Y1894D01*
X2632Y1896D01*
X2630Y1896D01*
X2630Y1898D01*
X2628Y1898D01*
X2628Y1900D01*
X2626Y1900D01*
X2626Y1902D01*
X2624Y1902D01*
X2624Y1904D01*
X2622Y1904D01*
X2622Y1906D01*
X2620Y1906D01*
X2620Y1908D01*
X2618Y1908D01*
X2618Y1910D01*
X2616Y1910D01*
X2616Y1914D01*
X2614Y1914D01*
X2614Y1916D01*
X2612Y1916D01*
X2612Y1920D01*
X2610Y1920D01*
X2610Y1924D01*
X2608Y1924D01*
X2608Y1928D01*
X2606Y1928D01*
X2606Y1932D01*
X2604Y1932D01*
X2604Y1938D01*
X2602Y1938D01*
X2602Y1946D01*
X2600Y1946D01*
X2600Y1982D01*
X2602Y1982D01*
X2602Y1988D01*
X2604Y1988D01*
X2604Y1994D01*
X2606Y1994D01*
X2606Y2000D01*
X2608Y2000D01*
X2608Y2004D01*
X2610Y2004D01*
X2610Y2006D01*
X2612Y2006D01*
X2612Y2010D01*
X2614Y2010D01*
X2614Y2014D01*
X2616Y2014D01*
X2616Y2016D01*
X2618Y2016D01*
X2618Y2018D01*
X2620Y2018D01*
X2620Y2020D01*
X2622Y2020D01*
X2622Y2022D01*
X2624Y2022D01*
X2624Y2102D01*
X2512Y2102D01*
G37*
D02*
G36*
X1624Y2084D02*
X1624Y2082D01*
X1620Y2082D01*
X1620Y2080D01*
X1614Y2080D01*
X1614Y2078D01*
X1608Y2078D01*
X1608Y2076D01*
X1596Y2076D01*
X1596Y2074D01*
X1676Y2074D01*
X1676Y2076D01*
X1664Y2076D01*
X1664Y2078D01*
X1658Y2078D01*
X1658Y2080D01*
X1652Y2080D01*
X1652Y2082D01*
X1648Y2082D01*
X1648Y2084D01*
X1624Y2084D01*
G37*
D02*
G36*
X1724Y2084D02*
X1724Y2082D01*
X1720Y2082D01*
X1720Y2080D01*
X1714Y2080D01*
X1714Y2078D01*
X1708Y2078D01*
X1708Y2076D01*
X1696Y2076D01*
X1696Y2074D01*
X1776Y2074D01*
X1776Y2076D01*
X1764Y2076D01*
X1764Y2078D01*
X1758Y2078D01*
X1758Y2080D01*
X1752Y2080D01*
X1752Y2082D01*
X1748Y2082D01*
X1748Y2084D01*
X1724Y2084D01*
G37*
D02*
G36*
X1796Y2076D02*
X1796Y2074D01*
X1824Y2074D01*
X1824Y2076D01*
X1796Y2076D01*
G37*
D02*
G36*
X1448Y2074D02*
X1448Y2072D01*
X1824Y2072D01*
X1824Y2074D01*
X1448Y2074D01*
G37*
D02*
G36*
X1448Y2074D02*
X1448Y2072D01*
X1824Y2072D01*
X1824Y2074D01*
X1448Y2074D01*
G37*
D02*
G36*
X1448Y2074D02*
X1448Y2072D01*
X1824Y2072D01*
X1824Y2074D01*
X1448Y2074D01*
G37*
D02*
G36*
X1448Y2074D02*
X1448Y2072D01*
X1824Y2072D01*
X1824Y2074D01*
X1448Y2074D01*
G37*
D02*
G36*
X1448Y2072D02*
X1448Y1952D01*
X1700Y1952D01*
X1700Y1950D01*
X1710Y1950D01*
X1710Y1948D01*
X1716Y1948D01*
X1716Y1946D01*
X1722Y1946D01*
X1722Y1944D01*
X1726Y1944D01*
X1726Y1942D01*
X1730Y1942D01*
X1730Y1940D01*
X1732Y1940D01*
X1732Y1938D01*
X1736Y1938D01*
X1736Y1936D01*
X1738Y1936D01*
X1738Y1934D01*
X1742Y1934D01*
X1742Y1932D01*
X1744Y1932D01*
X1744Y1930D01*
X1746Y1930D01*
X1746Y1928D01*
X1748Y1928D01*
X1748Y1926D01*
X1824Y1926D01*
X1824Y2072D01*
X1448Y2072D01*
G37*
D02*
G36*
X1448Y1952D02*
X1448Y1950D01*
X1472Y1950D01*
X1472Y1952D01*
X1448Y1952D01*
G37*
D02*
G36*
X1500Y1952D02*
X1500Y1950D01*
X1510Y1950D01*
X1510Y1948D01*
X1516Y1948D01*
X1516Y1946D01*
X1522Y1946D01*
X1522Y1944D01*
X1526Y1944D01*
X1526Y1942D01*
X1546Y1942D01*
X1546Y1944D01*
X1550Y1944D01*
X1550Y1946D01*
X1556Y1946D01*
X1556Y1948D01*
X1562Y1948D01*
X1562Y1950D01*
X1572Y1950D01*
X1572Y1952D01*
X1500Y1952D01*
G37*
D02*
G36*
X1600Y1952D02*
X1600Y1950D01*
X1610Y1950D01*
X1610Y1948D01*
X1616Y1948D01*
X1616Y1946D01*
X1622Y1946D01*
X1622Y1944D01*
X1626Y1944D01*
X1626Y1942D01*
X1646Y1942D01*
X1646Y1944D01*
X1650Y1944D01*
X1650Y1946D01*
X1656Y1946D01*
X1656Y1948D01*
X1662Y1948D01*
X1662Y1950D01*
X1672Y1950D01*
X1672Y1952D01*
X1600Y1952D01*
G37*
D02*
G36*
X2696Y1878D02*
X2696Y1876D01*
X2724Y1876D01*
X2724Y1878D01*
X2696Y1878D01*
G37*
D02*
G36*
X1948Y1876D02*
X1948Y1874D01*
X2724Y1874D01*
X2724Y1876D01*
X1948Y1876D01*
G37*
D02*
G36*
X1948Y1876D02*
X1948Y1874D01*
X2724Y1874D01*
X2724Y1876D01*
X1948Y1876D01*
G37*
D02*
G36*
X1948Y1874D02*
X1948Y1852D01*
X1946Y1852D01*
X1946Y1844D01*
X1944Y1844D01*
X1944Y1838D01*
X1942Y1838D01*
X1942Y1834D01*
X1940Y1834D01*
X1940Y1832D01*
X1938Y1832D01*
X1938Y1828D01*
X1936Y1828D01*
X1936Y1826D01*
X1934Y1826D01*
X1934Y1822D01*
X1932Y1822D01*
X1932Y1820D01*
X1930Y1820D01*
X1930Y1818D01*
X1928Y1818D01*
X1928Y1816D01*
X1924Y1816D01*
X1924Y1814D01*
X1922Y1814D01*
X1922Y1812D01*
X1920Y1812D01*
X1920Y1810D01*
X1916Y1810D01*
X1916Y1808D01*
X1912Y1808D01*
X1912Y1806D01*
X1908Y1806D01*
X1908Y1804D01*
X1900Y1804D01*
X1900Y1802D01*
X1750Y1802D01*
X1750Y1800D01*
X1748Y1800D01*
X1748Y1798D01*
X1746Y1798D01*
X1746Y1796D01*
X1744Y1796D01*
X1744Y1794D01*
X1740Y1794D01*
X1740Y1792D01*
X1738Y1792D01*
X1738Y1790D01*
X1736Y1790D01*
X1736Y1788D01*
X1732Y1788D01*
X1732Y1786D01*
X1728Y1786D01*
X1728Y1784D01*
X1724Y1784D01*
X1724Y1782D01*
X1720Y1782D01*
X1720Y1780D01*
X1714Y1780D01*
X1714Y1778D01*
X1708Y1778D01*
X1708Y1776D01*
X1696Y1776D01*
X1696Y1774D01*
X1684Y1774D01*
X1684Y1772D01*
X1682Y1772D01*
X1682Y1770D01*
X1680Y1770D01*
X1680Y1768D01*
X1678Y1768D01*
X1678Y1766D01*
X1676Y1766D01*
X1676Y1764D01*
X1674Y1764D01*
X1674Y1762D01*
X1672Y1762D01*
X1672Y1760D01*
X1670Y1760D01*
X1670Y1758D01*
X1668Y1758D01*
X1668Y1756D01*
X1666Y1756D01*
X1666Y1754D01*
X1664Y1754D01*
X1664Y1752D01*
X1662Y1752D01*
X1662Y1750D01*
X1660Y1750D01*
X1660Y1748D01*
X1658Y1748D01*
X1658Y1746D01*
X1656Y1746D01*
X1656Y1744D01*
X1654Y1744D01*
X1654Y1742D01*
X1652Y1742D01*
X1652Y1740D01*
X1650Y1740D01*
X1650Y1738D01*
X1648Y1738D01*
X1648Y1736D01*
X1646Y1736D01*
X1646Y1734D01*
X1644Y1734D01*
X1644Y1732D01*
X1642Y1732D01*
X1642Y1730D01*
X1640Y1730D01*
X1640Y1728D01*
X1638Y1728D01*
X1638Y1726D01*
X1636Y1726D01*
X1636Y1724D01*
X1634Y1724D01*
X1634Y1722D01*
X1632Y1722D01*
X1632Y1720D01*
X1630Y1720D01*
X1630Y1718D01*
X1628Y1718D01*
X1628Y1716D01*
X1624Y1716D01*
X1624Y1714D01*
X1622Y1714D01*
X1622Y1712D01*
X1620Y1712D01*
X1620Y1710D01*
X1616Y1710D01*
X1616Y1708D01*
X1612Y1708D01*
X1612Y1706D01*
X1608Y1706D01*
X1608Y1704D01*
X1600Y1704D01*
X1600Y1702D01*
X612Y1702D01*
X612Y1700D01*
X610Y1700D01*
X610Y1698D01*
X608Y1698D01*
X608Y1696D01*
X606Y1696D01*
X606Y1694D01*
X604Y1694D01*
X604Y1692D01*
X602Y1692D01*
X602Y1690D01*
X600Y1690D01*
X600Y1688D01*
X598Y1688D01*
X598Y1686D01*
X596Y1686D01*
X596Y1684D01*
X594Y1684D01*
X594Y1682D01*
X592Y1682D01*
X592Y1680D01*
X590Y1680D01*
X590Y1678D01*
X588Y1678D01*
X588Y1676D01*
X586Y1676D01*
X586Y1674D01*
X584Y1674D01*
X584Y1672D01*
X582Y1672D01*
X582Y1670D01*
X580Y1670D01*
X580Y1668D01*
X578Y1668D01*
X578Y1666D01*
X576Y1666D01*
X576Y1662D01*
X574Y1662D01*
X574Y1652D01*
X2600Y1652D01*
X2600Y1650D01*
X2610Y1650D01*
X2610Y1648D01*
X2616Y1648D01*
X2616Y1646D01*
X2622Y1646D01*
X2622Y1644D01*
X2626Y1644D01*
X2626Y1642D01*
X2630Y1642D01*
X2630Y1640D01*
X2632Y1640D01*
X2632Y1638D01*
X2636Y1638D01*
X2636Y1636D01*
X2638Y1636D01*
X2638Y1634D01*
X2642Y1634D01*
X2642Y1632D01*
X2644Y1632D01*
X2644Y1630D01*
X2646Y1630D01*
X2646Y1628D01*
X2648Y1628D01*
X2648Y1626D01*
X2650Y1626D01*
X2650Y1624D01*
X2652Y1624D01*
X2652Y1622D01*
X2654Y1622D01*
X2654Y1620D01*
X2656Y1620D01*
X2656Y1616D01*
X2658Y1616D01*
X2658Y1614D01*
X2660Y1614D01*
X2660Y1612D01*
X2662Y1612D01*
X2662Y1608D01*
X2664Y1608D01*
X2664Y1604D01*
X2666Y1604D01*
X2666Y1600D01*
X2668Y1600D01*
X2668Y1596D01*
X2670Y1596D01*
X2670Y1590D01*
X2672Y1590D01*
X2672Y1582D01*
X2674Y1582D01*
X2674Y1564D01*
X2676Y1564D01*
X2676Y1562D01*
X2674Y1562D01*
X2674Y1544D01*
X2672Y1544D01*
X2672Y1536D01*
X2670Y1536D01*
X2670Y1532D01*
X2668Y1532D01*
X2668Y1526D01*
X2666Y1526D01*
X2666Y1522D01*
X2664Y1522D01*
X2664Y1518D01*
X2662Y1518D01*
X2662Y1516D01*
X2660Y1516D01*
X2660Y1512D01*
X2658Y1512D01*
X2658Y1510D01*
X2656Y1510D01*
X2656Y1508D01*
X2654Y1508D01*
X2654Y1504D01*
X2652Y1504D01*
X2652Y1502D01*
X2650Y1502D01*
X2650Y1500D01*
X2648Y1500D01*
X2648Y1498D01*
X2646Y1498D01*
X2646Y1496D01*
X2644Y1496D01*
X2644Y1494D01*
X2640Y1494D01*
X2640Y1492D01*
X2638Y1492D01*
X2638Y1490D01*
X2636Y1490D01*
X2636Y1488D01*
X2632Y1488D01*
X2632Y1486D01*
X2628Y1486D01*
X2628Y1484D01*
X2624Y1484D01*
X2624Y1482D01*
X2620Y1482D01*
X2620Y1480D01*
X2614Y1480D01*
X2614Y1478D01*
X2608Y1478D01*
X2608Y1476D01*
X2596Y1476D01*
X2596Y1474D01*
X2724Y1474D01*
X2724Y1874D01*
X1948Y1874D01*
G37*
D02*
G36*
X3448Y1852D02*
X3448Y1826D01*
X3524Y1826D01*
X3524Y1828D01*
X3526Y1828D01*
X3526Y1830D01*
X3528Y1830D01*
X3528Y1832D01*
X3532Y1832D01*
X3532Y1834D01*
X3534Y1834D01*
X3534Y1836D01*
X3536Y1836D01*
X3536Y1838D01*
X3540Y1838D01*
X3540Y1840D01*
X3542Y1840D01*
X3542Y1842D01*
X3546Y1842D01*
X3546Y1844D01*
X3550Y1844D01*
X3550Y1846D01*
X3556Y1846D01*
X3556Y1848D01*
X3562Y1848D01*
X3562Y1850D01*
X3572Y1850D01*
X3572Y1852D01*
X3448Y1852D01*
G37*
D02*
G36*
X3450Y1702D02*
X3450Y1674D01*
X3576Y1674D01*
X3576Y1676D01*
X3564Y1676D01*
X3564Y1678D01*
X3558Y1678D01*
X3558Y1680D01*
X3552Y1680D01*
X3552Y1682D01*
X3548Y1682D01*
X3548Y1684D01*
X3544Y1684D01*
X3544Y1686D01*
X3540Y1686D01*
X3540Y1688D01*
X3538Y1688D01*
X3538Y1690D01*
X3534Y1690D01*
X3534Y1692D01*
X3532Y1692D01*
X3532Y1694D01*
X3530Y1694D01*
X3530Y1696D01*
X3526Y1696D01*
X3526Y1698D01*
X3524Y1698D01*
X3524Y1700D01*
X3522Y1700D01*
X3522Y1702D01*
X3450Y1702D01*
G37*
D02*
G36*
X3450Y1674D02*
X3450Y1672D01*
X4486Y1672D01*
X4486Y1674D01*
X3450Y1674D01*
G37*
D02*
G36*
X3450Y1674D02*
X3450Y1672D01*
X4486Y1672D01*
X4486Y1674D01*
X3450Y1674D01*
G37*
D02*
G36*
X3450Y1672D02*
X3450Y1530D01*
X3452Y1530D01*
X3452Y1422D01*
X3450Y1422D01*
X3450Y1312D01*
X3448Y1312D01*
X3448Y452D01*
X3446Y452D01*
X3446Y444D01*
X3444Y444D01*
X3444Y438D01*
X3442Y438D01*
X3442Y434D01*
X3440Y434D01*
X3440Y432D01*
X3438Y432D01*
X3438Y428D01*
X3436Y428D01*
X3436Y426D01*
X3434Y426D01*
X3434Y422D01*
X3432Y422D01*
X3432Y420D01*
X3430Y420D01*
X3430Y418D01*
X3428Y418D01*
X3428Y416D01*
X3424Y416D01*
X3424Y414D01*
X3422Y414D01*
X3422Y412D01*
X3420Y412D01*
X3420Y410D01*
X3416Y410D01*
X3416Y408D01*
X3412Y408D01*
X3412Y406D01*
X3408Y406D01*
X3408Y404D01*
X3400Y404D01*
X3400Y402D01*
X3350Y402D01*
X3350Y400D01*
X3348Y400D01*
X3348Y398D01*
X3346Y398D01*
X3346Y396D01*
X3344Y396D01*
X3344Y394D01*
X3340Y394D01*
X3340Y392D01*
X3338Y392D01*
X3338Y390D01*
X3336Y390D01*
X3336Y388D01*
X3332Y388D01*
X3332Y386D01*
X3328Y386D01*
X3328Y384D01*
X3324Y384D01*
X3324Y382D01*
X3320Y382D01*
X3320Y380D01*
X3314Y380D01*
X3314Y378D01*
X3308Y378D01*
X3308Y376D01*
X3296Y376D01*
X3296Y374D01*
X4486Y374D01*
X4486Y1672D01*
X3450Y1672D01*
G37*
D02*
G36*
X574Y1652D02*
X574Y1626D01*
X1124Y1626D01*
X1124Y1628D01*
X1126Y1628D01*
X1126Y1630D01*
X1128Y1630D01*
X1128Y1632D01*
X1132Y1632D01*
X1132Y1634D01*
X1134Y1634D01*
X1134Y1636D01*
X1136Y1636D01*
X1136Y1638D01*
X1140Y1638D01*
X1140Y1640D01*
X1142Y1640D01*
X1142Y1642D01*
X1146Y1642D01*
X1146Y1644D01*
X1150Y1644D01*
X1150Y1646D01*
X1156Y1646D01*
X1156Y1648D01*
X1162Y1648D01*
X1162Y1650D01*
X1172Y1650D01*
X1172Y1652D01*
X574Y1652D01*
G37*
D02*
G36*
X1200Y1652D02*
X1200Y1650D01*
X1210Y1650D01*
X1210Y1648D01*
X1216Y1648D01*
X1216Y1646D01*
X1222Y1646D01*
X1222Y1644D01*
X1226Y1644D01*
X1226Y1642D01*
X1246Y1642D01*
X1246Y1644D01*
X1250Y1644D01*
X1250Y1646D01*
X1256Y1646D01*
X1256Y1648D01*
X1262Y1648D01*
X1262Y1650D01*
X1272Y1650D01*
X1272Y1652D01*
X1200Y1652D01*
G37*
D02*
G36*
X1300Y1652D02*
X1300Y1650D01*
X1310Y1650D01*
X1310Y1648D01*
X1316Y1648D01*
X1316Y1646D01*
X1322Y1646D01*
X1322Y1644D01*
X1326Y1644D01*
X1326Y1642D01*
X1346Y1642D01*
X1346Y1644D01*
X1350Y1644D01*
X1350Y1646D01*
X1356Y1646D01*
X1356Y1648D01*
X1362Y1648D01*
X1362Y1650D01*
X1372Y1650D01*
X1372Y1652D01*
X1300Y1652D01*
G37*
D02*
G36*
X1400Y1652D02*
X1400Y1650D01*
X1410Y1650D01*
X1410Y1648D01*
X1416Y1648D01*
X1416Y1646D01*
X1422Y1646D01*
X1422Y1644D01*
X1426Y1644D01*
X1426Y1642D01*
X1446Y1642D01*
X1446Y1644D01*
X1450Y1644D01*
X1450Y1646D01*
X1456Y1646D01*
X1456Y1648D01*
X1462Y1648D01*
X1462Y1650D01*
X1472Y1650D01*
X1472Y1652D01*
X1400Y1652D01*
G37*
D02*
G36*
X1500Y1652D02*
X1500Y1650D01*
X1510Y1650D01*
X1510Y1648D01*
X1516Y1648D01*
X1516Y1646D01*
X1522Y1646D01*
X1522Y1644D01*
X1526Y1644D01*
X1526Y1642D01*
X1546Y1642D01*
X1546Y1644D01*
X1550Y1644D01*
X1550Y1646D01*
X1556Y1646D01*
X1556Y1648D01*
X1562Y1648D01*
X1562Y1650D01*
X1572Y1650D01*
X1572Y1652D01*
X1500Y1652D01*
G37*
D02*
G36*
X1600Y1652D02*
X1600Y1650D01*
X1610Y1650D01*
X1610Y1648D01*
X1616Y1648D01*
X1616Y1646D01*
X1622Y1646D01*
X1622Y1644D01*
X1626Y1644D01*
X1626Y1642D01*
X1646Y1642D01*
X1646Y1644D01*
X1650Y1644D01*
X1650Y1646D01*
X1656Y1646D01*
X1656Y1648D01*
X1662Y1648D01*
X1662Y1650D01*
X1672Y1650D01*
X1672Y1652D01*
X1600Y1652D01*
G37*
D02*
G36*
X1700Y1652D02*
X1700Y1650D01*
X1710Y1650D01*
X1710Y1648D01*
X1716Y1648D01*
X1716Y1646D01*
X1722Y1646D01*
X1722Y1644D01*
X1726Y1644D01*
X1726Y1642D01*
X1746Y1642D01*
X1746Y1644D01*
X1750Y1644D01*
X1750Y1646D01*
X1756Y1646D01*
X1756Y1648D01*
X1762Y1648D01*
X1762Y1650D01*
X1772Y1650D01*
X1772Y1652D01*
X1700Y1652D01*
G37*
D02*
G36*
X1800Y1652D02*
X1800Y1650D01*
X1810Y1650D01*
X1810Y1648D01*
X1816Y1648D01*
X1816Y1646D01*
X1822Y1646D01*
X1822Y1644D01*
X1826Y1644D01*
X1826Y1642D01*
X1846Y1642D01*
X1846Y1644D01*
X1850Y1644D01*
X1850Y1646D01*
X1856Y1646D01*
X1856Y1648D01*
X1862Y1648D01*
X1862Y1650D01*
X1872Y1650D01*
X1872Y1652D01*
X1800Y1652D01*
G37*
D02*
G36*
X1900Y1652D02*
X1900Y1650D01*
X1910Y1650D01*
X1910Y1648D01*
X1916Y1648D01*
X1916Y1646D01*
X1922Y1646D01*
X1922Y1644D01*
X1926Y1644D01*
X1926Y1642D01*
X1946Y1642D01*
X1946Y1644D01*
X1950Y1644D01*
X1950Y1646D01*
X1956Y1646D01*
X1956Y1648D01*
X1962Y1648D01*
X1962Y1650D01*
X1972Y1650D01*
X1972Y1652D01*
X1900Y1652D01*
G37*
D02*
G36*
X2000Y1652D02*
X2000Y1650D01*
X2010Y1650D01*
X2010Y1648D01*
X2016Y1648D01*
X2016Y1646D01*
X2022Y1646D01*
X2022Y1644D01*
X2026Y1644D01*
X2026Y1642D01*
X2046Y1642D01*
X2046Y1644D01*
X2050Y1644D01*
X2050Y1646D01*
X2056Y1646D01*
X2056Y1648D01*
X2062Y1648D01*
X2062Y1650D01*
X2072Y1650D01*
X2072Y1652D01*
X2000Y1652D01*
G37*
D02*
G36*
X2100Y1652D02*
X2100Y1650D01*
X2110Y1650D01*
X2110Y1648D01*
X2116Y1648D01*
X2116Y1646D01*
X2122Y1646D01*
X2122Y1644D01*
X2126Y1644D01*
X2126Y1642D01*
X2146Y1642D01*
X2146Y1644D01*
X2150Y1644D01*
X2150Y1646D01*
X2156Y1646D01*
X2156Y1648D01*
X2162Y1648D01*
X2162Y1650D01*
X2172Y1650D01*
X2172Y1652D01*
X2100Y1652D01*
G37*
D02*
G36*
X2200Y1652D02*
X2200Y1650D01*
X2210Y1650D01*
X2210Y1648D01*
X2216Y1648D01*
X2216Y1646D01*
X2222Y1646D01*
X2222Y1644D01*
X2226Y1644D01*
X2226Y1642D01*
X2246Y1642D01*
X2246Y1644D01*
X2250Y1644D01*
X2250Y1646D01*
X2256Y1646D01*
X2256Y1648D01*
X2262Y1648D01*
X2262Y1650D01*
X2272Y1650D01*
X2272Y1652D01*
X2200Y1652D01*
G37*
D02*
G36*
X2300Y1652D02*
X2300Y1650D01*
X2310Y1650D01*
X2310Y1648D01*
X2316Y1648D01*
X2316Y1646D01*
X2322Y1646D01*
X2322Y1644D01*
X2326Y1644D01*
X2326Y1642D01*
X2346Y1642D01*
X2346Y1644D01*
X2350Y1644D01*
X2350Y1646D01*
X2356Y1646D01*
X2356Y1648D01*
X2362Y1648D01*
X2362Y1650D01*
X2372Y1650D01*
X2372Y1652D01*
X2300Y1652D01*
G37*
D02*
G36*
X2400Y1652D02*
X2400Y1650D01*
X2410Y1650D01*
X2410Y1648D01*
X2416Y1648D01*
X2416Y1646D01*
X2422Y1646D01*
X2422Y1644D01*
X2426Y1644D01*
X2426Y1642D01*
X2446Y1642D01*
X2446Y1644D01*
X2450Y1644D01*
X2450Y1646D01*
X2456Y1646D01*
X2456Y1648D01*
X2462Y1648D01*
X2462Y1650D01*
X2472Y1650D01*
X2472Y1652D01*
X2400Y1652D01*
G37*
D02*
G36*
X2500Y1652D02*
X2500Y1650D01*
X2510Y1650D01*
X2510Y1648D01*
X2516Y1648D01*
X2516Y1646D01*
X2522Y1646D01*
X2522Y1644D01*
X2526Y1644D01*
X2526Y1642D01*
X2546Y1642D01*
X2546Y1644D01*
X2550Y1644D01*
X2550Y1646D01*
X2556Y1646D01*
X2556Y1648D01*
X2562Y1648D01*
X2562Y1650D01*
X2572Y1650D01*
X2572Y1652D01*
X2500Y1652D01*
G37*
D02*
G36*
X550Y1502D02*
X550Y1500D01*
X548Y1500D01*
X548Y1498D01*
X546Y1498D01*
X546Y1496D01*
X544Y1496D01*
X544Y1494D01*
X540Y1494D01*
X540Y1492D01*
X538Y1492D01*
X538Y1490D01*
X536Y1490D01*
X536Y1488D01*
X532Y1488D01*
X532Y1486D01*
X528Y1486D01*
X528Y1484D01*
X524Y1484D01*
X524Y1482D01*
X520Y1482D01*
X520Y1480D01*
X514Y1480D01*
X514Y1478D01*
X508Y1478D01*
X508Y1476D01*
X496Y1476D01*
X496Y1474D01*
X1176Y1474D01*
X1176Y1476D01*
X1164Y1476D01*
X1164Y1478D01*
X1158Y1478D01*
X1158Y1480D01*
X1152Y1480D01*
X1152Y1482D01*
X1148Y1482D01*
X1148Y1484D01*
X1144Y1484D01*
X1144Y1486D01*
X1140Y1486D01*
X1140Y1488D01*
X1138Y1488D01*
X1138Y1490D01*
X1134Y1490D01*
X1134Y1492D01*
X1132Y1492D01*
X1132Y1494D01*
X1130Y1494D01*
X1130Y1496D01*
X1126Y1496D01*
X1126Y1498D01*
X1124Y1498D01*
X1124Y1500D01*
X1122Y1500D01*
X1122Y1502D01*
X550Y1502D01*
G37*
D02*
G36*
X1224Y1484D02*
X1224Y1482D01*
X1220Y1482D01*
X1220Y1480D01*
X1214Y1480D01*
X1214Y1478D01*
X1208Y1478D01*
X1208Y1476D01*
X1196Y1476D01*
X1196Y1474D01*
X1276Y1474D01*
X1276Y1476D01*
X1264Y1476D01*
X1264Y1478D01*
X1258Y1478D01*
X1258Y1480D01*
X1252Y1480D01*
X1252Y1482D01*
X1248Y1482D01*
X1248Y1484D01*
X1224Y1484D01*
G37*
D02*
G36*
X1324Y1484D02*
X1324Y1482D01*
X1320Y1482D01*
X1320Y1480D01*
X1314Y1480D01*
X1314Y1478D01*
X1308Y1478D01*
X1308Y1476D01*
X1296Y1476D01*
X1296Y1474D01*
X1376Y1474D01*
X1376Y1476D01*
X1364Y1476D01*
X1364Y1478D01*
X1358Y1478D01*
X1358Y1480D01*
X1352Y1480D01*
X1352Y1482D01*
X1348Y1482D01*
X1348Y1484D01*
X1324Y1484D01*
G37*
D02*
G36*
X1424Y1484D02*
X1424Y1482D01*
X1420Y1482D01*
X1420Y1480D01*
X1414Y1480D01*
X1414Y1478D01*
X1408Y1478D01*
X1408Y1476D01*
X1396Y1476D01*
X1396Y1474D01*
X1476Y1474D01*
X1476Y1476D01*
X1464Y1476D01*
X1464Y1478D01*
X1458Y1478D01*
X1458Y1480D01*
X1452Y1480D01*
X1452Y1482D01*
X1448Y1482D01*
X1448Y1484D01*
X1424Y1484D01*
G37*
D02*
G36*
X1524Y1484D02*
X1524Y1482D01*
X1520Y1482D01*
X1520Y1480D01*
X1514Y1480D01*
X1514Y1478D01*
X1508Y1478D01*
X1508Y1476D01*
X1496Y1476D01*
X1496Y1474D01*
X1576Y1474D01*
X1576Y1476D01*
X1564Y1476D01*
X1564Y1478D01*
X1558Y1478D01*
X1558Y1480D01*
X1552Y1480D01*
X1552Y1482D01*
X1548Y1482D01*
X1548Y1484D01*
X1524Y1484D01*
G37*
D02*
G36*
X1624Y1484D02*
X1624Y1482D01*
X1620Y1482D01*
X1620Y1480D01*
X1614Y1480D01*
X1614Y1478D01*
X1608Y1478D01*
X1608Y1476D01*
X1596Y1476D01*
X1596Y1474D01*
X1676Y1474D01*
X1676Y1476D01*
X1664Y1476D01*
X1664Y1478D01*
X1658Y1478D01*
X1658Y1480D01*
X1652Y1480D01*
X1652Y1482D01*
X1648Y1482D01*
X1648Y1484D01*
X1624Y1484D01*
G37*
D02*
G36*
X1724Y1484D02*
X1724Y1482D01*
X1720Y1482D01*
X1720Y1480D01*
X1714Y1480D01*
X1714Y1478D01*
X1708Y1478D01*
X1708Y1476D01*
X1696Y1476D01*
X1696Y1474D01*
X1776Y1474D01*
X1776Y1476D01*
X1764Y1476D01*
X1764Y1478D01*
X1758Y1478D01*
X1758Y1480D01*
X1752Y1480D01*
X1752Y1482D01*
X1748Y1482D01*
X1748Y1484D01*
X1724Y1484D01*
G37*
D02*
G36*
X1824Y1484D02*
X1824Y1482D01*
X1820Y1482D01*
X1820Y1480D01*
X1814Y1480D01*
X1814Y1478D01*
X1808Y1478D01*
X1808Y1476D01*
X1796Y1476D01*
X1796Y1474D01*
X1876Y1474D01*
X1876Y1476D01*
X1864Y1476D01*
X1864Y1478D01*
X1858Y1478D01*
X1858Y1480D01*
X1852Y1480D01*
X1852Y1482D01*
X1848Y1482D01*
X1848Y1484D01*
X1824Y1484D01*
G37*
D02*
G36*
X1924Y1484D02*
X1924Y1482D01*
X1920Y1482D01*
X1920Y1480D01*
X1914Y1480D01*
X1914Y1478D01*
X1908Y1478D01*
X1908Y1476D01*
X1896Y1476D01*
X1896Y1474D01*
X1976Y1474D01*
X1976Y1476D01*
X1964Y1476D01*
X1964Y1478D01*
X1958Y1478D01*
X1958Y1480D01*
X1952Y1480D01*
X1952Y1482D01*
X1948Y1482D01*
X1948Y1484D01*
X1924Y1484D01*
G37*
D02*
G36*
X2024Y1484D02*
X2024Y1482D01*
X2020Y1482D01*
X2020Y1480D01*
X2014Y1480D01*
X2014Y1478D01*
X2008Y1478D01*
X2008Y1476D01*
X1996Y1476D01*
X1996Y1474D01*
X2076Y1474D01*
X2076Y1476D01*
X2064Y1476D01*
X2064Y1478D01*
X2058Y1478D01*
X2058Y1480D01*
X2052Y1480D01*
X2052Y1482D01*
X2048Y1482D01*
X2048Y1484D01*
X2024Y1484D01*
G37*
D02*
G36*
X2124Y1484D02*
X2124Y1482D01*
X2120Y1482D01*
X2120Y1480D01*
X2114Y1480D01*
X2114Y1478D01*
X2108Y1478D01*
X2108Y1476D01*
X2096Y1476D01*
X2096Y1474D01*
X2176Y1474D01*
X2176Y1476D01*
X2164Y1476D01*
X2164Y1478D01*
X2158Y1478D01*
X2158Y1480D01*
X2152Y1480D01*
X2152Y1482D01*
X2148Y1482D01*
X2148Y1484D01*
X2124Y1484D01*
G37*
D02*
G36*
X2224Y1484D02*
X2224Y1482D01*
X2220Y1482D01*
X2220Y1480D01*
X2214Y1480D01*
X2214Y1478D01*
X2208Y1478D01*
X2208Y1476D01*
X2196Y1476D01*
X2196Y1474D01*
X2276Y1474D01*
X2276Y1476D01*
X2264Y1476D01*
X2264Y1478D01*
X2258Y1478D01*
X2258Y1480D01*
X2252Y1480D01*
X2252Y1482D01*
X2248Y1482D01*
X2248Y1484D01*
X2224Y1484D01*
G37*
D02*
G36*
X2324Y1484D02*
X2324Y1482D01*
X2320Y1482D01*
X2320Y1480D01*
X2314Y1480D01*
X2314Y1478D01*
X2308Y1478D01*
X2308Y1476D01*
X2296Y1476D01*
X2296Y1474D01*
X2376Y1474D01*
X2376Y1476D01*
X2364Y1476D01*
X2364Y1478D01*
X2358Y1478D01*
X2358Y1480D01*
X2352Y1480D01*
X2352Y1482D01*
X2348Y1482D01*
X2348Y1484D01*
X2324Y1484D01*
G37*
D02*
G36*
X2424Y1484D02*
X2424Y1482D01*
X2420Y1482D01*
X2420Y1480D01*
X2414Y1480D01*
X2414Y1478D01*
X2408Y1478D01*
X2408Y1476D01*
X2396Y1476D01*
X2396Y1474D01*
X2476Y1474D01*
X2476Y1476D01*
X2464Y1476D01*
X2464Y1478D01*
X2458Y1478D01*
X2458Y1480D01*
X2452Y1480D01*
X2452Y1482D01*
X2448Y1482D01*
X2448Y1484D01*
X2424Y1484D01*
G37*
D02*
G36*
X2524Y1484D02*
X2524Y1482D01*
X2520Y1482D01*
X2520Y1480D01*
X2514Y1480D01*
X2514Y1478D01*
X2508Y1478D01*
X2508Y1476D01*
X2496Y1476D01*
X2496Y1474D01*
X2576Y1474D01*
X2576Y1476D01*
X2564Y1476D01*
X2564Y1478D01*
X2558Y1478D01*
X2558Y1480D01*
X2552Y1480D01*
X2552Y1482D01*
X2548Y1482D01*
X2548Y1484D01*
X2524Y1484D01*
G37*
D02*
G36*
X40Y1474D02*
X40Y1472D01*
X2724Y1472D01*
X2724Y1474D01*
X40Y1474D01*
G37*
D02*
G36*
X40Y1474D02*
X40Y1472D01*
X2724Y1472D01*
X2724Y1474D01*
X40Y1474D01*
G37*
D02*
G36*
X40Y1474D02*
X40Y1472D01*
X2724Y1472D01*
X2724Y1474D01*
X40Y1474D01*
G37*
D02*
G36*
X40Y1474D02*
X40Y1472D01*
X2724Y1472D01*
X2724Y1474D01*
X40Y1474D01*
G37*
D02*
G36*
X40Y1474D02*
X40Y1472D01*
X2724Y1472D01*
X2724Y1474D01*
X40Y1474D01*
G37*
D02*
G36*
X40Y1474D02*
X40Y1472D01*
X2724Y1472D01*
X2724Y1474D01*
X40Y1474D01*
G37*
D02*
G36*
X40Y1474D02*
X40Y1472D01*
X2724Y1472D01*
X2724Y1474D01*
X40Y1474D01*
G37*
D02*
G36*
X40Y1474D02*
X40Y1472D01*
X2724Y1472D01*
X2724Y1474D01*
X40Y1474D01*
G37*
D02*
G36*
X40Y1474D02*
X40Y1472D01*
X2724Y1472D01*
X2724Y1474D01*
X40Y1474D01*
G37*
D02*
G36*
X40Y1474D02*
X40Y1472D01*
X2724Y1472D01*
X2724Y1474D01*
X40Y1474D01*
G37*
D02*
G36*
X40Y1474D02*
X40Y1472D01*
X2724Y1472D01*
X2724Y1474D01*
X40Y1474D01*
G37*
D02*
G36*
X40Y1474D02*
X40Y1472D01*
X2724Y1472D01*
X2724Y1474D01*
X40Y1474D01*
G37*
D02*
G36*
X40Y1474D02*
X40Y1472D01*
X2724Y1472D01*
X2724Y1474D01*
X40Y1474D01*
G37*
D02*
G36*
X40Y1474D02*
X40Y1472D01*
X2724Y1472D01*
X2724Y1474D01*
X40Y1474D01*
G37*
D02*
G36*
X40Y1474D02*
X40Y1472D01*
X2724Y1472D01*
X2724Y1474D01*
X40Y1474D01*
G37*
D02*
G36*
X40Y1474D02*
X40Y1472D01*
X2724Y1472D01*
X2724Y1474D01*
X40Y1474D01*
G37*
D02*
G36*
X40Y1474D02*
X40Y1472D01*
X2724Y1472D01*
X2724Y1474D01*
X40Y1474D01*
G37*
D02*
G36*
X40Y1472D02*
X40Y826D01*
X1892Y826D01*
X1892Y824D01*
X1902Y824D01*
X1902Y822D01*
X1908Y822D01*
X1908Y820D01*
X1914Y820D01*
X1914Y818D01*
X1916Y818D01*
X1916Y816D01*
X1920Y816D01*
X1920Y814D01*
X1922Y814D01*
X1922Y812D01*
X1926Y812D01*
X1926Y810D01*
X1928Y810D01*
X1928Y808D01*
X1930Y808D01*
X1930Y806D01*
X1932Y806D01*
X1932Y804D01*
X1934Y804D01*
X1934Y802D01*
X1936Y802D01*
X1936Y798D01*
X1938Y798D01*
X1938Y796D01*
X1940Y796D01*
X1940Y792D01*
X1942Y792D01*
X1942Y788D01*
X1944Y788D01*
X1944Y782D01*
X1946Y782D01*
X1946Y774D01*
X1948Y774D01*
X1948Y552D01*
X2300Y552D01*
X2300Y550D01*
X2310Y550D01*
X2310Y548D01*
X2316Y548D01*
X2316Y546D01*
X2322Y546D01*
X2322Y544D01*
X2326Y544D01*
X2326Y542D01*
X2346Y542D01*
X2346Y544D01*
X2350Y544D01*
X2350Y546D01*
X2356Y546D01*
X2356Y548D01*
X2362Y548D01*
X2362Y550D01*
X2372Y550D01*
X2372Y552D01*
X2388Y552D01*
X2388Y554D01*
X2390Y554D01*
X2390Y556D01*
X2392Y556D01*
X2392Y558D01*
X2394Y558D01*
X2394Y560D01*
X2396Y560D01*
X2396Y562D01*
X2398Y562D01*
X2398Y564D01*
X2400Y564D01*
X2400Y566D01*
X2402Y566D01*
X2402Y568D01*
X2404Y568D01*
X2404Y570D01*
X2406Y570D01*
X2406Y572D01*
X2408Y572D01*
X2408Y574D01*
X2410Y574D01*
X2410Y576D01*
X2412Y576D01*
X2412Y578D01*
X2414Y578D01*
X2414Y580D01*
X2416Y580D01*
X2416Y582D01*
X2418Y582D01*
X2418Y584D01*
X2420Y584D01*
X2420Y586D01*
X2422Y586D01*
X2422Y588D01*
X2424Y588D01*
X2424Y590D01*
X2426Y590D01*
X2426Y592D01*
X2428Y592D01*
X2428Y594D01*
X2430Y594D01*
X2430Y596D01*
X2432Y596D01*
X2432Y598D01*
X2434Y598D01*
X2434Y600D01*
X2436Y600D01*
X2436Y602D01*
X2438Y602D01*
X2438Y604D01*
X2440Y604D01*
X2440Y606D01*
X2442Y606D01*
X2442Y608D01*
X2444Y608D01*
X2444Y610D01*
X2446Y610D01*
X2446Y612D01*
X2448Y612D01*
X2448Y614D01*
X2450Y614D01*
X2450Y616D01*
X2452Y616D01*
X2452Y618D01*
X2454Y618D01*
X2454Y620D01*
X2456Y620D01*
X2456Y622D01*
X2458Y622D01*
X2458Y624D01*
X2460Y624D01*
X2460Y626D01*
X2462Y626D01*
X2462Y628D01*
X2464Y628D01*
X2464Y630D01*
X2466Y630D01*
X2466Y632D01*
X2468Y632D01*
X2468Y634D01*
X2470Y634D01*
X2470Y636D01*
X2472Y636D01*
X2472Y638D01*
X2474Y638D01*
X2474Y640D01*
X2476Y640D01*
X2476Y642D01*
X2478Y642D01*
X2478Y644D01*
X2480Y644D01*
X2480Y646D01*
X2482Y646D01*
X2482Y648D01*
X2484Y648D01*
X2484Y650D01*
X2486Y650D01*
X2486Y652D01*
X2488Y652D01*
X2488Y654D01*
X2490Y654D01*
X2490Y656D01*
X2492Y656D01*
X2492Y658D01*
X2494Y658D01*
X2494Y660D01*
X2496Y660D01*
X2496Y662D01*
X2498Y662D01*
X2498Y664D01*
X2500Y664D01*
X2500Y666D01*
X2502Y666D01*
X2502Y668D01*
X2504Y668D01*
X2504Y670D01*
X2506Y670D01*
X2506Y672D01*
X2508Y672D01*
X2508Y674D01*
X2510Y674D01*
X2510Y676D01*
X2512Y676D01*
X2512Y678D01*
X2514Y678D01*
X2514Y680D01*
X2516Y680D01*
X2516Y682D01*
X2518Y682D01*
X2518Y684D01*
X2520Y684D01*
X2520Y686D01*
X2522Y686D01*
X2522Y688D01*
X2524Y688D01*
X2524Y690D01*
X2526Y690D01*
X2526Y692D01*
X2528Y692D01*
X2528Y694D01*
X2530Y694D01*
X2530Y696D01*
X2532Y696D01*
X2532Y698D01*
X2534Y698D01*
X2534Y700D01*
X2536Y700D01*
X2536Y702D01*
X2538Y702D01*
X2538Y704D01*
X2540Y704D01*
X2540Y706D01*
X2542Y706D01*
X2542Y708D01*
X2544Y708D01*
X2544Y710D01*
X2546Y710D01*
X2546Y712D01*
X2548Y712D01*
X2548Y714D01*
X2550Y714D01*
X2550Y716D01*
X2552Y716D01*
X2552Y718D01*
X2554Y718D01*
X2554Y720D01*
X2556Y720D01*
X2556Y722D01*
X2558Y722D01*
X2558Y724D01*
X2560Y724D01*
X2560Y726D01*
X2562Y726D01*
X2562Y728D01*
X2564Y728D01*
X2564Y730D01*
X2566Y730D01*
X2566Y732D01*
X2568Y732D01*
X2568Y734D01*
X2570Y734D01*
X2570Y736D01*
X2572Y736D01*
X2572Y738D01*
X2574Y738D01*
X2574Y740D01*
X2576Y740D01*
X2576Y742D01*
X2578Y742D01*
X2578Y744D01*
X2580Y744D01*
X2580Y746D01*
X2582Y746D01*
X2582Y748D01*
X2584Y748D01*
X2584Y750D01*
X2586Y750D01*
X2586Y752D01*
X2588Y752D01*
X2588Y754D01*
X2590Y754D01*
X2590Y756D01*
X2592Y756D01*
X2592Y758D01*
X2594Y758D01*
X2594Y760D01*
X2596Y760D01*
X2596Y762D01*
X2598Y762D01*
X2598Y764D01*
X2600Y764D01*
X2600Y766D01*
X2602Y766D01*
X2602Y768D01*
X2604Y768D01*
X2604Y770D01*
X2606Y770D01*
X2606Y772D01*
X2608Y772D01*
X2608Y774D01*
X2610Y774D01*
X2610Y776D01*
X2612Y776D01*
X2612Y778D01*
X2614Y778D01*
X2614Y780D01*
X2616Y780D01*
X2616Y782D01*
X2618Y782D01*
X2618Y784D01*
X2620Y784D01*
X2620Y786D01*
X2622Y786D01*
X2622Y788D01*
X2624Y788D01*
X2624Y790D01*
X2626Y790D01*
X2626Y792D01*
X2628Y792D01*
X2628Y794D01*
X2630Y794D01*
X2630Y796D01*
X2632Y796D01*
X2632Y798D01*
X2634Y798D01*
X2634Y800D01*
X2636Y800D01*
X2636Y802D01*
X2638Y802D01*
X2638Y804D01*
X2640Y804D01*
X2640Y806D01*
X2642Y806D01*
X2642Y808D01*
X2644Y808D01*
X2644Y810D01*
X2646Y810D01*
X2646Y812D01*
X2648Y812D01*
X2648Y814D01*
X2650Y814D01*
X2650Y816D01*
X2652Y816D01*
X2652Y818D01*
X2654Y818D01*
X2654Y820D01*
X2656Y820D01*
X2656Y822D01*
X2658Y822D01*
X2658Y824D01*
X2660Y824D01*
X2660Y826D01*
X2662Y826D01*
X2662Y828D01*
X2664Y828D01*
X2664Y830D01*
X2666Y830D01*
X2666Y832D01*
X2668Y832D01*
X2668Y834D01*
X2670Y834D01*
X2670Y836D01*
X2672Y836D01*
X2672Y838D01*
X2674Y838D01*
X2674Y840D01*
X2676Y840D01*
X2676Y842D01*
X2678Y842D01*
X2678Y844D01*
X2680Y844D01*
X2680Y846D01*
X2682Y846D01*
X2682Y848D01*
X2684Y848D01*
X2684Y850D01*
X2686Y850D01*
X2686Y852D01*
X2688Y852D01*
X2688Y854D01*
X2690Y854D01*
X2690Y856D01*
X2692Y856D01*
X2692Y858D01*
X2694Y858D01*
X2694Y860D01*
X2696Y860D01*
X2696Y862D01*
X2698Y862D01*
X2698Y864D01*
X2700Y864D01*
X2700Y866D01*
X2702Y866D01*
X2702Y868D01*
X2704Y868D01*
X2704Y870D01*
X2706Y870D01*
X2706Y872D01*
X2708Y872D01*
X2708Y874D01*
X2710Y874D01*
X2710Y876D01*
X2712Y876D01*
X2712Y878D01*
X2714Y878D01*
X2714Y880D01*
X2716Y880D01*
X2716Y882D01*
X2718Y882D01*
X2718Y884D01*
X2720Y884D01*
X2720Y886D01*
X2722Y886D01*
X2722Y888D01*
X2724Y888D01*
X2724Y1472D01*
X40Y1472D01*
G37*
D02*
G36*
X40Y826D02*
X40Y174D01*
X876Y174D01*
X876Y176D01*
X864Y176D01*
X864Y178D01*
X858Y178D01*
X858Y180D01*
X852Y180D01*
X852Y182D01*
X848Y182D01*
X848Y184D01*
X844Y184D01*
X844Y186D01*
X840Y186D01*
X840Y188D01*
X838Y188D01*
X838Y190D01*
X834Y190D01*
X834Y192D01*
X832Y192D01*
X832Y194D01*
X830Y194D01*
X830Y196D01*
X826Y196D01*
X826Y198D01*
X824Y198D01*
X824Y200D01*
X822Y200D01*
X822Y202D01*
X820Y202D01*
X820Y204D01*
X818Y204D01*
X818Y208D01*
X816Y208D01*
X816Y210D01*
X814Y210D01*
X814Y212D01*
X812Y212D01*
X812Y216D01*
X810Y216D01*
X810Y220D01*
X808Y220D01*
X808Y222D01*
X806Y222D01*
X806Y226D01*
X804Y226D01*
X804Y232D01*
X802Y232D01*
X802Y238D01*
X800Y238D01*
X800Y246D01*
X798Y246D01*
X798Y282D01*
X800Y282D01*
X800Y290D01*
X802Y290D01*
X802Y294D01*
X804Y294D01*
X804Y300D01*
X806Y300D01*
X806Y304D01*
X808Y304D01*
X808Y308D01*
X810Y308D01*
X810Y310D01*
X812Y310D01*
X812Y314D01*
X814Y314D01*
X814Y316D01*
X816Y316D01*
X816Y320D01*
X818Y320D01*
X818Y322D01*
X820Y322D01*
X820Y324D01*
X822Y324D01*
X822Y326D01*
X824Y326D01*
X824Y328D01*
X826Y328D01*
X826Y352D01*
X824Y352D01*
X824Y774D01*
X826Y774D01*
X826Y782D01*
X828Y782D01*
X828Y788D01*
X830Y788D01*
X830Y792D01*
X832Y792D01*
X832Y796D01*
X834Y796D01*
X834Y798D01*
X836Y798D01*
X836Y802D01*
X838Y802D01*
X838Y804D01*
X840Y804D01*
X840Y806D01*
X842Y806D01*
X842Y808D01*
X844Y808D01*
X844Y810D01*
X846Y810D01*
X846Y812D01*
X850Y812D01*
X850Y814D01*
X852Y814D01*
X852Y816D01*
X856Y816D01*
X856Y818D01*
X860Y818D01*
X860Y820D01*
X864Y820D01*
X864Y822D01*
X870Y822D01*
X870Y824D01*
X880Y824D01*
X880Y826D01*
X40Y826D01*
G37*
D02*
G36*
X1948Y552D02*
X1948Y550D01*
X1972Y550D01*
X1972Y552D01*
X1948Y552D01*
G37*
D02*
G36*
X2000Y552D02*
X2000Y550D01*
X2010Y550D01*
X2010Y548D01*
X2016Y548D01*
X2016Y546D01*
X2022Y546D01*
X2022Y544D01*
X2026Y544D01*
X2026Y542D01*
X2046Y542D01*
X2046Y544D01*
X2050Y544D01*
X2050Y546D01*
X2056Y546D01*
X2056Y548D01*
X2062Y548D01*
X2062Y550D01*
X2072Y550D01*
X2072Y552D01*
X2000Y552D01*
G37*
D02*
G36*
X2100Y552D02*
X2100Y550D01*
X2110Y550D01*
X2110Y548D01*
X2116Y548D01*
X2116Y546D01*
X2122Y546D01*
X2122Y544D01*
X2126Y544D01*
X2126Y542D01*
X2146Y542D01*
X2146Y544D01*
X2150Y544D01*
X2150Y546D01*
X2156Y546D01*
X2156Y548D01*
X2162Y548D01*
X2162Y550D01*
X2172Y550D01*
X2172Y552D01*
X2100Y552D01*
G37*
D02*
G36*
X2200Y552D02*
X2200Y550D01*
X2210Y550D01*
X2210Y548D01*
X2216Y548D01*
X2216Y546D01*
X2222Y546D01*
X2222Y544D01*
X2226Y544D01*
X2226Y542D01*
X2246Y542D01*
X2246Y544D01*
X2250Y544D01*
X2250Y546D01*
X2256Y546D01*
X2256Y548D01*
X2262Y548D01*
X2262Y550D01*
X2272Y550D01*
X2272Y552D01*
X2200Y552D01*
G37*
D02*
G36*
X3186Y426D02*
X3186Y422D01*
X3184Y422D01*
X3184Y418D01*
X3182Y418D01*
X3182Y414D01*
X3180Y414D01*
X3180Y410D01*
X3178Y410D01*
X3178Y406D01*
X3176Y406D01*
X3176Y402D01*
X3174Y402D01*
X3174Y398D01*
X3172Y398D01*
X3172Y394D01*
X3170Y394D01*
X3170Y390D01*
X3168Y390D01*
X3168Y386D01*
X3166Y386D01*
X3166Y382D01*
X3164Y382D01*
X3164Y378D01*
X3162Y378D01*
X3162Y374D01*
X3276Y374D01*
X3276Y376D01*
X3264Y376D01*
X3264Y378D01*
X3258Y378D01*
X3258Y380D01*
X3252Y380D01*
X3252Y382D01*
X3248Y382D01*
X3248Y384D01*
X3244Y384D01*
X3244Y386D01*
X3240Y386D01*
X3240Y388D01*
X3238Y388D01*
X3238Y390D01*
X3234Y390D01*
X3234Y392D01*
X3232Y392D01*
X3232Y394D01*
X3230Y394D01*
X3230Y396D01*
X3226Y396D01*
X3226Y398D01*
X3224Y398D01*
X3224Y400D01*
X3222Y400D01*
X3222Y402D01*
X3220Y402D01*
X3220Y404D01*
X3218Y404D01*
X3218Y408D01*
X3216Y408D01*
X3216Y410D01*
X3214Y410D01*
X3214Y412D01*
X3212Y412D01*
X3212Y416D01*
X3210Y416D01*
X3210Y420D01*
X3208Y420D01*
X3208Y422D01*
X3206Y422D01*
X3206Y426D01*
X3186Y426D01*
G37*
D02*
G36*
X1924Y384D02*
X1924Y382D01*
X1920Y382D01*
X1920Y380D01*
X1914Y380D01*
X1914Y378D01*
X1908Y378D01*
X1908Y376D01*
X1896Y376D01*
X1896Y374D01*
X1976Y374D01*
X1976Y376D01*
X1964Y376D01*
X1964Y378D01*
X1958Y378D01*
X1958Y380D01*
X1952Y380D01*
X1952Y382D01*
X1948Y382D01*
X1948Y384D01*
X1924Y384D01*
G37*
D02*
G36*
X2024Y384D02*
X2024Y382D01*
X2020Y382D01*
X2020Y380D01*
X2014Y380D01*
X2014Y378D01*
X2008Y378D01*
X2008Y376D01*
X1996Y376D01*
X1996Y374D01*
X2076Y374D01*
X2076Y376D01*
X2064Y376D01*
X2064Y378D01*
X2058Y378D01*
X2058Y380D01*
X2052Y380D01*
X2052Y382D01*
X2048Y382D01*
X2048Y384D01*
X2024Y384D01*
G37*
D02*
G36*
X2124Y384D02*
X2124Y382D01*
X2120Y382D01*
X2120Y380D01*
X2114Y380D01*
X2114Y378D01*
X2108Y378D01*
X2108Y376D01*
X2096Y376D01*
X2096Y374D01*
X2176Y374D01*
X2176Y376D01*
X2164Y376D01*
X2164Y378D01*
X2158Y378D01*
X2158Y380D01*
X2152Y380D01*
X2152Y382D01*
X2148Y382D01*
X2148Y384D01*
X2124Y384D01*
G37*
D02*
G36*
X2224Y384D02*
X2224Y382D01*
X2220Y382D01*
X2220Y380D01*
X2214Y380D01*
X2214Y378D01*
X2208Y378D01*
X2208Y376D01*
X2196Y376D01*
X2196Y374D01*
X2276Y374D01*
X2276Y376D01*
X2264Y376D01*
X2264Y378D01*
X2258Y378D01*
X2258Y380D01*
X2252Y380D01*
X2252Y382D01*
X2248Y382D01*
X2248Y384D01*
X2224Y384D01*
G37*
D02*
G36*
X2324Y384D02*
X2324Y382D01*
X2320Y382D01*
X2320Y380D01*
X2314Y380D01*
X2314Y378D01*
X2308Y378D01*
X2308Y376D01*
X2296Y376D01*
X2296Y374D01*
X2376Y374D01*
X2376Y376D01*
X2364Y376D01*
X2364Y378D01*
X2358Y378D01*
X2358Y380D01*
X2352Y380D01*
X2352Y382D01*
X2348Y382D01*
X2348Y384D01*
X2324Y384D01*
G37*
D02*
G36*
X2424Y384D02*
X2424Y382D01*
X2420Y382D01*
X2420Y380D01*
X2414Y380D01*
X2414Y378D01*
X2408Y378D01*
X2408Y376D01*
X2396Y376D01*
X2396Y374D01*
X2476Y374D01*
X2476Y376D01*
X2464Y376D01*
X2464Y378D01*
X2458Y378D01*
X2458Y380D01*
X2452Y380D01*
X2452Y382D01*
X2448Y382D01*
X2448Y384D01*
X2424Y384D01*
G37*
D02*
G36*
X1848Y376D02*
X1848Y374D01*
X1876Y374D01*
X1876Y376D01*
X1848Y376D01*
G37*
D02*
G36*
X1848Y374D02*
X1848Y372D01*
X2488Y372D01*
X2488Y374D01*
X1848Y374D01*
G37*
D02*
G36*
X1848Y374D02*
X1848Y372D01*
X2488Y372D01*
X2488Y374D01*
X1848Y374D01*
G37*
D02*
G36*
X1848Y374D02*
X1848Y372D01*
X2488Y372D01*
X2488Y374D01*
X1848Y374D01*
G37*
D02*
G36*
X1848Y374D02*
X1848Y372D01*
X2488Y372D01*
X2488Y374D01*
X1848Y374D01*
G37*
D02*
G36*
X1848Y374D02*
X1848Y372D01*
X2488Y372D01*
X2488Y374D01*
X1848Y374D01*
G37*
D02*
G36*
X1848Y374D02*
X1848Y372D01*
X2488Y372D01*
X2488Y374D01*
X1848Y374D01*
G37*
D02*
G36*
X1848Y374D02*
X1848Y372D01*
X2488Y372D01*
X2488Y374D01*
X1848Y374D01*
G37*
D02*
G36*
X3160Y374D02*
X3160Y372D01*
X4486Y372D01*
X4486Y374D01*
X3160Y374D01*
G37*
D02*
G36*
X3160Y374D02*
X3160Y372D01*
X4486Y372D01*
X4486Y374D01*
X3160Y374D01*
G37*
D02*
G36*
X1848Y372D02*
X1848Y302D01*
X2572Y302D01*
X2572Y304D01*
X2566Y304D01*
X2566Y306D01*
X2560Y306D01*
X2560Y308D01*
X2556Y308D01*
X2556Y310D01*
X2552Y310D01*
X2552Y312D01*
X2550Y312D01*
X2550Y314D01*
X2548Y314D01*
X2548Y316D01*
X2544Y316D01*
X2544Y318D01*
X2542Y318D01*
X2542Y320D01*
X2540Y320D01*
X2540Y322D01*
X2538Y322D01*
X2538Y324D01*
X2536Y324D01*
X2536Y326D01*
X2534Y326D01*
X2534Y328D01*
X2532Y328D01*
X2532Y330D01*
X2530Y330D01*
X2530Y332D01*
X2528Y332D01*
X2528Y334D01*
X2526Y334D01*
X2526Y336D01*
X2524Y336D01*
X2524Y338D01*
X2522Y338D01*
X2522Y340D01*
X2520Y340D01*
X2520Y342D01*
X2518Y342D01*
X2518Y344D01*
X2516Y344D01*
X2516Y346D01*
X2514Y346D01*
X2514Y348D01*
X2512Y348D01*
X2512Y350D01*
X2510Y350D01*
X2510Y352D01*
X2508Y352D01*
X2508Y354D01*
X2506Y354D01*
X2506Y356D01*
X2504Y356D01*
X2504Y358D01*
X2502Y358D01*
X2502Y360D01*
X2500Y360D01*
X2500Y362D01*
X2498Y362D01*
X2498Y364D01*
X2496Y364D01*
X2496Y366D01*
X2494Y366D01*
X2494Y368D01*
X2492Y368D01*
X2492Y370D01*
X2490Y370D01*
X2490Y372D01*
X1848Y372D01*
G37*
D02*
G36*
X3160Y372D02*
X3160Y370D01*
X3158Y370D01*
X3158Y366D01*
X3156Y366D01*
X3156Y362D01*
X3154Y362D01*
X3154Y358D01*
X3152Y358D01*
X3152Y354D01*
X3150Y354D01*
X3150Y350D01*
X3148Y350D01*
X3148Y346D01*
X3146Y346D01*
X3146Y342D01*
X3144Y342D01*
X3144Y338D01*
X3142Y338D01*
X3142Y334D01*
X3140Y334D01*
X3140Y330D01*
X3138Y330D01*
X3138Y328D01*
X3136Y328D01*
X3136Y326D01*
X3134Y326D01*
X3134Y322D01*
X3132Y322D01*
X3132Y320D01*
X3130Y320D01*
X3130Y318D01*
X3128Y318D01*
X3128Y316D01*
X3124Y316D01*
X3124Y314D01*
X3122Y314D01*
X3122Y312D01*
X3120Y312D01*
X3120Y310D01*
X3116Y310D01*
X3116Y308D01*
X3112Y308D01*
X3112Y306D01*
X3108Y306D01*
X3108Y304D01*
X3100Y304D01*
X3100Y302D01*
X4486Y302D01*
X4486Y372D01*
X3160Y372D01*
G37*
D02*
G36*
X1848Y302D02*
X1848Y300D01*
X4486Y300D01*
X4486Y302D01*
X1848Y302D01*
G37*
D02*
G36*
X1848Y302D02*
X1848Y300D01*
X4486Y300D01*
X4486Y302D01*
X1848Y302D01*
G37*
D02*
G36*
X1848Y300D02*
X1848Y152D01*
X1846Y152D01*
X1846Y144D01*
X1844Y144D01*
X1844Y138D01*
X1842Y138D01*
X1842Y134D01*
X1840Y134D01*
X1840Y132D01*
X1838Y132D01*
X1838Y128D01*
X1836Y128D01*
X1836Y126D01*
X1834Y126D01*
X1834Y122D01*
X1832Y122D01*
X1832Y120D01*
X1830Y120D01*
X1830Y118D01*
X1828Y118D01*
X1828Y116D01*
X1824Y116D01*
X1824Y114D01*
X1822Y114D01*
X1822Y112D01*
X1820Y112D01*
X1820Y110D01*
X1816Y110D01*
X1816Y108D01*
X1812Y108D01*
X1812Y106D01*
X1808Y106D01*
X1808Y104D01*
X1800Y104D01*
X1800Y102D01*
X4486Y102D01*
X4486Y300D01*
X1848Y300D01*
G37*
D02*
G36*
X924Y184D02*
X924Y182D01*
X920Y182D01*
X920Y180D01*
X914Y180D01*
X914Y178D01*
X908Y178D01*
X908Y176D01*
X896Y176D01*
X896Y174D01*
X976Y174D01*
X976Y176D01*
X964Y176D01*
X964Y178D01*
X958Y178D01*
X958Y180D01*
X952Y180D01*
X952Y182D01*
X948Y182D01*
X948Y184D01*
X924Y184D01*
G37*
D02*
G36*
X1024Y184D02*
X1024Y182D01*
X1020Y182D01*
X1020Y180D01*
X1014Y180D01*
X1014Y178D01*
X1008Y178D01*
X1008Y176D01*
X996Y176D01*
X996Y174D01*
X1076Y174D01*
X1076Y176D01*
X1064Y176D01*
X1064Y178D01*
X1058Y178D01*
X1058Y180D01*
X1052Y180D01*
X1052Y182D01*
X1048Y182D01*
X1048Y184D01*
X1024Y184D01*
G37*
D02*
G36*
X1124Y184D02*
X1124Y182D01*
X1120Y182D01*
X1120Y180D01*
X1114Y180D01*
X1114Y178D01*
X1108Y178D01*
X1108Y176D01*
X1096Y176D01*
X1096Y174D01*
X1176Y174D01*
X1176Y176D01*
X1164Y176D01*
X1164Y178D01*
X1158Y178D01*
X1158Y180D01*
X1152Y180D01*
X1152Y182D01*
X1148Y182D01*
X1148Y184D01*
X1124Y184D01*
G37*
D02*
G36*
X1224Y184D02*
X1224Y182D01*
X1220Y182D01*
X1220Y180D01*
X1214Y180D01*
X1214Y178D01*
X1208Y178D01*
X1208Y176D01*
X1196Y176D01*
X1196Y174D01*
X1276Y174D01*
X1276Y176D01*
X1264Y176D01*
X1264Y178D01*
X1258Y178D01*
X1258Y180D01*
X1252Y180D01*
X1252Y182D01*
X1248Y182D01*
X1248Y184D01*
X1224Y184D01*
G37*
D02*
G36*
X1324Y184D02*
X1324Y182D01*
X1320Y182D01*
X1320Y180D01*
X1314Y180D01*
X1314Y178D01*
X1308Y178D01*
X1308Y176D01*
X1296Y176D01*
X1296Y174D01*
X1376Y174D01*
X1376Y176D01*
X1364Y176D01*
X1364Y178D01*
X1358Y178D01*
X1358Y180D01*
X1352Y180D01*
X1352Y182D01*
X1348Y182D01*
X1348Y184D01*
X1324Y184D01*
G37*
D02*
G36*
X1396Y176D02*
X1396Y174D01*
X1420Y174D01*
X1420Y176D01*
X1396Y176D01*
G37*
D02*
G36*
X40Y174D02*
X40Y172D01*
X1420Y172D01*
X1420Y174D01*
X40Y174D01*
G37*
D02*
G36*
X40Y174D02*
X40Y172D01*
X1420Y172D01*
X1420Y174D01*
X40Y174D01*
G37*
D02*
G36*
X40Y174D02*
X40Y172D01*
X1420Y172D01*
X1420Y174D01*
X40Y174D01*
G37*
D02*
G36*
X40Y174D02*
X40Y172D01*
X1420Y172D01*
X1420Y174D01*
X40Y174D01*
G37*
D02*
G36*
X40Y174D02*
X40Y172D01*
X1420Y172D01*
X1420Y174D01*
X40Y174D01*
G37*
D02*
G36*
X40Y174D02*
X40Y172D01*
X1420Y172D01*
X1420Y174D01*
X40Y174D01*
G37*
D02*
G36*
X40Y174D02*
X40Y172D01*
X1420Y172D01*
X1420Y174D01*
X40Y174D01*
G37*
D02*
G36*
X40Y172D02*
X40Y102D01*
X1468Y102D01*
X1468Y104D01*
X1462Y104D01*
X1462Y106D01*
X1456Y106D01*
X1456Y108D01*
X1452Y108D01*
X1452Y110D01*
X1450Y110D01*
X1450Y112D01*
X1446Y112D01*
X1446Y114D01*
X1444Y114D01*
X1444Y116D01*
X1442Y116D01*
X1442Y118D01*
X1440Y118D01*
X1440Y120D01*
X1438Y120D01*
X1438Y122D01*
X1436Y122D01*
X1436Y124D01*
X1434Y124D01*
X1434Y126D01*
X1432Y126D01*
X1432Y128D01*
X1430Y128D01*
X1430Y132D01*
X1428Y132D01*
X1428Y136D01*
X1426Y136D01*
X1426Y140D01*
X1424Y140D01*
X1424Y146D01*
X1422Y146D01*
X1422Y154D01*
X1420Y154D01*
X1420Y172D01*
X40Y172D01*
G37*
D02*
G36*
X40Y102D02*
X40Y100D01*
X4486Y100D01*
X4486Y102D01*
X40Y102D01*
G37*
D02*
G36*
X40Y102D02*
X40Y100D01*
X4486Y100D01*
X4486Y102D01*
X40Y102D01*
G37*
D02*
G36*
X40Y100D02*
X40Y42D01*
X4486Y42D01*
X4486Y100D01*
X40Y100D01*
G37*
D02*
G36*
X1261Y1656D02*
X1306Y1656D01*
X1306Y1586D01*
X1261Y1586D01*
X1261Y1656D01*
G37*
D02*
G36*
X1261Y1548D02*
X1306Y1548D01*
X1306Y1474D01*
X1261Y1474D01*
X1261Y1548D01*
G37*
D02*
G36*
X1761Y2256D02*
X1806Y2256D01*
X1806Y2184D01*
X1761Y2184D01*
X1761Y2256D01*
G37*
D02*
G36*
X1761Y2146D02*
X1806Y2146D01*
X1806Y2074D01*
X1761Y2074D01*
X1761Y2146D01*
G37*
D02*
G36*
X1661Y2256D02*
X1706Y2256D01*
X1706Y2184D01*
X1661Y2184D01*
X1661Y2256D01*
G37*
D02*
G36*
X1661Y2146D02*
X1706Y2146D01*
X1706Y2074D01*
X1661Y2074D01*
X1661Y2146D01*
G37*
D02*
G36*
X2962Y2054D02*
X3005Y2054D01*
X3005Y1988D01*
X2962Y1988D01*
X2962Y2054D01*
G37*
D02*
G36*
X2962Y1942D02*
X3005Y1942D01*
X3005Y1876D01*
X2962Y1876D01*
X2962Y1942D01*
G37*
D02*
G36*
X3006Y1986D02*
X3074Y1986D01*
X3074Y1943D01*
X3006Y1943D01*
X3006Y1986D01*
G37*
D02*
G36*
X594Y1888D02*
X666Y1888D01*
X666Y1845D01*
X594Y1845D01*
X594Y1888D01*
G37*
D02*
G36*
X1561Y1956D02*
X1606Y1956D01*
X1606Y1886D01*
X1561Y1886D01*
X1561Y1956D01*
G37*
D02*
G36*
X3261Y856D02*
X3306Y856D01*
X3306Y786D01*
X3261Y786D01*
X3261Y856D01*
G37*
D02*
G36*
X3194Y789D02*
X3264Y789D01*
X3264Y744D01*
X3194Y744D01*
X3194Y789D01*
G37*
D02*
G36*
X1463Y2952D02*
X1504Y2952D01*
X1504Y2880D01*
X1463Y2880D01*
X1463Y2952D01*
G37*
D02*
G36*
X1398Y2885D02*
X1468Y2885D01*
X1468Y2844D01*
X1398Y2844D01*
X1398Y2885D01*
G37*
D02*
G36*
X1498Y2885D02*
X1572Y2885D01*
X1572Y2844D01*
X1498Y2844D01*
X1498Y2885D01*
G37*
D02*
G36*
X1162Y2854D02*
X1205Y2854D01*
X1205Y2784D01*
X1162Y2784D01*
X1162Y2854D01*
G37*
D02*
G36*
X1096Y2786D02*
X1164Y2786D01*
X1164Y2743D01*
X1096Y2743D01*
X1096Y2786D01*
G37*
D02*
G36*
X763Y2752D02*
X804Y2752D01*
X804Y2680D01*
X763Y2680D01*
X763Y2752D01*
G37*
D02*
G36*
X698Y2685D02*
X768Y2685D01*
X768Y2644D01*
X698Y2644D01*
X698Y2685D01*
G37*
D02*
G36*
X798Y2685D02*
X872Y2685D01*
X872Y2644D01*
X798Y2644D01*
X798Y2685D01*
G37*
D02*
G36*
X361Y2646D02*
X406Y2646D01*
X406Y2574D01*
X361Y2574D01*
X361Y2646D01*
G37*
D02*
G36*
X294Y2687D02*
X364Y2687D01*
X364Y2642D01*
X294Y2642D01*
X294Y2687D01*
G37*
D02*
G36*
X402Y2687D02*
X476Y2687D01*
X476Y2642D01*
X402Y2642D01*
X402Y2687D01*
G37*
D02*
G54D17*
X1149Y2800D02*
X1222Y2800D01*
X1149Y2799D02*
X1222Y2799D01*
X1149Y2798D02*
X1222Y2798D01*
X1149Y2797D02*
X1222Y2797D01*
X1149Y2796D02*
X1222Y2796D01*
X1149Y2795D02*
X1222Y2795D01*
X1149Y2794D02*
X1222Y2794D01*
X1149Y2793D02*
X1222Y2793D01*
X1149Y2792D02*
X1222Y2792D01*
X1149Y2791D02*
X1222Y2791D01*
X1149Y2790D02*
X1222Y2790D01*
X1149Y2789D02*
X1222Y2789D01*
X1149Y2788D02*
X1222Y2788D01*
X1149Y2787D02*
X1222Y2787D01*
X1149Y2786D02*
X1222Y2786D01*
X1149Y2785D02*
X1222Y2785D01*
X1149Y2784D02*
X1222Y2784D01*
X1149Y2783D02*
X1180Y2783D01*
X1190Y2783D02*
X1222Y2783D01*
X1149Y2782D02*
X1177Y2782D01*
X1193Y2782D02*
X1222Y2782D01*
X1149Y2781D02*
X1175Y2781D01*
X1195Y2781D02*
X1222Y2781D01*
X1149Y2780D02*
X1174Y2780D01*
X1197Y2780D02*
X1222Y2780D01*
X1149Y2779D02*
X1172Y2779D01*
X1198Y2779D02*
X1222Y2779D01*
X1149Y2778D02*
X1171Y2778D01*
X1200Y2778D02*
X1222Y2778D01*
X1149Y2777D02*
X1170Y2777D01*
X1200Y2777D02*
X1222Y2777D01*
X1149Y2776D02*
X1170Y2776D01*
X1201Y2776D02*
X1222Y2776D01*
X1149Y2775D02*
X1169Y2775D01*
X1202Y2775D02*
X1222Y2775D01*
X1149Y2774D02*
X1168Y2774D01*
X1203Y2774D02*
X1222Y2774D01*
X1149Y2773D02*
X1168Y2773D01*
X1203Y2773D02*
X1222Y2773D01*
X1149Y2772D02*
X1167Y2772D01*
X1204Y2772D02*
X1222Y2772D01*
X1149Y2771D02*
X1167Y2771D01*
X1204Y2771D02*
X1222Y2771D01*
X1149Y2770D02*
X1166Y2770D01*
X1205Y2770D02*
X1222Y2770D01*
X1149Y2769D02*
X1166Y2769D01*
X1205Y2769D02*
X1222Y2769D01*
X1149Y2768D02*
X1166Y2768D01*
X1205Y2768D02*
X1222Y2768D01*
X1149Y2767D02*
X1166Y2767D01*
X1205Y2767D02*
X1222Y2767D01*
X1149Y2766D02*
X1165Y2766D01*
X1205Y2766D02*
X1222Y2766D01*
X1149Y2765D02*
X1165Y2765D01*
X1205Y2765D02*
X1222Y2765D01*
X1149Y2764D02*
X1165Y2764D01*
X1206Y2764D02*
X1222Y2764D01*
X1149Y2763D02*
X1165Y2763D01*
X1205Y2763D02*
X1222Y2763D01*
X1149Y2762D02*
X1165Y2762D01*
X1205Y2762D02*
X1222Y2762D01*
X1149Y2761D02*
X1166Y2761D01*
X1205Y2761D02*
X1222Y2761D01*
X1149Y2760D02*
X1166Y2760D01*
X1205Y2760D02*
X1222Y2760D01*
X1149Y2759D02*
X1166Y2759D01*
X1205Y2759D02*
X1222Y2759D01*
X1149Y2758D02*
X1166Y2758D01*
X1205Y2758D02*
X1222Y2758D01*
X1149Y2757D02*
X1167Y2757D01*
X1204Y2757D02*
X1222Y2757D01*
X1149Y2756D02*
X1167Y2756D01*
X1204Y2756D02*
X1222Y2756D01*
X1149Y2755D02*
X1167Y2755D01*
X1203Y2755D02*
X1222Y2755D01*
X1149Y2754D02*
X1168Y2754D01*
X1203Y2754D02*
X1222Y2754D01*
X1149Y2753D02*
X1169Y2753D01*
X1202Y2753D02*
X1222Y2753D01*
X1149Y2752D02*
X1169Y2752D01*
X1202Y2752D02*
X1222Y2752D01*
X1149Y2751D02*
X1170Y2751D01*
X1201Y2751D02*
X1222Y2751D01*
X1149Y2750D02*
X1171Y2750D01*
X1200Y2750D02*
X1222Y2750D01*
X1149Y2749D02*
X1172Y2749D01*
X1199Y2749D02*
X1222Y2749D01*
X1149Y2748D02*
X1173Y2748D01*
X1197Y2748D02*
X1222Y2748D01*
X1149Y2747D02*
X1175Y2747D01*
X1196Y2747D02*
X1222Y2747D01*
X1149Y2746D02*
X1177Y2746D01*
X1194Y2746D02*
X1222Y2746D01*
X1149Y2745D02*
X1180Y2745D01*
X1191Y2745D02*
X1222Y2745D01*
X1149Y2744D02*
X1222Y2744D01*
X1149Y2743D02*
X1222Y2743D01*
X1149Y2742D02*
X1222Y2742D01*
X1149Y2741D02*
X1222Y2741D01*
X1149Y2740D02*
X1222Y2740D01*
X1149Y2739D02*
X1222Y2739D01*
X1149Y2738D02*
X1222Y2738D01*
X1149Y2737D02*
X1222Y2737D01*
X1149Y2736D02*
X1222Y2736D01*
X1149Y2735D02*
X1222Y2735D01*
X1149Y2734D02*
X1222Y2734D01*
X1149Y2733D02*
X1222Y2733D01*
X1149Y2732D02*
X1222Y2732D01*
X1149Y2731D02*
X1222Y2731D01*
X1149Y2730D02*
X1222Y2730D01*
X1149Y2729D02*
X1222Y2729D01*
X1149Y2728D02*
X1222Y2728D01*
X1149Y2727D02*
X1222Y2727D01*
D02*
G04 End of Copper0*
M02*