; NON-PLATED HOLES START AT T1
; THROUGH (PLATED) HOLES START AT T100
M48
INCH
T100C0.035000
T101C0.046111
T102C0.030000
T103C0.039370
T104C0.038000
%
T100
X006860Y018629
X032861Y012629
X006860Y022629
X028861Y012629
T101
X029860Y019629
X028860Y019629
X027860Y019629
X026860Y019629
T102
X007860Y026631
X014861Y028631
X007860Y025629
X014861Y027629
T103
X011861Y027629
X011861Y025629
X011861Y026629
T104
X012861Y002629
X009860Y002629
X012861Y021629
X009860Y021629
X021861Y021629
X018861Y004629
X017861Y015629
X015861Y018629
X015861Y002629
X004860Y022629
X015861Y021629
X013861Y004629
X012861Y015629
X018861Y021629
X022861Y004629
X021861Y015629
X010861Y002629
X010861Y021629
X016861Y004629
X004860Y016629
X015861Y015629
X025861Y004629
X003860Y027629
X024861Y015629
X013861Y018629
X013861Y002629
X032861Y007629
X013861Y021629
X004860Y015629
X022861Y021629
X019861Y004629
X003860Y026629
X018861Y015629
X016861Y018629
X032861Y006629
X011861Y004629
X016861Y021629
X020861Y004629
X014861Y024629
X032861Y005629
X014861Y004629
X019861Y021629
X014861Y023629
X013861Y015629
X023861Y004629
X022861Y015629
X032861Y004629
X011861Y002629
X008860Y002629
X011861Y021629
X008860Y021629
X020861Y021629
X017861Y004629
X016861Y015629
X025861Y015629
X014861Y018629
X014861Y002629
X003860Y022629
X019861Y015629
X012861Y004629
X017861Y021629
X011861Y015629
X021861Y004629
X020861Y015629
X035861Y017629
X015861Y004629
X014861Y015629
X024861Y004629
X023861Y015629
T00
M30
