G04 MADE WITH FRITZING*
G04 WWW.FRITZING.ORG*
G04 DOUBLE SIDED*
G04 HOLES PLATED*
G04 CONTOUR ON CENTER OF CONTOUR VECTOR*
%ASAXBY*%
%FSLAX23Y23*%
%MOIN*%
%OFA0B0*%
%SFA1.0B1.0*%
%ADD10C,0.088000*%
%ADD11C,0.080000*%
%ADD12C,0.084000*%
%ADD13C,0.085000*%
%ADD14C,0.083889*%
%ADD15R,0.088000X0.088000*%
%ADD16R,0.001000X0.001000*%
%LNMASK1*%
G90*
G70*
G54D10*
X386Y2763D03*
X386Y2663D03*
G54D11*
X786Y2563D03*
X786Y2663D03*
G54D12*
X1186Y2763D03*
X1186Y2663D03*
X1186Y2563D03*
X1186Y2763D03*
X1186Y2663D03*
X1186Y2563D03*
G54D11*
X1486Y2763D03*
X1486Y2863D03*
G54D10*
X1486Y2463D03*
X1486Y2363D03*
X3286Y763D03*
X3286Y663D03*
X3286Y563D03*
X3286Y463D03*
X1686Y1863D03*
X1586Y1863D03*
X1486Y1863D03*
X1386Y1863D03*
G54D13*
X686Y1863D03*
X686Y2263D03*
G54D10*
X486Y2263D03*
X386Y2263D03*
G54D14*
X2986Y1963D03*
X2886Y1963D03*
X2786Y1963D03*
X2686Y1963D03*
G54D10*
X1186Y463D03*
X1286Y463D03*
X1386Y463D03*
X1486Y463D03*
X1586Y463D03*
X1686Y463D03*
X1786Y463D03*
X1886Y463D03*
X1986Y463D03*
X2086Y463D03*
X2186Y463D03*
X2286Y463D03*
X2386Y463D03*
X2486Y463D03*
X2586Y463D03*
X886Y2163D03*
X986Y2163D03*
X1086Y2163D03*
X1186Y2163D03*
X1286Y2163D03*
X1386Y2163D03*
X1586Y2163D03*
X1686Y2163D03*
X1786Y2163D03*
X1886Y2163D03*
X1986Y2163D03*
X2086Y2163D03*
X2186Y2163D03*
X2286Y2163D03*
X1186Y1563D03*
X1286Y1563D03*
X1386Y1563D03*
X1486Y1563D03*
X1586Y1563D03*
X1686Y1563D03*
X1786Y1563D03*
X1886Y1563D03*
X1986Y1563D03*
X2086Y1563D03*
X2186Y1563D03*
X2286Y1563D03*
X2386Y1563D03*
X2486Y1563D03*
X2586Y1563D03*
X886Y263D03*
X986Y263D03*
X1086Y263D03*
X1186Y263D03*
X1286Y263D03*
X1386Y263D03*
X1486Y263D03*
X1586Y263D03*
X486Y1663D03*
X486Y1563D03*
G54D13*
X3286Y1263D03*
X2886Y1263D03*
G54D10*
X3586Y1763D03*
G54D15*
X486Y2263D03*
G54D16*
X1144Y2805D02*
X1227Y2805D01*
X1144Y2804D02*
X1227Y2804D01*
X1144Y2803D02*
X1227Y2803D01*
X1144Y2802D02*
X1227Y2802D01*
X1144Y2801D02*
X1227Y2801D01*
X1144Y2800D02*
X1227Y2800D01*
X1144Y2799D02*
X1227Y2799D01*
X1144Y2798D02*
X1227Y2798D01*
X1144Y2797D02*
X1227Y2797D01*
X1144Y2796D02*
X1227Y2796D01*
X1144Y2795D02*
X1227Y2795D01*
X1144Y2794D02*
X1227Y2794D01*
X1144Y2793D02*
X1227Y2793D01*
X1144Y2792D02*
X1227Y2792D01*
X1144Y2791D02*
X1227Y2791D01*
X1144Y2790D02*
X1227Y2790D01*
X1144Y2789D02*
X1227Y2789D01*
X1144Y2788D02*
X1227Y2788D01*
X1144Y2787D02*
X1227Y2787D01*
X1144Y2786D02*
X1227Y2786D01*
X1144Y2785D02*
X1227Y2785D01*
X1144Y2784D02*
X1227Y2784D01*
X1144Y2783D02*
X1227Y2783D01*
X1144Y2782D02*
X1227Y2782D01*
X1144Y2781D02*
X1227Y2781D01*
X1144Y2780D02*
X1227Y2780D01*
X1144Y2779D02*
X1227Y2779D01*
X1144Y2778D02*
X1181Y2778D01*
X1190Y2778D02*
X1227Y2778D01*
X1144Y2777D02*
X1178Y2777D01*
X1193Y2777D02*
X1227Y2777D01*
X1144Y2776D02*
X1177Y2776D01*
X1194Y2776D02*
X1227Y2776D01*
X1144Y2775D02*
X1175Y2775D01*
X1195Y2775D02*
X1227Y2775D01*
X1144Y2774D02*
X1174Y2774D01*
X1196Y2774D02*
X1227Y2774D01*
X1144Y2773D02*
X1173Y2773D01*
X1197Y2773D02*
X1227Y2773D01*
X1144Y2772D02*
X1173Y2772D01*
X1198Y2772D02*
X1227Y2772D01*
X1144Y2771D02*
X1172Y2771D01*
X1199Y2771D02*
X1227Y2771D01*
X1144Y2770D02*
X1172Y2770D01*
X1199Y2770D02*
X1227Y2770D01*
X1144Y2769D02*
X1171Y2769D01*
X1200Y2769D02*
X1227Y2769D01*
X1144Y2768D02*
X1171Y2768D01*
X1200Y2768D02*
X1227Y2768D01*
X1144Y2767D02*
X1171Y2767D01*
X1200Y2767D02*
X1227Y2767D01*
X1144Y2766D02*
X1170Y2766D01*
X1200Y2766D02*
X1227Y2766D01*
X1144Y2765D02*
X1170Y2765D01*
X1200Y2765D02*
X1227Y2765D01*
X1144Y2764D02*
X1170Y2764D01*
X1201Y2764D02*
X1227Y2764D01*
X1144Y2763D02*
X1170Y2763D01*
X1201Y2763D02*
X1227Y2763D01*
X1144Y2762D02*
X1170Y2762D01*
X1200Y2762D02*
X1227Y2762D01*
X1144Y2761D02*
X1170Y2761D01*
X1200Y2761D02*
X1227Y2761D01*
X1144Y2760D02*
X1171Y2760D01*
X1200Y2760D02*
X1227Y2760D01*
X1144Y2759D02*
X1171Y2759D01*
X1200Y2759D02*
X1227Y2759D01*
X1144Y2758D02*
X1171Y2758D01*
X1199Y2758D02*
X1227Y2758D01*
X1144Y2757D02*
X1172Y2757D01*
X1199Y2757D02*
X1227Y2757D01*
X1144Y2756D02*
X1172Y2756D01*
X1198Y2756D02*
X1227Y2756D01*
X1144Y2755D02*
X1173Y2755D01*
X1198Y2755D02*
X1227Y2755D01*
X1144Y2754D02*
X1174Y2754D01*
X1197Y2754D02*
X1227Y2754D01*
X1144Y2753D02*
X1175Y2753D01*
X1196Y2753D02*
X1227Y2753D01*
X1144Y2752D02*
X1176Y2752D01*
X1195Y2752D02*
X1227Y2752D01*
X1144Y2751D02*
X1178Y2751D01*
X1193Y2751D02*
X1227Y2751D01*
X1144Y2750D02*
X1180Y2750D01*
X1191Y2750D02*
X1227Y2750D01*
X1144Y2749D02*
X1227Y2749D01*
X1144Y2748D02*
X1227Y2748D01*
X1144Y2747D02*
X1227Y2747D01*
X1144Y2746D02*
X1227Y2746D01*
X1144Y2745D02*
X1227Y2745D01*
X1144Y2744D02*
X1227Y2744D01*
X1144Y2743D02*
X1227Y2743D01*
X1144Y2742D02*
X1227Y2742D01*
X1144Y2741D02*
X1227Y2741D01*
X1144Y2740D02*
X1227Y2740D01*
X1144Y2739D02*
X1227Y2739D01*
X1144Y2738D02*
X1227Y2738D01*
X1144Y2737D02*
X1227Y2737D01*
X1144Y2736D02*
X1227Y2736D01*
X1144Y2735D02*
X1227Y2735D01*
X1144Y2734D02*
X1227Y2734D01*
X1144Y2733D02*
X1227Y2733D01*
X1144Y2732D02*
X1227Y2732D01*
X1144Y2731D02*
X1227Y2731D01*
X1144Y2730D02*
X1227Y2730D01*
X1144Y2729D02*
X1227Y2729D01*
X1144Y2728D02*
X1227Y2728D01*
X1144Y2727D02*
X1227Y2727D01*
X1144Y2726D02*
X1227Y2726D01*
X1144Y2725D02*
X1227Y2725D01*
X1144Y2724D02*
X1227Y2724D01*
X1144Y2723D02*
X1227Y2723D01*
X1144Y2722D02*
X1227Y2722D01*
D02*
G04 End of Mask1*
M02*