G04 MADE WITH FRITZING*
G04 WWW.FRITZING.ORG*
G04 DOUBLE SIDED*
G04 HOLES PLATED*
G04 CONTOUR ON CENTER OF CONTOUR VECTOR*
%ASAXBY*%
%FSLAX23Y23*%
%MOIN*%
%OFA0B0*%
%SFA1.0B1.0*%
%ADD10C,0.078000*%
%ADD11C,0.070000*%
%ADD12C,0.074000*%
%ADD13C,0.075000*%
%ADD14C,0.073889*%
%ADD15R,0.078000X0.078000*%
%ADD16R,0.001000X0.001000*%
%LNCOPPER1*%
G90*
G70*
G54D10*
X386Y2763D03*
X386Y2663D03*
G54D11*
X786Y2563D03*
X786Y2663D03*
G54D12*
X1186Y2763D03*
X1186Y2663D03*
X1186Y2563D03*
X1186Y2763D03*
X1186Y2663D03*
X1186Y2563D03*
G54D11*
X1486Y2763D03*
X1486Y2863D03*
G54D10*
X1486Y2463D03*
X1486Y2363D03*
X3286Y763D03*
X3286Y663D03*
X3286Y563D03*
X3286Y463D03*
X1686Y1863D03*
X1586Y1863D03*
X1486Y1863D03*
X1386Y1863D03*
G54D13*
X686Y1863D03*
X686Y2263D03*
G54D10*
X486Y2263D03*
X386Y2263D03*
G54D14*
X2986Y1963D03*
X2886Y1963D03*
X2786Y1963D03*
X2686Y1963D03*
G54D10*
X1186Y463D03*
X1286Y463D03*
X1386Y463D03*
X1486Y463D03*
X1586Y463D03*
X1686Y463D03*
X1786Y463D03*
X1886Y463D03*
X1986Y463D03*
X2086Y463D03*
X2186Y463D03*
X2286Y463D03*
X2386Y463D03*
X2486Y463D03*
X2586Y463D03*
X886Y2163D03*
X986Y2163D03*
X1086Y2163D03*
X1186Y2163D03*
X1286Y2163D03*
X1386Y2163D03*
X1586Y2163D03*
X1686Y2163D03*
X1786Y2163D03*
X1886Y2163D03*
X1986Y2163D03*
X2086Y2163D03*
X2186Y2163D03*
X2286Y2163D03*
X1186Y1563D03*
X1286Y1563D03*
X1386Y1563D03*
X1486Y1563D03*
X1586Y1563D03*
X1686Y1563D03*
X1786Y1563D03*
X1886Y1563D03*
X1986Y1563D03*
X2086Y1563D03*
X2186Y1563D03*
X2286Y1563D03*
X2386Y1563D03*
X2486Y1563D03*
X2586Y1563D03*
X886Y263D03*
X986Y263D03*
X1086Y263D03*
X1186Y263D03*
X1286Y263D03*
X1386Y263D03*
X1486Y263D03*
X1586Y263D03*
X486Y1663D03*
X486Y1563D03*
G54D13*
X3286Y1263D03*
X2886Y1263D03*
G54D10*
X3586Y1763D03*
G54D15*
X486Y2263D03*
G54D16*
X1149Y2800D02*
X1222Y2800D01*
X1149Y2799D02*
X1222Y2799D01*
X1149Y2798D02*
X1222Y2798D01*
X1149Y2797D02*
X1222Y2797D01*
X1149Y2796D02*
X1222Y2796D01*
X1149Y2795D02*
X1222Y2795D01*
X1149Y2794D02*
X1222Y2794D01*
X1149Y2793D02*
X1222Y2793D01*
X1149Y2792D02*
X1222Y2792D01*
X1149Y2791D02*
X1222Y2791D01*
X1149Y2790D02*
X1222Y2790D01*
X1149Y2789D02*
X1222Y2789D01*
X1149Y2788D02*
X1222Y2788D01*
X1149Y2787D02*
X1222Y2787D01*
X1149Y2786D02*
X1222Y2786D01*
X1149Y2785D02*
X1222Y2785D01*
X1149Y2784D02*
X1222Y2784D01*
X1149Y2783D02*
X1180Y2783D01*
X1190Y2783D02*
X1222Y2783D01*
X1149Y2782D02*
X1177Y2782D01*
X1193Y2782D02*
X1222Y2782D01*
X1149Y2781D02*
X1175Y2781D01*
X1195Y2781D02*
X1222Y2781D01*
X1149Y2780D02*
X1174Y2780D01*
X1197Y2780D02*
X1222Y2780D01*
X1149Y2779D02*
X1172Y2779D01*
X1198Y2779D02*
X1222Y2779D01*
X1149Y2778D02*
X1171Y2778D01*
X1200Y2778D02*
X1222Y2778D01*
X1149Y2777D02*
X1170Y2777D01*
X1200Y2777D02*
X1222Y2777D01*
X1149Y2776D02*
X1170Y2776D01*
X1201Y2776D02*
X1222Y2776D01*
X1149Y2775D02*
X1169Y2775D01*
X1202Y2775D02*
X1222Y2775D01*
X1149Y2774D02*
X1168Y2774D01*
X1203Y2774D02*
X1222Y2774D01*
X1149Y2773D02*
X1168Y2773D01*
X1203Y2773D02*
X1222Y2773D01*
X1149Y2772D02*
X1167Y2772D01*
X1204Y2772D02*
X1222Y2772D01*
X1149Y2771D02*
X1167Y2771D01*
X1204Y2771D02*
X1222Y2771D01*
X1149Y2770D02*
X1166Y2770D01*
X1205Y2770D02*
X1222Y2770D01*
X1149Y2769D02*
X1166Y2769D01*
X1205Y2769D02*
X1222Y2769D01*
X1149Y2768D02*
X1166Y2768D01*
X1205Y2768D02*
X1222Y2768D01*
X1149Y2767D02*
X1166Y2767D01*
X1205Y2767D02*
X1222Y2767D01*
X1149Y2766D02*
X1165Y2766D01*
X1205Y2766D02*
X1222Y2766D01*
X1149Y2765D02*
X1165Y2765D01*
X1205Y2765D02*
X1222Y2765D01*
X1149Y2764D02*
X1165Y2764D01*
X1206Y2764D02*
X1222Y2764D01*
X1149Y2763D02*
X1165Y2763D01*
X1205Y2763D02*
X1222Y2763D01*
X1149Y2762D02*
X1165Y2762D01*
X1205Y2762D02*
X1222Y2762D01*
X1149Y2761D02*
X1166Y2761D01*
X1205Y2761D02*
X1222Y2761D01*
X1149Y2760D02*
X1166Y2760D01*
X1205Y2760D02*
X1222Y2760D01*
X1149Y2759D02*
X1166Y2759D01*
X1205Y2759D02*
X1222Y2759D01*
X1149Y2758D02*
X1166Y2758D01*
X1205Y2758D02*
X1222Y2758D01*
X1149Y2757D02*
X1167Y2757D01*
X1204Y2757D02*
X1222Y2757D01*
X1149Y2756D02*
X1167Y2756D01*
X1204Y2756D02*
X1222Y2756D01*
X1149Y2755D02*
X1167Y2755D01*
X1203Y2755D02*
X1222Y2755D01*
X1149Y2754D02*
X1168Y2754D01*
X1203Y2754D02*
X1222Y2754D01*
X1149Y2753D02*
X1169Y2753D01*
X1202Y2753D02*
X1222Y2753D01*
X1149Y2752D02*
X1169Y2752D01*
X1202Y2752D02*
X1222Y2752D01*
X1149Y2751D02*
X1170Y2751D01*
X1201Y2751D02*
X1222Y2751D01*
X1149Y2750D02*
X1171Y2750D01*
X1200Y2750D02*
X1222Y2750D01*
X1149Y2749D02*
X1172Y2749D01*
X1199Y2749D02*
X1222Y2749D01*
X1149Y2748D02*
X1173Y2748D01*
X1197Y2748D02*
X1222Y2748D01*
X1149Y2747D02*
X1175Y2747D01*
X1196Y2747D02*
X1222Y2747D01*
X1149Y2746D02*
X1177Y2746D01*
X1194Y2746D02*
X1222Y2746D01*
X1149Y2745D02*
X1180Y2745D01*
X1191Y2745D02*
X1222Y2745D01*
X1149Y2744D02*
X1222Y2744D01*
X1149Y2743D02*
X1222Y2743D01*
X1149Y2742D02*
X1222Y2742D01*
X1149Y2741D02*
X1222Y2741D01*
X1149Y2740D02*
X1222Y2740D01*
X1149Y2739D02*
X1222Y2739D01*
X1149Y2738D02*
X1222Y2738D01*
X1149Y2737D02*
X1222Y2737D01*
X1149Y2736D02*
X1222Y2736D01*
X1149Y2735D02*
X1222Y2735D01*
X1149Y2734D02*
X1222Y2734D01*
X1149Y2733D02*
X1222Y2733D01*
X1149Y2732D02*
X1222Y2732D01*
X1149Y2731D02*
X1222Y2731D01*
X1149Y2730D02*
X1222Y2730D01*
X1149Y2729D02*
X1222Y2729D01*
X1149Y2728D02*
X1222Y2728D01*
X1149Y2727D02*
X1222Y2727D01*
D02*
G04 End of Copper1*
M02*